<svg fill="none" height="24" viewBox="0 0 24 24" width="24" xmlns="http://www.w3.org/2000/svg" xmlns:xlink="http://www.w3.org/1999/xlink"><linearGradient id="a"><stop offset=".3033" stop-color="#473788"/><stop offset=".872" stop-color="#2c2255"/></linearGradient><linearGradient id="b" gradientUnits="userSpaceOnUse" x1="1200" x2="1200" xlink:href="#a" y1="24472.5" y2="-3581.91"/><linearGradient id="c" gradientUnits="userSpaceOnUse" x1="1199.98" x2="1199.98" xlink:href="#a" y1="20140.2" y2="-7914.17"/><linearGradient id="d" gradientUnits="userSpaceOnUse" x1="1199.98" x2="1199.98" y1="4834.44" y2="-3743.98"><stop offset=".3033" stop-color="#473788"/><stop offset=".8631" stop-color="#2c2255"/></linearGradient><path d="m6.60505 15.332h-3.68018c.48728 1.6715 1.39147 3.1695 2.71522 4.4935 2.11035 2.1106 4.64791 3.1645 7.61551 3.1645.5932 0 1.1679-.0442 1.7261-.1284 2.2352-.3374 4.1922-1.348 5.869-3.0361 1.3322-1.3235 2.2428-2.822 2.7339-4.4935zm-2.02926-4.9982h-1.9225c-.07168.4288-.11841.8615-.13997 1.2958h21.48528c-.0219-.4422-.0698-.8735-.1408-1.2958m-21.34448 2.4991c.02173.4424.06942.8736.13997 1.2958h21.20491c.0722-.4288.1193-.8615.1411-1.2958m-.4143-3.70276c-.4905-1.67603-1.4013-3.18114-2.7343-4.51438-1.6724-1.67227-3.6237-2.67561-5.8518-3.01313-.5769-.08725-1.1597-.13083-1.7432-.13038-2.9676 0-5.50536 1.04821-7.61552 3.1436-1.32421 1.33315-2.22897 2.83826-2.71587 4.51429" fill="#2c2255"/><path d="m1.87471 12.2318c0-5.67588 4.26265-10.39176 9.80799-11.22126-.1375-.00499-.2758-.01054-.4147-.01054-6.22288.00009-11.268 5.02885-11.268 11.2318 0 6.2032 5.04494 11.2316 11.268 11.2316.1394 0 .2776-.0053.4157-.0104-5.54634-.8294-9.80899-5.5454-9.80899-11.2212z" fill="#f7941e"/><path d="m20.5678 11.629c-.0351-.4378-.1095-.8715-.2223-1.2958h-14.17836c-.11294.4243-.18743.858-.22257 1.2958z" fill="url(#b)"/><path d="m20.5678 12.8327h-14.62305c.035.4378.10943.8715.22238 1.2959h14.17847c.1128-.4244.1872-.8582.2222-1.2959z" fill="url(#c)"/><path d="m13.256 19.5694c2.9444 0 5.4826-1.7347 6.6513-4.2376l-13.30225.0002c1.16881 2.5029 3.70655 4.2374 6.65095 4.2374z" fill="url(#d)"/><path d="m23.9842 12.8329c.0102-.1914.0158-.3842.0158-.5782 0-.21-.0076-.4181-.0196-.6253l-21.46708.0002c-.01185.2069-.01954.4151-.01954.6251 0 .194.00565.3868.01581.5782zm-17.4222-3.70273-3.63769-.00003c-.11956.3919-.19689.79395-.27102 1.20366h21.13661c-.073-.40648-.1696-.80836-.2892-1.20363m-20.84741 4.99853c.07206.4094.154.811.27158 1.2033l20.64613.0001c.1181-.3954.213-.7972.2844-1.2036z" fill="#fff"/></svg>