<svg width="24" height="24" viewBox="0 0 24 24" fill="none" xmlns="http://www.w3.org/2000/svg">
  <path
    d="M12 0.375C5.37 0.375 0 5.70877 0 12.294C0 17.5682 3.435 22.023 8.205 23.6022C8.805 23.7065 9.03 23.349 9.03 23.0361C9.03 22.753 9.015 21.8144 9.015 20.8162C6 21.3674 5.22 20.0861 4.98 19.4157C4.845 19.073 4.26 18.0152 3.75 17.7321C3.33 17.5086 2.73 16.9574 3.735 16.9425C4.68 16.9276 5.355 17.8066 5.58 18.1642C6.66 19.9669 8.385 19.4604 9.075 19.1475C9.18 18.3728 9.495 17.8513 9.84 17.5533C7.17 17.2553 4.38 16.2273 4.38 11.6683C4.38 10.3721 4.845 9.29938 5.61 8.46505C5.49 8.16707 5.07 6.94537 5.73 5.3065C5.73 5.3065 6.735 4.99363 9.03 6.5282C9.99 6.26003 11.01 6.12594 12.03 6.12594C13.05 6.12594 14.07 6.26003 15.03 6.5282C17.325 4.97873 18.33 5.3065 18.33 5.3065C18.99 6.94537 18.57 8.16707 18.45 8.46505C19.215 9.29938 19.68 10.3572 19.68 11.6683C19.68 16.2422 16.875 17.2553 14.205 17.5533C14.64 17.9258 15.015 18.6409 15.015 19.7583C15.015 21.3525 15 22.6338 15 23.0361C15 23.349 15.225 23.7214 15.825 23.6022C18.2072 22.8034 20.2773 21.2827 21.7438 19.2542C23.2103 17.2256 23.9994 14.7914 24 12.294C24 5.70877 18.63 0.375 12 0.375Z"
    fill="currentColor" />
</svg>
