<svg fill="none" height="24" viewBox="0 0 24 24" width="24" xmlns="http://www.w3.org/2000/svg"><path d="m1.20931 8.63918s-.535836-.38878.10717-.90791l1.49811-1.34838s.42867-.45395.8819-.05843l13.82461 10.53534v5.0519s-.0067.7933-1.0181.7057z" fill="#2489ca"/><path d="m4.77269 11.8955-3.56333 3.2608s-.366152.2742 0 .7641l1.65441 1.5147s.39294.4247.97344-.0584l3.77766-2.8833z" fill="#1070b3"/><path d="m11.0284 11.9227 6.535-5.02276-.0424-5.02496s-.2791-1.096687-1.2101-.52587l-8.69624 7.96668z" fill="#0877b9"/><path d="m16.503 22.6244c.3796.391.8395.2629.8395.2629l5.0927-2.5259c.6519-.4472.5604-1.0023.5604-1.0023v-15.0839c0-.66295-.6743-.89217-.6743-.89217l-4.4139-2.14168c-.9645-.600031-1.5965.10776-1.5965.10776s.8127-.588796 1.2101.52587l.0001 19.94492c0 .1371-.029.2719-.0871.3933-.1161.2359-.3683.4562-.9734.364z" fill="#3c99d4"/></svg>