<svg width="20" height="20" viewBox="0 0 20 20" fill="none" xmlns="http://www.w3.org/2000/svg">
  <path
    d="M18.7832 9.99992C18.7835 8.79458 18.5463 7.601 18.0852 6.48736C17.624 5.37372 16.948 4.36185 16.0957 3.50955C15.2434 2.65725 14.2315 1.98122 13.1179 1.52008C12.0042 1.05895 10.8107 0.821745 9.60532 0.822022C8.39999 0.821745 7.20641 1.05895 6.09277 1.52008C4.97913 1.98122 3.96726 2.65725 3.11496 3.50955C2.26265 4.36185 1.58663 5.37372 1.12549 6.48736C0.664357 7.601 0.427153 8.79458 0.427429 9.99992C0.427384 12.1857 1.20734 14.2997 2.62697 15.9617C4.04661 17.6237 6.01273 18.7246 8.17164 19.0662V12.6525H5.84006V9.99992H8.17164V7.97886C8.17164 5.67781 9.54006 4.40728 11.638 4.40728C12.6422 4.40728 13.6927 4.58623 13.6927 4.58623V6.84413H12.5348C11.3948 6.84413 11.0401 7.5515 11.0401 8.27676V9.99992H13.5843L13.178 12.6525H11.039V19.0662C13.1979 18.7246 15.164 17.6237 16.5837 15.9617C18.0033 14.2997 18.7833 12.1857 18.7832 9.99992Z"
    fill="currentColor" />
</svg>
