<svg width="20" height="20" viewBox="0 0 20 20" fill="none" xmlns="http://www.w3.org/2000/svg">
  <path
    d="M5.84212 17.1052H2.40528V6.03674H5.84212V17.1052ZM4.12212 4.52622C3.59248 4.52232 3.0859 4.30905 2.71296 3.93295C2.34002 3.55686 2.13102 3.0485 2.13159 2.51885C2.13159 1.99093 2.34131 1.48463 2.7146 1.11133C3.0879 0.738036 3.5942 0.52832 4.12212 0.52832C4.65004 0.52832 5.15634 0.738036 5.52963 1.11133C5.90293 1.48463 6.11265 1.99093 6.11265 2.51885C6.11265 3.61779 5.22107 4.52832 4.12212 4.52832V4.52622ZM18.7063 17.1052H15.2769V11.7167C15.2769 10.4325 15.2516 8.78621 13.4905 8.78621C11.7032 8.78621 11.4295 10.181 11.4295 11.6252V17.1052H7.9958V6.03674H11.2926V7.54621H11.34C11.799 6.67674 12.92 5.75885 14.5926 5.75885C18.0716 5.75885 18.7105 8.04937 18.7105 11.0252V17.1052H18.7063Z"
    fill="currentColor" />
</svg>
