<svg fill="none" height="16" viewBox="0 0 16 16" width="16" xmlns="http://www.w3.org/2000/svg">
  <path
    d="m8 0c-4.42 0-8 3.55585-8 7.94603 0 3.51607 2.29 6.48597 5.47 7.53877.4.0695.55-.1688.55-.3774 0-.1887-.01-.8145-.01-1.48-2.01.3675-2.53-.4867-2.69-.9336-.09-.2285-.48-.9337-.82-1.1224-.28-.149-.68-.5165-.01-.5264.63-.01 1.08.5761 1.23.8144.72 1.2019 1.87.8642 2.33.6556.07-.5165.28-.8641.51-1.0628-1.78-.1986-3.64-.884-3.64-3.92334 0-.86413.31-1.57927.82-2.13549-.08-.19865-.36-1.01312.08-2.1057 0 0 .67-.20858 2.2.81447.64-.17879 1.32-.26818 2-.26818s1.36.08939 2 .26818c1.53-1.03299 2.2-.81447 2.2-.81447.44 1.09258.16 1.90705.08 2.1057.51.55622.82 1.26143.82 2.13549 0 3.04924-1.87 3.72474-3.65 3.92334.29.2483.54.7251.54 1.47 0 1.0628-.01 1.917-.01 2.1852 0 .2086.15.4569.55.3774 1.5881-.5325 2.9682-1.5463 3.9458-2.8987.9777-1.3523 1.5038-2.97518 1.5042-4.64007 0-4.39018-3.58-7.94603-8-7.94603z"
    fill="currentColor" />
</svg>
