<svg fill="none" height="16" viewBox="0 0 16 16" width="16" xmlns="http://www.w3.org/2000/svg">
  <g fill="currentColor">
    <path
      d="m5.5 9v2c0 1.3807 1.11929 2.5 2.5 2.5h3c1.3807 0 2.5-1.1193 2.5-2.5v-3c0-1.38071-1.1193-2.5-2.5-2.5h-2v1.5h2c.5523 0 1 .44772 1 1v3c0 .5523-.4477 1-1 1h-3c-.55228 0-1-.4477-1-1v-2z" />
    <path
      clip-rule="evenodd"
      d="m5 2.5h3c1.38071 0 2.5 1.11929 2.5 2.5v3c0 1.38071-1.11929 2.5-2.5 2.5h-3c-1.38071 0-2.5-1.11929-2.5-2.5v-3c0-1.38071 1.11929-2.5 2.5-2.5zm0 1.5c-.55228 0-1 .44772-1 1v3c0 .55228.44772 1 1 1h3c.55228 0 1-.44772 1-1v-3c0-.55228-.44772-1-1-1z"
      fill-rule="evenodd" />
  </g>
</svg>
