<svg width="98" height="40" viewBox="0 0 98 40" fill="none" xmlns="http://www.w3.org/2000/svg">
<path d="M33.7156 2.66763C27.5729 6.30412 22.5313 11.507 19.2492 18.2358C20.1652 18.774 23.6756 22.1288 24.2804 22.6919C34.2665 9.67602 55.9319 9.11377 55.9319 9.11377C51.4852 3.74893 44.6169 1.42897 39.3393 1.42885C37.0604 1.42874 35.0787 1.86117 33.7156 2.66763Z" fill="url(#paint0_radial_1596_524)"/>
<path d="M2.37119 14.7781C2.37119 14.7781 12.1484 14.5154 18.3033 17.7611C21.7572 19.5819 24.2883 24.3965 28.1359 24.7296C28.3896 24.3904 28.762 23.6381 28.8652 21.9795C29.2267 16.1892 23.0683 9.30029 16.2128 7.84853C15.4659 7.69003 14.6629 7.60686 13.8311 7.60674C9.67827 7.60651 4.78975 9.67766 2.37119 14.7781Z" fill="url(#paint1_radial_1596_524)"/>
<path d="M11.42 29.2299L15.7699 37.9911C15.7699 37.9911 25.1371 34.5754 27.6633 27.1349C26.8146 26.8978 25.569 26.2195 24.7507 25.7663C24.2489 25.4861 23.5949 25.0371 22.8846 24.4406C21.1639 28.1324 11.42 29.2299 11.42 29.2299Z" fill="url(#paint2_radial_1596_524)"/>
<path d="M17.3187 24.3904C17.653 36.1358 39.3996 37.9911 39.3996 37.9911L42.5501 27.4129C42.5501 27.4129 35.9597 28.6226 28.8949 27.129C24.1276 26.1201 20.4176 22.5885 18.6473 19.3033C17.7706 20.7806 17.2823 23.1249 17.3187 24.3904Z" fill="url(#paint3_radial_1596_524)"/>
<path d="M78.9883 36.6707C77.7361 36.6707 76.7217 35.5823 76.7217 34.2409C76.7217 32.8996 77.7361 31.8118 78.9883 31.8118C80.2423 31.8118 81.2579 32.8996 81.2579 34.2409C81.2579 35.5823 80.2423 36.6707 78.9883 36.6707ZM79.0053 30.471C76.8625 30.471 75.1261 32.1691 75.1261 34.2634C75.1261 36.3576 76.8625 38.0558 79.0053 38.0558C81.1487 38.0558 82.885 36.3576 82.885 34.2634C82.885 32.1691 81.1487 30.471 79.0053 30.471Z" fill="#0062AD"/>
<path d="M69.6927 36.7024C69.5471 36.7024 69.1928 36.6872 68.9198 36.3966C68.6941 36.1382 68.6771 35.9786 68.662 35.077V31.9684H70.7483V30.6798H68.662V29.1831L66.0186 31.8234V31.9684H67.0305V35.125C67.0305 35.7845 67.0305 36.558 67.3837 37.0883C67.8835 37.7974 68.7693 38.0062 69.2667 38.0062C69.686 38.0062 70.4438 37.8939 71.1202 37.5238V36.1879C70.3303 36.6702 69.9815 36.7024 69.6927 36.7024Z" fill="#0062AD"/>
<path d="M74.0359 29.0379C74.0359 29.5559 73.5924 30.0182 73.055 30.0182C72.4258 30.0182 72.0915 29.4444 72.0915 29.0379C72.0915 28.5755 72.4992 28.0762 73.055 28.0762C73.6094 28.0762 74.0359 28.5197 74.0359 29.0379Z" fill="#0062AD"/>
<path d="M73.9127 37.9133H72.2146V30.6846H73.9127V37.9133Z" fill="#0062AD"/>
<path d="M56.888 37.9133H58.8828L54.4941 29.1874H54.2974H52.5004H52.3026L47.9151 37.9133H49.9105L51.2221 35.3033H54.5073L53.8431 33.9819H51.8865L53.3995 30.9741L56.888 37.9133Z" fill="#0062AD"/>
<path d="M91.9077 36.0649C92.7855 36.5229 93.4225 36.6856 94.2118 36.6856C95.0715 36.6856 95.6552 36.3373 95.6552 35.9078C95.6552 35.5819 95.33 35.3314 94.7452 35.1094L93.9201 34.7684C92.4931 34.192 91.9077 33.5708 91.9077 32.6396C91.9077 31.3382 93.1683 30.4912 95.1122 30.4912C95.9027 30.4912 96.5045 30.5945 97.2787 30.8899L97.2732 32.335C96.5167 31.9207 95.9834 31.7581 95.2438 31.7581C94.4018 31.7581 93.8181 32.0917 93.8181 32.5213C93.8181 32.8762 94.0414 32.9951 95.33 33.5418C96.2934 33.9555 96.6714 34.163 97.0154 34.5033C97.3593 34.8431 97.5651 35.3163 97.5651 35.8186C97.5651 37.1939 96.3104 38.0372 94.264 38.0372C93.4043 38.0372 92.6995 37.9037 91.9077 37.5943V36.0649Z" fill="#0062AD"/>
<path d="M89.1023 37.9105V33.2808C89.1023 32.5298 88.6395 31.763 87.4248 31.763C86.2588 31.763 85.6831 32.5298 85.6831 33.2808V37.9105H84.0997V30.6927H85.6831V31.382C86.2425 30.7747 86.6743 30.4871 87.8083 30.4871C89.3899 30.4871 90.687 31.4936 90.687 33.1074V37.9105H89.1023Z" fill="#0062AD"/>
<path d="M65.3227 31.028C65.3227 31.028 64.204 30.2666 62.8219 30.2666C60.1689 30.2666 58.8828 32.3724 58.8828 34.1797C58.8828 36.2164 60.4007 38.0061 62.9706 38.0061C64.1232 38.0061 64.9362 37.6306 65.2687 37.5147V36.0568C64.7208 36.3043 64.1063 36.6138 63.1866 36.6138C61.3623 36.6138 60.454 35.384 60.454 34.1408C60.454 32.9639 61.3623 31.6426 62.9038 31.6426C63.8151 31.6426 64.3022 32.0478 64.3022 32.0478L65.3227 31.028Z" fill="#0062AD"/>
<path d="M62.8359 19.3167C62.8869 19.3167 62.933 19.3361 62.9718 19.3756C63.0137 19.4157 63.0336 19.4532 63.0336 19.4872V21.5184C63.0336 21.5633 63.0106 21.6046 62.9651 21.644C62.9196 21.6835 62.8772 21.7034 62.8359 21.7034H59.3548V19.3167H62.8359ZM59.5227 24.9608C59.4918 24.9608 59.456 24.9426 59.4166 24.9079C59.3754 24.8728 59.3548 24.8334 59.3548 24.789V22.9556H63.7581C63.9492 22.9556 64.1305 22.9235 64.2968 22.8574C64.4648 22.7918 64.6092 22.7014 64.73 22.5874C64.9545 22.3762 65.0654 22.1257 65.0654 21.8351V19.3429C65.0654 18.9648 64.938 18.6664 64.6857 18.4467C64.4321 18.2101 64.0469 18.0901 63.5287 18.0901H59.3548V16.2359H65.1959V14.8982H57.3078V24.9735C57.3078 25.4049 57.454 25.7343 57.7494 25.9618C58.0321 26.191 58.4229 26.3045 58.9197 26.3045H65.2269V24.9608H59.5227Z" fill="#0062AD"/>
<path d="M56.5051 16.0121H54.9988C54.9988 16.0121 55.0012 18.7821 54.8568 20.3558H55.9343C55.9343 20.3558 56.4724 18.6056 56.5051 16.0121Z" fill="#0062AD"/>
<path d="M51.6608 21.0663C51.6608 21.0663 52.0447 19.8341 52.0447 16.012H50.5535V21.0663H51.6608Z" fill="#0062AD"/>
<path d="M54.1858 14.4227H52.6649L52.6629 20.3487C52.5186 22.5899 51.6893 24.6428 50.3819 26.3022H52.0309C53.3716 24.7823 54.1858 22.7883 54.1858 20.6024V14.4227Z" fill="#0062AD"/>
<path d="M55.0776 21.0743H53.792C53.9024 22.8415 54.2428 24.5464 54.7816 26.1614H56.5888C55.8196 24.5925 55.2984 22.8798 55.0776 21.0743Z" fill="#0062AD"/>
<path d="M79.7734 19.9816C79.9403 21.3685 80.2466 22.7135 80.6743 24.0027H82.5235C81.9078 22.7444 81.4467 21.3945 81.1681 19.9816H79.7734ZM86.7843 19.9816C87.3163 21.3685 87.6845 22.7135 87.9024 24.0027H86.0544C86.0411 22.7444 85.8233 21.3945 85.3924 19.9816H86.7843ZM85.3246 23.0811V24.9655C85.3246 25.3968 85.179 25.7263 84.8835 25.9556C84.6007 26.1843 84.2094 26.2983 83.7126 26.2983H83.4736H82.4161H78.0079C77.511 26.2983 77.1215 26.1843 76.8364 25.9556C76.5421 25.7263 76.3947 25.3968 76.3947 24.9655V19.9816H78.4429V24.7805C78.4429 24.8247 78.4648 24.8654 78.506 24.8993C78.5449 24.9352 78.5813 24.9528 78.6128 24.9528H82.4161H83.1077C83.1387 24.9528 83.1738 24.9352 83.2145 24.8993C83.2557 24.8654 83.2776 24.8247 83.2776 24.7805V22.35L85.3246 23.0811ZM74.824 24.0027C75.3531 22.6152 75.7244 21.2701 75.9428 19.9816H74.0948C74.0784 21.2392 73.863 22.5892 73.431 24.0027H74.824ZM73.431 15.9362V17.2733H76.3947V18.804H78.4429V17.2733H83.2776V18.804H85.3246V17.2733H88.2901V15.9362H85.3246V14.4049H83.2776V15.9362H78.4429V14.4049H76.3947V15.9362H73.431Z" fill="#0062AD"/>
<defs>
<radialGradient id="paint0_radial_1596_524" cx="0" cy="0" r="1" gradientUnits="userSpaceOnUse" gradientTransform="translate(46.3675 1.34786) scale(44.2249 44.2249)">
<stop stop-color="#45B2E7"/>
<stop offset="1" stop-color="#00579F"/>
</radialGradient>
<radialGradient id="paint1_radial_1596_524" cx="0" cy="0" r="1" gradientUnits="userSpaceOnUse" gradientTransform="translate(7.58597 10.5717) scale(31.4026 31.4026)">
<stop stop-color="#8EC31F"/>
<stop offset="0.0599383" stop-color="#8EC31F"/>
<stop offset="1" stop-color="#00A73C"/>
</radialGradient>
<radialGradient id="paint2_radial_1596_524" cx="0" cy="0" r="1" gradientUnits="userSpaceOnUse" gradientTransform="translate(7.58573 10.5712) scale(31.4018 31.4018)">
<stop stop-color="#8EC31F"/>
<stop offset="0.0599383" stop-color="#8EC31F"/>
<stop offset="1" stop-color="#00A73C"/>
</radialGradient>
<radialGradient id="paint3_radial_1596_524" cx="0" cy="0" r="1" gradientUnits="userSpaceOnUse" gradientTransform="translate(46.3681 1.34903) scale(44.2211 44.2211)">
<stop stop-color="#45B2E7"/>
<stop offset="1" stop-color="#00579F"/>
</radialGradient>
</defs>
</svg>
