<svg width="111" height="40" viewBox="0 0 111 40" fill="none" xmlns="http://www.w3.org/2000/svg">
<g clip-path="url(#clip0_1588_940)">
<path d="M1.23697 39.9508L31.6693 20.7663L33.9048 12.8717L1.23697 39.9508Z" fill="#17A1DB"/>
<path d="M0.976776 39.8804L33.9961 12.5131L37.5743 0.0350952L0.976776 39.8804Z" fill="#5DCBED"/>
<path d="M34.1367 12.8717L31.9434 20.7663L40.1965 33.8418L34.1367 12.8717Z" fill="#5DCBED"/>
<path d="M34.2142 12.5553L40.3653 33.7223L37.8205 0.0350952L34.2142 12.5553Z" fill="#17A1DB"/>
<path d="M45.4971 26.1794H110.559" stroke="black" stroke-width="0.362742" stroke-miterlimit="10"/>
<path fill-rule="evenodd" clip-rule="evenodd" d="M46.2915 32.1616C46.2915 32.1569 46.2915 32.1546 46.2915 32.1546V32.1616ZM48.0912 33.3567C48.6676 33.3567 49.5534 33.1036 49.5534 32.4498C49.5534 31.9437 48.9348 31.7398 48.4145 31.6414L47.1914 31.3954C46.5376 31.2688 45.9471 31.0228 45.9471 30.3198C45.9471 29.8839 46.2915 29.0614 47.8451 29.0614C48.9418 29.0614 49.8768 29.5324 49.8768 30.4534H49.3566C49.3144 29.7785 48.6395 29.427 47.8522 29.427C47.1351 29.427 46.4673 29.652 46.4673 30.3198C46.4673 30.7346 46.8469 30.9173 47.3038 31.0017L48.6465 31.2688C49.4269 31.4375 50.0736 31.7187 50.0736 32.4428C50.0736 32.7521 49.9189 33.7223 47.9646 33.7223C46.6641 33.7223 45.701 33.2512 45.7713 32.1616H46.2915C46.2704 33.0755 47.0789 33.3567 48.0912 33.3567ZM50.9031 29.1528H54.7063V29.5114H51.4304V31.1282H54.5024V31.4938H51.4304V33.2583H54.7485V33.6238H50.9031V29.1528ZM55.4655 29.1528H56.2388L58.1439 33.0755L60.042 29.1528H60.8082V33.6238H60.288V29.7574H60.2739L58.3899 33.6238H57.8978L56.0068 29.7574H55.9928V33.6238H55.4655V29.1528ZM61.9471 29.1528H62.4743V33.6309H61.9471V29.1528ZM67.6483 30.5096C67.4655 29.8207 66.7625 29.42 65.9611 29.42C64.5059 29.42 63.8873 30.4112 63.8873 31.3883C63.8873 32.3655 64.5059 33.3567 65.9611 33.3567C66.9804 33.3567 67.6272 32.717 67.7256 31.9226H68.2529C68.1052 33.0263 67.2476 33.7223 65.9611 33.7223C64.2247 33.7223 63.3601 32.6186 63.3601 31.3883C63.3601 30.1651 64.2247 29.0614 65.9611 29.0614C67.0086 29.0614 68.0279 29.5746 68.1755 30.5096H67.6483ZM71.3601 29.0614C73.0894 29.0614 73.9541 30.1651 73.9541 31.3883C73.9541 32.6186 73.0894 33.7223 71.3601 33.7223C69.6307 33.7223 68.759 32.6186 68.759 31.3883C68.759 30.1651 69.6307 29.0614 71.3601 29.0614ZM71.3601 33.3567C72.8152 33.3567 73.4268 32.3655 73.4268 31.3883C73.4268 30.4112 72.8082 29.42 71.3601 29.42C69.9119 29.42 69.2862 30.4112 69.2862 31.3883C69.2862 32.3655 69.9049 33.3567 71.3601 33.3567ZM74.7625 29.1528H75.346L78.5586 32.9419H78.5727V29.1528H79.0999V33.6238H78.5094L75.3038 29.8418H75.2898V33.6238H74.7625V29.1528ZM80.2036 29.1528H82.1087C83.7748 29.188 84.6395 29.9121 84.6395 31.3954C84.6395 32.8787 83.7748 33.6027 82.1087 33.6309H80.2036V29.1528ZM80.7238 33.2653H81.8486C83.4303 33.2653 84.1122 32.731 84.1122 31.3954C84.1122 30.0527 83.4303 29.5184 81.8486 29.5184H80.7238V33.2653ZM85.4339 29.1528H85.9611V31.9226C85.9611 32.956 86.5516 33.3567 87.5709 33.3567C88.5903 33.3567 89.1948 32.956 89.1948 31.9226V29.1528H89.7151V32.014C89.7151 32.9349 89.1105 33.7223 87.5709 33.7223C86.0384 33.7223 85.4339 32.9419 85.4339 32.014V29.1528ZM94.7977 30.5096C94.6149 29.8207 93.9119 29.427 93.1105 29.427C91.6553 29.427 91.0367 30.4182 91.0367 31.3954C91.0367 32.3725 91.6553 33.3637 93.1105 33.3637C94.1298 33.3637 94.7766 32.724 94.882 31.9296H95.4022C95.2546 33.0333 94.404 33.7223 93.1105 33.7223C91.3741 33.7223 90.5094 32.6186 90.5094 31.3954C90.5094 30.1651 91.3811 29.0614 93.1105 29.0614C94.1579 29.0614 95.1843 29.5817 95.3249 30.5096H94.7977ZM99.9787 29.1528V29.5184H98.0595V33.6309H97.5323V29.5184H95.6131V29.1528H99.9787ZM102.805 29.0614C104.534 29.0614 105.399 30.1651 105.399 31.3954C105.399 32.6186 104.534 33.7223 102.805 33.7223C101.075 33.7223 100.204 32.6186 100.204 31.3954C100.204 30.1651 101.068 29.0614 102.805 29.0614ZM102.805 33.3637C104.253 33.3637 104.871 32.3725 104.871 31.3954C104.871 30.4182 104.253 29.427 102.805 29.427C101.357 29.427 100.731 30.4182 100.731 31.3954C100.731 32.3725 101.35 33.3637 102.805 33.3637ZM108.738 29.1528C109.638 29.1528 110.411 29.5114 110.411 30.3198C110.411 30.8892 110.052 31.3462 109.342 31.4586V31.4727C110.052 31.557 110.263 31.9437 110.306 32.485C110.327 32.7873 110.327 33.4129 110.559 33.6309H109.982C109.856 33.4621 109.856 33.1247 109.835 32.9349C109.799 32.3092 109.722 31.6133 108.731 31.6414H106.741V33.6309H106.221V29.1528H108.738ZM106.734 31.2759H108.696C109.335 31.2759 109.884 30.9525 109.884 30.4041C109.884 29.8628 109.49 29.5184 108.696 29.5184H106.734V31.2759ZM45.5042 23.2548L52.3302 4.2038H58.6852L65.5112 23.2548H59.2898L58.5516 20.7451H52.3302L51.6131 23.2548H45.5042ZM55.4585 9.94721L53.5253 16.7732H57.469L55.4585 9.94721ZM67.824 4.2038H74.0736V18.8189H82.65V23.2618H67.824V4.2038ZM85.4831 4.2038H91.7326V23.2618H85.4831V4.2038ZM95.7326 4.2038H110.559V8.65371H101.975V12.1194H108.808V16.5623H101.975V23.2618H95.7326V4.2038Z" fill="black"/>
</g>
<defs>
<clipPath id="clip0_1588_940">
<rect width="109.877" height="40" fill="white" transform="translate(0.920593)"/>
</clipPath>
</defs>
</svg>
