<svg width="71" height="48" viewBox="0 0 71 48" fill="none" xmlns="http://www.w3.org/2000/svg">
<path d="M4.52763 35.9819L0.959058 47.8038H3.76715L4.41126 45.601H7.89228L8.51899 47.8038H11.5726L8.0043 35.9819H4.52763ZM5.11655 43.223L6.17665 39.5461L7.22479 43.223H5.11655ZM18.2821 42.4104C18.2408 42.3654 18.1978 42.3221 18.1532 42.2807C18.241 42.247 18.3267 42.2111 18.4104 42.1719C18.7413 42.0197 19.0414 41.8064 19.2954 41.5428C19.5503 41.2743 19.749 40.9562 19.8794 40.6077C20.0154 40.2525 20.0844 39.8444 20.0844 39.3955C20.0844 38.7765 19.9743 38.2412 19.7579 37.8039C19.5426 37.3658 19.2182 36.9925 18.8169 36.7211C18.4234 36.4534 17.9449 36.26 17.3943 36.1466C16.8652 36.0376 16.2693 35.9819 15.6235 35.9819H11.9807V47.8038H14.7744V43.1846H14.8573C15.1629 43.1846 15.4177 43.2528 15.636 43.3935C15.8527 43.5329 16.0188 43.7384 16.1447 44.0232L17.8332 47.8038H21.0836L19.0322 43.5867C18.7837 43.0745 18.5382 42.6902 18.2821 42.4104ZM17.067 40.1424C16.9858 40.2992 16.8682 40.4335 16.7244 40.5337C16.5664 40.6463 16.3704 40.7327 16.1409 40.7906C15.8987 40.8521 15.6222 40.883 15.3187 40.883H14.7744V38.3944H15.3883C16.0278 38.3944 16.5031 38.4962 16.8008 38.6974C17.0602 38.8726 17.1863 39.1678 17.1863 39.6005C17.1863 39.8097 17.1472 39.9871 17.067 40.1424ZM29.2686 37.3858C28.7983 36.906 28.205 36.5467 27.5054 36.3185C26.8235 36.0953 26.0209 35.9819 25.1201 35.9819H21.4254V47.8038H24.6416C25.6794 47.8038 26.5872 47.6603 27.3396 47.3775C28.1036 47.0908 28.7417 46.6747 29.2357 46.141C29.729 45.6085 30.0965 44.9578 30.3277 44.2075C30.5544 43.473 30.6692 42.6468 30.6692 41.752C30.6692 40.7765 30.5541 39.9209 30.3268 39.2087C30.0946 38.4791 29.7387 37.866 29.2686 37.3858ZM26.9845 44.5704C26.4994 45.1173 25.7958 45.383 24.8333 45.383H24.2188V38.4026H24.9809C25.5195 38.4026 25.9717 38.4799 26.3243 38.6325C26.6664 38.7801 26.9309 38.9887 27.1332 39.2696C27.3398 39.5577 27.4897 39.9192 27.5783 40.3433C27.6716 40.792 27.7191 41.3118 27.7191 41.8886C27.7191 43.1187 27.472 44.021 26.9845 44.5704ZM37.3987 43.5025C37.3987 43.9101 37.3618 44.2575 37.2881 44.5351C37.2196 44.7942 37.1187 45.0058 36.9876 45.1639C36.8637 45.3148 36.7014 45.4282 36.5183 45.492C36.3114 45.5671 36.0469 45.6049 35.7315 45.6049C35.3979 45.6049 35.1227 45.5616 34.9136 45.4757C34.7216 45.3994 34.5517 45.275 34.4196 45.1143C34.2875 44.9528 34.1929 44.7503 34.1382 44.5113C34.0773 44.2475 34.0466 43.9371 34.0466 43.5878V35.9819H31.2532V43.7158C31.2532 44.3549 31.3312 44.9415 31.4846 45.4592C31.6442 45.997 31.9073 46.4619 32.2671 46.8402C32.6268 47.2183 33.0977 47.5108 33.6668 47.7086C34.2198 47.902 34.8881 48 35.6529 48C36.3367 48 36.9643 47.902 37.5173 47.7086C38.0828 47.5119 38.5703 47.2136 38.9665 46.8218C39.3629 46.4294 39.6704 45.9354 39.8806 45.3538C40.0872 44.7826 40.1921 44.1137 40.1921 43.3657V35.9819H37.3987V43.5025ZM41.6207 38.3602H44.1275V45.4087H41.6207V47.8038H49.4628V45.4087H46.956V38.3602H49.4628V35.9819H41.6207V38.3602ZM57.2367 42.718L54.1138 35.9819H50.952V47.8038H53.5537V40.9396L56.6932 47.8038H59.839V35.9819H57.2367V42.718ZM68.8826 37.3806C68.067 36.3279 66.8443 35.7942 65.2491 35.7942C64.5666 35.7942 63.9157 35.917 63.3143 36.159C62.7045 36.4043 62.1656 36.7862 61.7123 37.295C61.2632 37.7995 60.9064 38.4482 60.6528 39.2227C60.4018 39.9874 60.2746 40.9043 60.2746 41.9484C60.2746 43.8772 60.6789 45.3778 61.4761 46.4092C62.2917 47.465 63.5144 48 65.1096 48C65.7923 48 66.4438 47.8772 67.0452 47.6352C67.6553 47.3896 68.1939 47.0075 68.6466 46.4995C69.0953 45.9953 69.452 45.3469 69.7065 44.5718C69.9569 43.8074 70.0841 42.8905 70.0841 41.8458C70.0841 39.9115 69.6798 38.409 68.8826 37.3806ZM67.0441 43.5232C66.9642 43.9595 66.8394 44.3273 66.6733 44.6167C66.5156 44.8924 66.3204 45.0944 66.077 45.2337C65.8345 45.3725 65.5324 45.4429 65.1795 45.4429C64.4813 45.4429 63.9946 45.1791 63.6917 44.6369C63.3589 44.0411 63.1901 43.1024 63.1901 41.8458C63.1901 41.2558 63.2319 40.7258 63.3151 40.2713C63.3951 39.8359 63.5207 39.4686 63.6893 39.1791C63.8497 38.9024 64.0454 38.6998 64.2877 38.5599C64.5267 38.4217 64.8266 38.3516 65.1795 38.3516C65.8831 38.3516 66.3712 38.6148 66.6711 39.1562C67.0014 39.7523 67.1689 40.6918 67.1689 41.9484C67.1689 42.54 67.127 43.0698 67.0441 43.5232ZM66.0487 1.58388H66.5444V2.90644H66.8959V1.58388H67.3957V1.25551H66.0487V1.58388ZM68.6189 1.25551L68.2799 2.38078L67.9291 1.25551H67.4704V2.90644H67.8011V1.85181L68.129 2.90644H68.4308L68.7418 1.87913V2.90644H69.0708V1.25551H68.6189ZM52.4433 33.2026C48.0147 33.2026 44.2284 31.6872 40.8961 28.5876C38.8376 26.6734 37.1404 24.3282 35.579 21.8898C34.0178 24.3282 32.3203 26.6734 30.2621 28.5876C26.6816 31.9179 22.5766 33.4195 17.7146 33.1775C8.44286 33.1367 0.912292 25.7107 0.912292 16.5888C0.912292 7.44174 8.48419 0 17.7913 0C22.8844 0 27.1724 1.71053 30.8992 5.229C32.6893 6.91911 34.2005 8.87964 35.579 10.931C36.9575 8.87964 38.4689 6.91911 40.2588 5.229C43.9856 1.71053 48.2736 0 53.3666 0C62.674 0 70.2456 7.44174 70.2456 16.5888C70.2456 25.7107 62.7153 33.1367 53.4433 33.1775C53.1102 33.1942 52.7768 33.2026 52.4433 33.2026ZM38.9697 16.3675C40.817 19.4091 42.6098 22.2402 44.7936 24.2711C47.2586 26.5639 49.8568 27.507 53.2155 27.3268L53.3666 27.3227C59.4926 27.3227 64.4767 22.5076 64.4767 16.5888C64.4767 10.6702 59.4926 5.85482 53.3666 5.85482C49.7502 5.85482 46.8336 7.01817 44.1881 9.51567C42.2123 11.3813 40.581 13.7714 38.9697 16.3675ZM17.7913 5.85482C11.6653 5.85482 6.68128 10.6702 6.68128 16.5888C6.68128 22.5076 11.6653 27.3227 17.7913 27.3227L17.9427 27.3268C21.3017 27.507 23.8993 26.5639 26.3643 24.2711C28.5481 22.2402 30.3413 19.4091 32.1882 16.3675C30.577 13.7714 28.9456 11.3813 26.9701 9.51567C24.3243 7.01817 21.4077 5.85482 17.7913 5.85482Z" fill="#00979C"/>
<path d="M54.1296 14.461V11.2861H50.8734V14.461H47.7453V17.7496H50.8734V20.948H54.1296V17.7496H57.2579V14.461H54.1296ZM13.1072 14.4213H23.3893V17.8131H13.1072V14.4213Z" fill="#00979C"/>
</svg>
