<svg fill="none" height="22" viewBox="0 0 72 22" width="72" xmlns="http://www.w3.org/2000/svg" xmlns:xlink="http://www.w3.org/1999/xlink"><clipPath id="a"><path d="m.315063 0h71.4247v22h-71.4247z"/></clipPath><g clip-path="url(#a)"><path d="m16.4682.708223h4.7918v20.523277h-4.7918v-2.1397c-2.1095 2.4411-4.6712 2.7726-6.1479 2.7726-6.32877 0-9.945208-5.274-9.945208-10.9096 0-6.69041 4.580818-10.789043 10.005508-10.789043 1.5068 0 4.1589.391781 6.0876 2.923293zm-11.18078 10.367077c0 3.5261 2.23014 6.5398 5.69588 6.5398 3.0137 0 5.8164-2.2 5.8164-6.4795 0-4.49039-2.7726-6.63012-5.8164-6.63012-3.46574-.03013-5.69588 2.92329-5.69588 6.56982zm21.66848-10.367077h4.7918v1.838357c.5425-.63288 1.326-1.32603 1.989-1.717809.9343-.542466 1.8384-.693151 2.9233-.693151 1.1754 0 2.4411.180822 3.7671.96438l-1.9589 4.33973c-1.0849-.69315-1.9589-.72329-2.4411-.72329-1.0246 0-2.0493.15069-2.9835 1.11507-1.326 1.41644-1.326 3.37534-1.326 4.73149v10.6685h-4.7918zm16.5452 0h4.7918v1.898627c1.5973-1.958901 3.4959-2.441093 5.063-2.441093 2.1397 0 4.1589 1.024663 5.3041 3.013703 1.7178-2.4411 4.2795-3.013703 6.0877-3.013703 2.5014 0 4.6712 1.175343 5.8466 3.224663.3917.69315 1.0849 2.2 1.0849 5.18356v12.68772h-4.7918v-11.27128c0-2.29041-.2411-3.22466-.452-3.64658-.3014-.78356-1.0247-1.80822-2.7425-1.80822-1.1753 0-2.2.63288-2.8329 1.50685-.8438 1.17534-.9342 2.92329-.9342 4.67123v10.5781h-4.7918v-11.30138c0-2.29041-.2411-3.22466-.4521-3.64658-.3013-.78356-1.0246-1.80822-2.7424-1.80822-1.1754 0-2.2.63288-2.8329 1.50685-.8438 1.17534-.9342 2.92329-.9342 4.67123v10.5781h-4.6713z" fill="#0091bd"/></g></svg>