<svg width="94" height="16" viewBox="0 0 94 16" fill="none" xmlns="http://www.w3.org/2000/svg">
<path d="M91.7857 15.6279H93.1914V0H91.7857V15.6279Z" fill="#23282A"/>
<path fill-rule="evenodd" clip-rule="evenodd" d="M86.8001 9.38502C86.8001 8.54437 86.5796 7.91732 86.1386 7.50389C85.6976 7.09045 85.0568 6.88373 84.2161 6.88373C83.6373 6.88373 83.0998 6.98709 82.6037 7.19381C82.1076 7.40053 81.6873 7.67615 81.3427 8.02068L80.5572 7.09045C80.9568 6.69079 81.4805 6.36005 82.1283 6.0982C82.7897 5.83636 83.5339 5.70544 84.3608 5.70544C84.8845 5.70544 85.3737 5.78124 85.8285 5.93283C86.2833 6.07064 86.6829 6.28425 87.0275 6.57365C87.372 6.86306 87.6407 7.22826 87.8337 7.66926C88.0266 8.11026 88.1231 8.62705 88.1231 9.21964V13.4574C88.1231 13.8295 88.1369 14.2153 88.1644 14.615C88.192 15.0146 88.2333 15.3523 88.2885 15.6279H87.0275C86.9861 15.3936 86.9517 15.1387 86.9241 14.863C86.8965 14.5874 86.8828 14.3187 86.8828 14.0568H86.8414C86.4004 14.7046 85.8974 15.1731 85.3324 15.4625C84.7811 15.7382 84.1127 15.876 83.3272 15.876C82.9551 15.876 82.5692 15.8208 82.1696 15.7106C81.7837 15.6141 81.4254 15.4487 81.0947 15.2145C80.7777 14.9802 80.509 14.677 80.2885 14.3049C80.0817 13.9328 79.9784 13.478 79.9784 12.9406C79.9784 12.1964 80.1644 11.6107 80.5365 11.1835C80.9224 10.7425 81.4323 10.4186 82.0662 10.2119C82.7002 9.99139 83.4237 9.85358 84.2368 9.79846C85.0637 9.72955 85.9181 9.6951 86.8001 9.6951V9.38502ZM86.3866 10.7907C85.8078 10.7907 85.2221 10.8183 84.6295 10.8734C84.0507 10.9147 83.5202 11.0112 83.0378 11.1628C82.5693 11.3006 82.1834 11.5073 81.8802 11.7829C81.577 12.0586 81.4254 12.4238 81.4254 12.8786C81.4254 13.2231 81.4874 13.5125 81.6115 13.7468C81.7493 13.9811 81.9284 14.174 82.1489 14.3256C82.3694 14.4634 82.6106 14.5668 82.8724 14.6357C83.1481 14.6908 83.4237 14.7183 83.6993 14.7183C84.1954 14.7183 84.6364 14.6357 85.0223 14.4703C85.4082 14.2911 85.732 14.0568 85.9939 13.7674C86.2557 13.4643 86.4555 13.1197 86.5934 12.7339C86.7312 12.348 86.8001 11.9414 86.8001 11.5142V10.7907H86.3866Z" fill="#23282A"/>
<path d="M75.7741 7.13189H78.5028V5.9536H75.7741V3.22492H74.3684V5.9536H72.3633V7.13189H74.3684V13.1681C74.3684 13.7055 74.4442 14.1396 74.5958 14.4704C74.7612 14.8011 74.9679 15.063 75.216 15.2559C75.464 15.4488 75.7328 15.5798 76.0222 15.6487C76.3116 15.7176 76.5872 15.752 76.849 15.752C77.166 15.752 77.4554 15.7245 77.7172 15.6693C77.9929 15.628 78.2547 15.5591 78.5028 15.4626L78.4408 14.243C78.2478 14.3395 78.0411 14.4153 77.8206 14.4704C77.6139 14.5255 77.4141 14.5531 77.2211 14.5531C77.0144 14.5531 76.8215 14.5324 76.6423 14.4911C76.4632 14.4359 76.3047 14.3464 76.1669 14.2223C76.0428 14.0845 75.9464 13.8985 75.8775 13.6642C75.8086 13.4299 75.7741 13.1336 75.7741 12.7753V7.13189Z" fill="#23282A"/>
<path fill-rule="evenodd" clip-rule="evenodd" d="M71.1174 10.5013V10.8114C71.1174 10.9216 71.1106 11.0388 71.0968 11.1628H63.0761C63.0899 11.6451 63.1864 12.0999 63.3655 12.5271C63.5447 12.9544 63.7927 13.3264 64.1097 13.6434C64.4267 13.9604 64.7988 14.2153 65.226 14.4083C65.6532 14.5874 66.1149 14.677 66.611 14.677C67.3414 14.677 67.9684 14.5116 68.4921 14.1809C69.0296 13.8363 69.4361 13.4436 69.7118 13.0026L70.766 13.8295C70.1872 14.5599 69.5464 15.0835 68.8435 15.4005C68.1545 15.7175 67.4103 15.876 66.611 15.876C65.8944 15.876 65.226 15.7519 64.6058 15.5039C63.9995 15.242 63.4758 14.8837 63.0348 14.4289C62.5938 13.9742 62.2424 13.4367 61.9805 12.8165C61.7325 12.1964 61.6084 11.5211 61.6084 10.7907C61.6084 10.0603 61.7325 9.38502 61.9805 8.76487C62.2286 8.14471 62.5731 7.60724 63.0141 7.15246C63.4551 6.69769 63.9719 6.34626 64.5645 6.0982C65.1571 5.83636 65.7979 5.70544 66.487 5.70544C67.2449 5.70544 67.9133 5.83636 68.4921 6.0982C69.0709 6.34626 69.5533 6.69079 69.9391 7.13179C70.325 7.55901 70.6144 8.06202 70.8074 8.64083C71.0141 9.21964 71.1174 9.8398 71.1174 10.5013ZM69.6911 10.0465C69.6497 9.13696 69.3535 8.38588 68.8022 7.79329C68.2647 7.18692 67.493 6.88373 66.487 6.88373C66.0184 6.88373 65.5843 6.97331 65.1846 7.15246C64.785 7.31784 64.4336 7.55212 64.1304 7.85531C63.8272 8.14471 63.586 8.48235 63.4069 8.86822C63.2277 9.24032 63.1243 9.63308 63.0968 10.0465H69.6911Z" fill="#23282A"/>
<path d="M51.3398 13.106H51.3192L46.3579 0.992284H44.084V15.6279H45.5724V2.91476H45.6138L50.9057 15.6279H51.6913L56.9832 2.91476H57.0246V15.6279H58.513V0.992284H56.2391L51.3398 13.106Z" fill="#23282A"/>
<path fill-rule="evenodd" clip-rule="evenodd" d="M40.9778 10.5013V10.8114C40.9778 10.9216 40.9709 11.0388 40.9571 11.1628H32.9365C32.9502 11.6451 33.0467 12.0999 33.2259 12.5271C33.405 12.9544 33.6531 13.3264 33.9701 13.6434C34.287 13.9604 34.6591 14.2153 35.0863 14.4083C35.5135 14.5874 35.9752 14.677 36.4713 14.677C37.2017 14.677 37.8288 14.5116 38.3525 14.1809C38.8899 13.8363 39.2965 13.4436 39.5721 13.0026L40.6264 13.8295C40.0476 14.5599 39.4067 15.0835 38.7039 15.4005C38.0148 15.7175 37.2706 15.876 36.4713 15.876C35.7547 15.876 35.0863 15.7519 34.4662 15.5039C33.8598 15.242 33.3361 14.8837 32.8951 14.4289C32.4541 13.9742 32.1027 13.4367 31.8409 12.8165C31.5928 12.1964 31.4688 11.5211 31.4688 10.7907C31.4688 10.0603 31.5928 9.38502 31.8409 8.76487C32.0889 8.14471 32.4334 7.60724 32.8744 7.15246C33.3154 6.69769 33.8322 6.34626 34.4248 6.0982C35.0174 5.83636 35.6582 5.70544 36.3473 5.70544C37.1053 5.70544 37.7737 5.83636 38.3525 6.0982C38.9313 6.34626 39.4136 6.69079 39.7995 7.13179C40.1854 7.55901 40.4748 8.06202 40.6677 8.64083C40.8744 9.21964 40.9778 9.8398 40.9778 10.5013ZM39.5514 10.0465C39.5101 9.13696 39.2138 8.38588 38.6626 7.79329C38.1251 7.18692 37.3533 6.88373 36.3473 6.88373C35.8787 6.88373 35.4446 6.97331 35.045 7.15246C34.6453 7.31784 34.2939 7.55212 33.9907 7.85531C33.6875 8.14471 33.4464 8.48235 33.2672 8.86822C33.0881 9.24032 32.9847 9.63308 32.9571 10.0465H39.5514Z" fill="#23282A"/>
<path d="M25.0652 7.06978C25.079 7.48321 25.0859 7.82085 25.0859 8.0827V15.6279H26.4916V10.6667C26.4916 10.019 26.5674 9.46771 26.719 9.01293C26.8843 8.54437 27.091 8.16538 27.3391 7.87598C27.601 7.57279 27.9041 7.35229 28.2487 7.21448C28.5932 7.07667 28.9515 7.00776 29.3236 7.00776C29.5165 7.00776 29.7095 7.02154 29.9024 7.04911C30.0953 7.07667 30.2332 7.10423 30.3158 7.13179L30.5019 5.8088C30.3503 5.76745 30.1987 5.73989 30.0471 5.72611C29.9093 5.71233 29.7508 5.70544 29.5717 5.70544C28.8826 5.70544 28.2624 5.88459 27.7112 6.2429C27.16 6.58743 26.7465 7.04222 26.4709 7.60724H26.4295C26.4295 7.40053 26.4227 7.13868 26.4089 6.82171C26.3951 6.50475 26.3744 6.21534 26.3469 5.9535H25.0032C25.0308 6.28425 25.0514 6.65634 25.0652 7.06978Z" fill="#23282A"/>
<path fill-rule="evenodd" clip-rule="evenodd" d="M20.1416 9.38502C20.1416 8.54437 19.9211 7.91732 19.4801 7.50389C19.0391 7.09045 18.3983 6.88373 17.5576 6.88373C16.9788 6.88373 16.4413 6.98709 15.9452 7.19381C15.4491 7.40053 15.0288 7.67615 14.6842 8.02068L13.8987 7.09045C14.2984 6.69079 14.822 6.36005 15.4698 6.0982C16.1313 5.83636 16.8754 5.70544 17.7023 5.70544C18.226 5.70544 18.7152 5.78124 19.17 5.93283C19.6248 6.07064 20.0244 6.28425 20.369 6.57365C20.7135 6.86306 20.9822 7.22826 21.1752 7.66926C21.3681 8.11026 21.4646 8.62705 21.4646 9.21964V13.4574C21.4646 13.8295 21.4784 14.2153 21.5059 14.615C21.5335 15.0146 21.5748 15.3523 21.63 15.6279H20.369C20.3276 15.3936 20.2932 15.1387 20.2656 14.863C20.2381 14.5874 20.2243 14.3187 20.2243 14.0568H20.1829C19.7419 14.7046 19.2389 15.1731 18.6739 15.4625C18.1226 15.7382 17.4542 15.876 16.6687 15.876C16.2966 15.876 15.9108 15.8208 15.5111 15.7106C15.1252 15.6141 14.7669 15.4487 14.4362 15.2145C14.1192 14.9802 13.8505 14.677 13.63 14.3049C13.4232 13.9328 13.3199 13.478 13.3199 12.9406C13.3199 12.1964 13.5059 11.6107 13.878 11.1835C14.2639 10.7425 14.7738 10.4186 15.4077 10.2119C16.0417 9.99139 16.7652 9.85358 17.5783 9.79846C18.4052 9.72955 19.2596 9.6951 20.1416 9.6951V9.38502ZM19.7281 10.7907C19.1493 10.7907 18.5636 10.8183 17.971 10.8734C17.3922 10.9147 16.8617 11.0112 16.3793 11.1628C15.9108 11.3006 15.5249 11.5073 15.2217 11.7829C14.9185 12.0586 14.7669 12.4238 14.7669 12.8786C14.7669 13.2231 14.8289 13.5125 14.953 13.7468C15.0908 13.9811 15.2699 14.174 15.4904 14.3256C15.7109 14.4634 15.9521 14.5668 16.2139 14.6357C16.4896 14.6908 16.7652 14.7183 17.0408 14.7183C17.5369 14.7183 17.9779 14.6357 18.3638 14.4703C18.7497 14.2911 19.0735 14.0568 19.3354 13.7674C19.5972 13.4643 19.7971 13.1197 19.9349 12.7339C20.0727 12.348 20.1416 11.9414 20.1416 11.5142V10.7907H19.7281Z" fill="#23282A"/>
<path fill-rule="evenodd" clip-rule="evenodd" d="M5.34588 0.992284H0.984131V15.6279H5.32521C6.16586 15.6279 6.92383 15.5315 7.59911 15.3385C8.27439 15.1456 8.84631 14.8768 9.31487 14.5323C9.78343 14.174 10.1417 13.7468 10.3898 13.2507C10.6516 12.7408 10.7826 12.1826 10.7826 11.5762C10.7826 10.5013 10.4656 9.65377 9.83166 9.03362C9.21151 8.39968 8.42598 8.02759 7.47508 7.91734V7.87599C8.26061 7.69684 8.88765 7.32475 9.35621 6.75972C9.82477 6.18091 10.0591 5.50563 10.0591 4.73388C10.0591 4.00348 9.91435 3.3971 9.62494 2.91476C9.34932 2.43242 8.98412 2.05344 8.52934 1.77781C8.08834 1.48841 7.58533 1.28858 7.0203 1.17833C6.45527 1.0543 5.89713 0.992284 5.34588 0.992284ZM5.46991 7.40054H2.4725V2.27394H5.05648C5.53882 2.27394 5.9936 2.32217 6.42082 2.41864C6.84803 2.50132 7.22013 2.64603 7.53709 2.85275C7.85406 3.05946 8.10212 3.3282 8.28128 3.65895C8.47421 3.97591 8.57068 4.36868 8.57068 4.83724C8.57068 5.31958 8.47421 5.72613 8.28128 6.05688C8.10212 6.38762 7.86095 6.65636 7.55777 6.86308C7.25458 7.05601 6.91694 7.19382 6.54485 7.27651C6.18653 7.3592 5.82822 7.40054 5.46991 7.40054ZM5.24252 14.3463H2.4725V8.62018H5.51126C6.71022 8.62018 7.63356 8.86135 8.28128 9.34369C8.94278 9.81225 9.27353 10.5289 9.27353 11.4936C9.27353 12.0035 9.16327 12.4445 8.94278 12.8166C8.72228 13.1749 8.42598 13.4712 8.05389 13.7054C7.69558 13.9259 7.26836 14.0913 6.77224 14.2016C6.28989 14.298 5.77999 14.3463 5.24252 14.3463Z" fill="#23282A"/>
</svg>
