<svg fill="none" height="28" viewBox="0 0 156 28" width="156" xmlns="http://www.w3.org/2000/svg"><path d="m9.23789 20.8648c0 .3903-.11571.7718-.33249 1.0963-.21678.3244-.5249.5773-.88539.7267-.3605.1493-.75718.1884-1.13987.1123-.3827-.0762-.73423-.2641-1.01015-.54-.27591-.276-.4638-.6276-.53993-1.0103-.07612-.3828-.03705-.7795.11227-1.1401.14932-.3605.40219-.6687.72663-.8855.32443-.2168.70587-.3325 1.09606-.3325.25908 0 .51563.051.75499.1502.23936.0991.45684.2445.64004.4277s.32852.4007.42767.6401c.09914.2394.15017.496.15017.7551z" fill="#e7352b"/><path d="m26.4472 18.8117c-.6289-4.3735-2.6571-8.4256-5.781-11.5499-3.1239-3.12431-7.1754-5.15277-11.54828-5.78177-1.0451.55485-2.00938 1.25013-2.86599 2.06647v1.90648c4.29917.00353 8.42147 1.71225 11.46267 4.75142 3.0412 3.0391 4.7531 7.1606 4.7602 11.4604h1.9062c.8089-.8579 1.5034-1.8169 2.0662-2.8531z" fill="#e7352b"/><path d="m27.9935 12.8256c0-1.6899-.3339-3.36311-.9825-4.92352-.6486-1.56042-1.5992-2.97725-2.797-4.16907-1.1979-1.19183-2.6194-2.13515-4.183-2.775758-1.5635-.640605-3.2382-.96586193-4.9278-.95707875-.4533 0-.8931-.00000031-1.333.06665995l-.2933.8532518c3.1211 1.093895 5.9564 2.875595 8.296 5.213305 2.3397 2.33771 4.124 5.17161 5.2208 8.29201l.8531-.3066c0-.4266.08-.8532.08-1.3332" fill="#e7352b"/><path d="m15.2498 27.9975c-4.033 0-7.90172-1.5977-10.75969-4.4436-2.85797-2.8459-4.4724134-6.7081-4.49003997-10.7416-.00609293-2.0039.38547797-3.98903 1.15202997-5.84045.76654-1.85141 1.89282-3.53228 3.31358-4.94521l.86647.81326c-1.32035 1.3089-2.3684 2.86642-3.08362 4.58262-.71523 1.71621-1.08347 3.55708-1.08347 5.41638 0 1.8594.36824 3.7002 1.08347 5.4165.71522 1.7162 1.76327 3.2737 3.08362 4.5826 1.30872 1.3205 2.86601 2.3687 4.58198 3.084s3.55657 1.0836 5.41567 1.0836c1.859 0 3.6997-.3683 5.4156-1.0836 1.716-.7153 3.2733-1.7635 4.582-3.084l.8132.8132c-1.4349 1.4128-3.1372 2.5249-5.0073 3.2713-1.8701.7463-3.8703 1.1118-5.8835 1.075z" fill="#e7352b"/><path d="m15.0765 22.5447c.1375-1.5009-.1098-3.012-.7186-4.3906-.6087-1.3787-1.5588-2.5794-2.7606-3.4887-1.2875-1.0139-2.83573-1.6426-4.46558-1.8131-.20377-.0266-.38991-.1294-.52098-.2877s-.19736-.3604-.18552-.5656c.00832-.1047.03751-.2066.08584-.2998.04834-.0932.11484-.1758.19559-.2429.08076-.0671.17412-.1173.2746-.1478.10048-.0304.20603-.0404.31043-.0294 2.75122.2861 5.27722 1.6501 7.02582 3.7936 1.7485 2.1435 2.5774 4.8923 2.3053 7.6453-.0549.61-.171 1.213-.3466 1.7998l2.3195.6533c.6864-.1974 1.3552-.4516 1.9995-.7599.1726-.9007.2574-1.816.2533-2.7331-.004-3.5008-1.26-6.8846-3.5409-9.54-2.281-2.65541-5.4365-4.40714-8.89618-4.93862-.77113-.14177-1.56165-.14177-2.33278 0-.97616.25793-1.8533.801-2.51941 1.55985-.53705.62191-.91209 1.36697-1.09176 2.16877-.17967.8019-.1584 1.6357.06191 2.4274.22031.7916.63284 1.5166 1.2009 2.1103.56805.5937 1.27401 1.0378 2.05509 1.2928.41319.0985.83151.1742 1.25304.2266 1.08883.1857 2.07686.7506 2.78924 1.5949.71235.8442 1.10315 1.9133 1.10315 3.018 0 .8944-.2593 1.7697-.7465 2.5198l1.5997 1.0265c.784.2151 1.588.3491 2.3994.4.4782-.9598.7764-1.9991.8798-3.0664" fill="#e7352b"/><g fill="#001f28"><path d="m141.82 4.22643h-2.946v19.59807h2.946z"/><path d="m91.1652 15.6387c.6087-.2793 1.1195-.7348 1.4665-1.3076.3469-.5729.5141-1.2366.4797-1.9055v-4.67951c.0138-.48142-.0714-.96055-.2502-1.40773-.1789-.44718-.4476-.85289-.7895-1.19202-.6436-.60131-1.492-.93499-2.3728-.93324h-8.5046v19.6381h2.9593v-7.8526h3.0259c.6509-.0055 1.2814.2274 1.7725.6547s.8089 1.0196.8936 1.6651l1.1597 5.5595h3.2259l-1.2531-5.2129c-.0604-.5978-.2548-1.1744-.5687-1.6868-.3138-.5123-.7391-.9474-1.2442-1.2729m-7.0116-8.71913h5.0654c.1375.00633.2722.04098.3957.10178.1235.06081.2331.14646.3219.25159.0889.10513.155.22748.1944.35937.0394.1319.0511.27051.0345.40715v3.99964c.0166.1366.0049.2752-.0345.4071s-.1055.2543-.1944.3594c-.0888.1051-.1984.1908-.3219.2516s-.2582.0954-.3957.1018h-5.0654z"/><path d="m38.7776 5.15968c-.3484.34829-.6207.76511-.7996 1.22409-.179.45897-.2608.9501-.2402 1.44232v12.53211c-.0137.4814.0715.9606.2503 1.4077.1788.4472.4475.8529.7895 1.1921.6451.599 1.4925.9323 2.3728.9332h7.9981v-2.7997h-7.4649c-.138-.0065-.2732-.0411-.3973-.1018s-.2345-.1461-.3244-.2509c-.0898-.1049-.1573-.2271-.1983-.359-.0409-.1319-.0545-.2709-.0398-.4082v-5.0395h7.265v-2.7464h-7.305v-4.07964c-.0147-.13736-.0011-.27627.0398-.4082.041-.13193.1085-.25409.1984-.35898.0898-.10489.2002-.19028.3243-.25094.1241-.06065.2593-.09529.3973-.10177h7.4649v-2.75974h-7.9981c-.8793.00609-1.7249.33869-2.3728.93325"/><path d="m148.285 6.98617h7.465v-2.75974h-7.998c-.879.00609-1.725.33869-2.373.93325-.346.35018-.616.76733-.795 1.22584s-.262.94873-.245 1.44057v15.99841h2.946v-8.8924h7.345v-2.7464h-7.358v-4.07964c-.015-.13736-.001-.27627.04-.4082s.108-.25409.198-.35898.2-.19028.325-.25094c.124-.06065.259-.09529.397-.10177"/><path d="m60.2525 12.1857h-4.5722c-.2747-.007-.5357-.121-.7275-.3178s-.299-.4607-.299-.7355v-3.02634c-.0166-.13664-.0049-.27525.0345-.40715.0394-.13189.1056-.25424.1944-.35937.0889-.10513.1984-.19078.3219-.25159.1235-.0608.2582-.09545.3957-.10178h7.3183v-2.75974h-7.8249c-.8792.00609-1.7249.33869-2.3727.93325-.3484.34829-.6207.76511-.7996 1.22409-.179.45897-.2608.9501-.2402 1.44232v4.01291c0 .9135.3619 1.7898 1.0065 2.437s1.5193 1.0125 2.4327 1.016h4.5856c.2793 0 .5471.111.7446.3085s.3085.4654.3085.7448v3.6529c.0147.1374.0011.2763-.0398.4082-.041.132-.1085.2541-.1984.359s-.2002.1903-.3243.251c-.1241.0606-.2593.0953-.3973.1017h-8.1181v2.7598h8.6113c.4601.0022.9159-.089 1.3398-.2682.4238-.1791.8068-.4424 1.1259-.774s.5675-.7245.7303-1.1549c.1627-.4305.2364-.8895.2165-1.3493v-4.6662c.0054-.4562-.0801-.9088-.2514-1.3317-.1713-.4228-.425-.8073-.7463-1.1311-.3213-.3239-.7038-.5805-1.1252-.7551-.4215-.1746-.8734-.2635-1.3296-.2617z"/><path d="m96.8439 5.15968c-.3484.34829-.6206.76511-.7996 1.22409-.179.45897-.2608.9501-.2402 1.44232v12.53211c-.0137.4814.0715.9606.2503 1.4077.1789.4472.4476.8529.7895 1.1921.6451.599 1.4925.9323 2.3728.9332h7.9983v-2.7997h-7.4651c-.1375-.0064-.2722-.041-.3957-.1018s-.2331-.1465-.3219-.2516-.155-.2275-.1944-.3594-.0511-.2705-.0345-.4071v-5.0395h7.3446v-2.7464h-7.3979v-4.07964c-.0166-.13664-.0049-.27525.0345-.40715.0393-.13189.1055-.25424.1944-.35937.0888-.10513.1984-.19078.3219-.25159.1235-.0608.2582-.09545.3957-.10178h7.4644v-2.75974h-7.9977c-.8792.00609-1.7249.33869-2.3727.93325"/><path d="m118.319 12.1857h-4.572c-.139 0-.276-.0273-.403-.0802-.128-.0529-.244-.1305-.342-.2283s-.175-.2139-.228-.3417-.081-.2648-.081-.4031v-3.02634c-.016-.13664-.004-.27525.035-.40715.039-.13189.106-.25424.194-.35937.089-.10513.199-.19078.322-.25159.124-.0608.258-.09545.396-.10178h7.345v-2.75974h-7.838c-.875.00684-1.717.33956-2.36.93325-.348.34829-.62.76511-.799 1.22409-.179.45897-.261.9501-.24 1.44232v4.01291c-.002.4529.085.9016.257 1.3204.173.4189.426.7997.745 1.1205.32.3208.699.5753 1.118.749.418.1737.866.2631 1.319.2631h4.572c.279 0 .547.111.745.3085.197.1975.308.4654.308.7448v3.6529c.017.1367.005.2753-.034.4072-.04.1319-.106.2542-.195.3594-.089.1051-.198.1907-.322.2515-.123.0609-.258.0955-.395.1018h-8.118v2.7598h8.611c.878-.0053 1.721-.3436 2.359-.9466.354-.3452.63-.7611.812-1.2206.181-.4596.264-.9522.241-1.4458v-4.6662c0-.4529-.089-.9012-.263-1.3194-.173-.4182-.428-.798-.749-1.1176-.32-.3195-.701-.5726-1.12-.7447s-.867-.2598-1.32-.258"/><path d="m132.769 12.1857h-4.572c-.28 0-.548-.111-.745-.3085-.198-.1975-.309-.4654-.309-.7448v-3.02634c-.016-.13664-.005-.27525.035-.40715.039-.13189.105-.25424.194-.35937s.199-.19078.322-.25159c.124-.0608.258-.09545.396-.10178h7.345v-2.75974h-7.825c-.879.00609-1.725.33869-2.373.93325-.348.34829-.62.76511-.799 1.22409-.179.45897-.261.9501-.241 1.44232v4.01291c0 .9135.362 1.7898 1.007 2.437s1.519 1.0125 2.433 1.016h4.585c.28 0 .547.111.745.3085.197.1975.308.4654.308.7448v3.6529c.015.1374.001.2763-.04.4082-.04.132-.108.2541-.198.359s-.2.1903-.324.251c-.124.0606-.259.0953-.397.1017h-8.119v2.7598h8.612c.46.0022.916-.089 1.339-.2682.424-.1791.807-.4424 1.126-.774s.568-.7245.731-1.1549c.162-.4305.236-.8895.216-1.3493v-4.6662c.006-.4562-.08-.9088-.251-1.3317-.171-.4228-.425-.8073-.746-1.1311-.322-.3239-.704-.5805-1.126-.7551-.421-.1746-.873-.2635-1.329-.2617z"/><path d="m75.289 4.2131h-8.9179v19.6381h2.946v-7.6259h5.9719c.8769.0024 1.7214-.3316 2.3594-.9333.3535-.3451.63-.7611.8115-1.2206s.2638-.9522.2416-1.4458v-4.87951c.0112-.48228-.0764-.96176-.2575-1.40888-.1811-.44711-.4519-.8524-.7956-1.19087-.638-.60163-1.4825-.93564-2.3594-.93324zm.4532 8.1459c.0167.1366.0049.2752-.0344.4071-.0394.1319-.1056.2543-.1945.3594-.0888.1051-.1984.1908-.3219.2516-.1234.0608-.2581.0954-.3956.1018h-5.4787v-6.5194h5.4787c.1375.00633.2722.04098.3956.10179.1235.06081.2331.14646.3219.25159.0889.10513.1551.22747.1945.35937.0393.1319.0511.27051.0344.40715z"/></g></svg>