<svg width="99" height="32" viewBox="0 0 99 32" fill="none" xmlns="http://www.w3.org/2000/svg">
<path d="M2.25362 25.6836C2.12551 25.9947 2.05735 26.3272 2.05271 26.6636C2.05271 27.5114 2.51333 27.9328 3.42968 27.9328H4.34113V25.9727H6.30124V27.9328H12.8921V30.5642H6.28654V32H4.32643V30.5593H3.28268C2.39706 30.5949 1.53876 30.2487 0.925647 29.6087C0.302908 28.8933 -0.0169507 27.9636 0.0337984 27.0164C0.0217915 26.5663 0.0779636 26.1169 0.200408 25.6836H2.25362ZM6.72266 18.784C6.54062 19.1346 6.45122 19.5259 6.46295 19.9208C6.44037 20.445 6.67666 20.9469 7.09509 21.2635C7.59594 21.614 8.19978 21.7865 8.81018 21.7535H12.8921V24.3948H4.34113V21.7241H5.91412V21.6898C4.75766 21.2717 4.17943 20.5203 4.17943 19.4357C4.1685 19.2141 4.20182 18.9926 4.27743 18.784H6.72266ZM9.36881 9.60087V15.1774C10.6102 15.0892 11.2309 14.3068 11.2309 12.8301C11.2496 11.957 11.0184 11.0967 10.5645 10.3506H12.4658C12.9279 11.3102 13.1467 12.3687 13.1028 13.4329C13.1765 14.617 12.7601 15.7794 11.9513 16.6475C11.0857 17.4502 9.92976 17.8644 8.75138 17.7941C7.50383 17.8595 6.28388 17.4115 5.37509 16.5544C4.55809 15.7576 4.10901 14.6571 4.13532 13.5162C4.06439 12.4326 4.46866 11.3718 5.24278 10.6103C6.07822 9.89403 7.15756 9.52723 8.25645 9.58617L9.36881 9.60087ZM7.74682 12.051C6.52502 12.0477 5.91412 12.5476 5.91412 13.5505C5.91414 13.9768 6.10686 14.3802 6.43845 14.6481C6.80736 14.9643 7.26365 15.1608 7.74682 15.2117V12.051ZM9.36881 0.00614629V5.58265C10.6102 5.49445 11.2309 4.71367 11.2309 3.24032C11.2504 2.36709 11.0192 1.50657 10.5645 0.760788H12.4658C12.9285 1.71842 13.1473 2.77555 13.1028 3.83816C13.177 5.0224 12.7606 6.18499 11.9513 7.05273C11.0857 7.85545 9.92976 8.26967 8.75138 8.1994C7.5048 8.26435 6.28559 7.81843 5.37509 6.96453C4.55833 6.16558 4.10942 5.06372 4.13532 3.92146C4.06873 2.84289 4.47267 1.78837 5.24278 1.0303C6.07822 0.314002 7.15756 -0.0527987 8.25645 0.00614629H9.36881ZM7.74682 2.45628C6.52665 2.45628 5.91412 2.94631 5.91412 3.92636C5.91414 4.35266 6.10686 4.7561 6.43845 5.02402C6.80736 5.34016 7.26365 5.53669 7.74682 5.58755V2.45628Z" fill="#23282A"/>
<path d="M36.384 24.3605H30.2685L26.5884 18.2743C26.3139 17.7843 26.0493 17.3972 25.7945 17.0346C25.5654 16.7026 25.308 16.3911 25.0252 16.1035C24.7917 15.8631 24.5201 15.6628 24.2215 15.5106C23.936 15.3723 23.6224 15.3018 23.3052 15.3048H21.8694V24.3605H16.5428V0.706885H24.986C30.7291 0.706885 33.599 2.85157 33.5957 7.14094C33.6049 7.91836 33.4772 8.69132 33.2184 9.42446C32.9725 10.1107 32.6094 10.749 32.1453 11.3111C31.6749 11.8916 31.11 12.3886 30.4743 12.7811C29.7953 13.2087 29.0596 13.5387 28.2887 13.7612V13.8249C28.6565 13.9458 29.0011 14.128 29.308 14.3639C29.6605 14.6207 29.9885 14.9094 30.2881 15.2264C30.5919 15.5596 30.8859 15.9124 31.1701 16.2897C31.4543 16.6671 31.7042 17.0444 31.9345 17.407L36.384 24.3605ZM21.8694 4.6957V11.2817H24.1774C25.1902 11.3309 26.1815 10.9787 26.9363 10.3016C27.6257 9.65751 28.0087 8.75066 27.9898 7.80737C27.9898 5.73946 26.7533 4.7055 24.2803 4.7055L21.8694 4.6957ZM54.5297 5.04362H47.782V24.3605H42.4407V5.04362H35.7274V0.706885H54.5297V5.04362ZM66.452 24.7721C63.0676 24.7721 60.3087 23.6695 58.1755 21.4644C56.0422 19.2593 54.9756 16.3861 54.9756 12.8449C54.9756 9.10431 56.0586 6.08085 58.2245 3.77445C60.3904 1.46806 63.2603 0.316497 66.8343 0.319757C70.2122 0.319757 72.9416 1.42559 75.0226 3.63725C77.1036 5.8489 78.1457 8.76293 78.149 12.3793C78.149 16.0937 77.0693 19.0894 74.9099 21.3664C72.7505 23.6434 69.9312 24.7786 66.452 24.7721ZM66.6775 4.89661C64.9396 4.83341 63.279 5.6171 62.2231 6.99883C61.1222 8.40031 60.5717 10.2559 60.5717 12.5655C60.5717 14.8752 61.1222 16.7275 62.2231 18.1224C63.2535 19.4569 64.8598 20.2182 66.5451 20.1708C68.2351 20.2377 69.8568 19.4996 70.9162 18.1812C72.0106 16.8582 72.5578 15.0189 72.5578 12.6635C72.5578 10.2134 72.0351 8.30557 70.9897 6.94003C69.978 5.58849 68.3641 4.82374 66.6775 4.89661ZM80.9862 23.4539V18.1763C81.9099 18.9575 82.9652 19.5682 84.1028 19.9796C85.1914 20.3755 86.3404 20.5794 87.4987 20.5824C88.0902 20.5918 88.6807 20.531 89.2579 20.4011C89.6999 20.3069 90.1236 20.1413 90.5124 19.911C90.8215 19.724 91.0791 19.463 91.2621 19.1515C91.4269 18.8639 91.5115 18.5372 91.5071 18.2057C91.5142 17.7609 91.3766 17.3258 91.1151 16.966C90.8125 16.5801 90.4462 16.2487 90.0321 15.9859C89.5159 15.6463 88.9735 15.3481 88.4101 15.0941C87.7829 14.8099 87.1067 14.5207 86.3814 14.2218C84.7932 13.6324 83.3733 12.6634 82.2456 11.3993C81.321 10.2516 80.8393 8.80996 80.8882 7.33695C80.8575 6.23245 81.1124 5.13871 81.6282 4.16157C82.1206 3.28337 82.8141 2.53439 83.652 1.97605C84.5498 1.3856 85.5453 0.959195 86.5921 0.716685C87.7742 0.440763 88.985 0.307506 90.1987 0.319763C91.2941 0.309304 92.3885 0.384672 93.4721 0.545176C94.3624 0.676265 95.2362 0.9013 96.0791 1.21651V6.15108C95.6716 5.86913 95.2385 5.6263 94.7854 5.42584C94.3094 5.21533 93.8179 5.04168 93.3153 4.90641C92.8326 4.77146 92.3415 4.66833 91.8452 4.5977C91.3823 4.53505 90.9158 4.50231 90.4487 4.49969C89.8951 4.49526 89.3429 4.55279 88.8022 4.6712C88.3607 4.76713 87.9373 4.93253 87.5477 5.16123C87.2341 5.34838 86.9676 5.60485 86.7686 5.91097C86.5816 6.2033 86.4845 6.54405 86.4892 6.89102C86.4831 7.26914 86.5925 7.64012 86.8029 7.95438C87.0449 8.30221 87.3469 8.6042 87.6947 8.84623C88.1374 9.16034 88.6063 9.43577 89.0962 9.66948C89.645 9.93899 90.2673 10.2183 90.9583 10.5025C91.8358 10.8647 92.6872 11.2871 93.5064 11.7668C94.2263 12.177 94.8859 12.6849 95.4665 13.2761C96.001 13.8285 96.4207 14.4814 96.7014 15.197C97.0043 15.9997 97.1507 16.853 97.1326 17.7108C97.1715 18.8658 96.9134 20.0114 96.3829 21.0381C95.8934 21.9205 95.1931 22.668 94.3444 23.2138C93.4283 23.7929 92.4133 24.1983 91.3503 24.4095C90.1656 24.6553 88.9585 24.7768 87.7486 24.7722C86.5063 24.7755 85.2663 24.6656 84.044 24.4438C82.9829 24.2609 81.9532 23.9276 80.9862 23.4539Z" fill="#98C661"/>
<path d="M16.4889 27.9279H98.0392V30.5593H16.4889V27.9279Z" fill="#23282A"/>
</svg>
