<svg width="42" height="48" viewBox="0 0 42 48" fill="none" xmlns="http://www.w3.org/2000/svg">
<path fill-rule="evenodd" clip-rule="evenodd" d="M14.2844 12.086L14.2055 6.70758L17.4058 4.83321L22.1577 1.63315L24.111 1.55367L26.1435 3.7383L27.2384 10.9971L25.754 13.6498L19.5901 13.4914L14.2844 12.086Z" fill="white"/>
<path fill-rule="evenodd" clip-rule="evenodd" d="M7.96264 27.4617L9.5994 22.8556L12.7997 19.0345L14.4365 15.7553L15.1422 14.6658L26.8427 12.8709L29.1854 16.5399L35.7388 32.2199L33.4746 35.0245L27.5426 44.9426L26.1435 45.2525L15.2946 45.5628L7.72557 37.1359L6.47799 30.1144L7.96264 27.4617Z" fill="white"/>
<path fill-rule="evenodd" clip-rule="evenodd" d="M22.9429 15.5239C22.9429 15.5239 22.5534 15.4447 23.6426 15.2074C24.7378 14.9763 24.7435 14.745 25.0478 14.4285C25.3583 14.1182 25.5167 13.4122 25.5167 12.6336C25.5167 11.8549 25.9061 9.59138 25.8267 8.97087C25.754 8.34408 24.4212 6.00759 23.8797 5.69133C23.3323 5.38107 17.2477 4.83321 17.2477 4.83321L15.3736 6.31812L13.9681 7.63835L14.2844 11.8549C14.2844 11.8549 13.8889 13.1812 13.9681 13.7228C14.0473 14.2703 14.832 14.8971 15.1422 15.2074C15.4525 15.5239 16.6209 16.7773 17.01 17.1604C17.4055 17.5499 17.4847 17.9393 18.4155 17.6288C19.3525 17.3186 19.9001 17.3186 20.6061 16.771C21.3058 16.2234 22.9429 15.5239 22.9429 15.5239Z" fill="#F6D330"/>
<path fill-rule="evenodd" clip-rule="evenodd" d="M19.3528 8.89194C19.5901 8.26514 19.9004 7.09704 20.442 6.70758C20.9893 6.31812 22.164 5.99585 22.8639 6.08079C23.5697 6.15999 24.8899 6.85971 25.2062 7.40702C25.5167 7.95461 25.5167 10.139 25.5167 10.139L25.3583 11.9339L24.2691 11.8549L21.9269 10.9176H21.5374C21.5374 10.9176 21.148 11.0697 19.9736 10.4492C18.8052 9.82271 19.1155 9.51846 19.3528 8.89194ZM16.8582 10.6076C16.8948 10.571 16.9677 10.5224 17.0652 10.4675C17.5396 10.2059 18.5739 9.82271 18.5739 9.82271C18.5739 9.82271 19.5839 7.25517 18.726 6.23892C17.8742 5.22294 16.0003 5.38107 16.0003 5.38107C16.0003 5.38107 13.9744 6.54945 14.0473 7.01784C14.1265 7.4865 14.2054 9.12299 14.2847 9.35432C14.3578 9.59165 14.6741 12.0863 14.6741 12.0863L15.3738 11.776L16.3901 10.9971C16.3901 10.9971 16.6269 10.845 16.8582 10.6076Z" fill="white"/>
<path fill-rule="evenodd" clip-rule="evenodd" d="M31.7592 34.1726L32.8907 34.2578C33.0552 34.2701 33.2193 34.2759 33.3837 34.2821C34.2233 34.3125 34.9598 34.4403 35.7448 34.5378C36.2623 34.599 37.1199 34.9275 37.1808 35.5783C37.266 36.54 36.9861 37.5983 37.801 37.994C38.6348 38.5599 40.4964 39.8681 40.4964 39.8681L41.0443 40.8778L39.4078 42.3627L31.37 47.1998L27.7071 45.9525V42.9893L27.8592 39.0103L27.4697 35.4202L28.0905 34.0148L29.6541 33.5461L31.7592 34.1726ZM8.51651 32.4203C8.43731 32.3471 7.01357 32.7675 6.92235 32.7855C6.25923 32.8827 5.41968 33.3391 5.41968 34.0634C5.41968 34.4345 5.38937 34.818 5.21895 35.1526C5.08512 35.4139 4.78087 35.8094 4.78688 35.8949C4.68337 36.1808 4.49492 36.5823 4.23328 36.7527C3.92903 36.7833 2.57822 36.9051 2.57822 36.9051H1.40383L0.704116 37.7567L1.25171 40.0265L1.0933 41.8154L0.55172 43.8474L1.87195 44.5471L11.8627 47.1998L14.1262 46.5001L15.2944 43.61L15.057 42.5209L13.9681 40.3365C13.9681 40.3365 9.22223 33.4426 8.51651 32.4203Z" fill="#F6D330"/>
<path fill-rule="evenodd" clip-rule="evenodd" d="M13.603 7.93019C13.4388 2.48487 15.5623 0.0811992 19.9733 0.0022696C24.3786 -0.0829416 27.1409 2.24125 27.7068 5.28973C28.2664 8.33194 27.9441 12.3415 29.0696 14.4226C30.1894 16.5095 30.9074 18.1097 32.8361 20.513C34.7586 22.9164 35.9573 25.3624 36.5174 28.3314C37.0828 31.2947 37.3996 32.6941 35.9573 34.2211C34.5155 35.7421 31.954 38.2247 30.031 35.4198C29.0639 34.0144 28.9604 32.2681 30.5911 31.8972C31.6314 31.6536 32.3798 31.7328 33.1527 32.1343C33.9316 32.536 34.114 32.347 33.183 31.6536C32.2457 30.9599 32.0575 31.5987 32.3798 30.4792C32.7026 29.3594 33.1224 27.3455 32.2459 25.1308C31.8385 24.1088 30.4573 21.31 29.1611 20.6223C29.0453 20.5554 28.705 20.4155 28.9361 20.7015C29.2829 21.1336 31.1508 23.8835 31.68 25.5203C32.2459 27.2789 32.3249 28.9582 32.0332 30.0228C31.7415 31.0937 31.23 31.5195 30.6155 31.5195C30.0009 31.5195 29.4413 31.8114 29.4413 30.4C29.4413 28.9823 29.5875 26.8465 28.8268 25.0393C28.0662 23.2384 27.1412 21.9971 26.9407 21.2365C26.746 20.4759 26.3016 18.4317 25.3832 17.2696C24.4581 16.1075 24.0566 15.3468 24.5371 14.0206C25.0177 12.7004 24.6586 12.3412 23.6975 12.0613C22.7361 11.7816 21.4522 11.3799 21.136 10.7351C20.8134 10.0962 21.0144 8.81234 21.7325 8.49608C22.4562 8.17353 23.6549 8.6116 23.6975 9.53664C23.7401 10.4554 23.2958 10.9361 23.4181 11.1368C23.5396 11.3375 24.1782 11.6601 24.501 11.3012C24.8173 10.9361 24.9028 9.81631 24.5799 8.77602C24.2571 7.73546 24.0993 7.01144 22.9369 6.7741C21.7751 6.53049 21.2518 6.60969 20.6919 7.33371C20.132 8.05172 19.8889 9.21382 20.0531 10.0596C20.2112 10.8992 19.8887 10.4185 19.3291 10.3759C18.7692 10.3393 18.9276 10.2967 18.3677 10.3393C17.8078 10.3759 18.0088 10.0168 17.966 9.41456C17.9294 8.81207 17.8504 7.57104 17.0046 7.09037C16.1648 6.60969 14.723 7.16957 14.7593 9.1775C14.8019 11.1794 15.4834 12.1405 15.8851 11.4165C16.2866 10.6985 16.0859 11.0576 15.6844 10.7351C15.2829 10.4188 15.003 9.09228 15.441 8.69682C15.8851 8.29534 16.4024 8.29534 16.6883 8.53268C16.9683 8.77602 17.4064 9.57924 17.3271 10.0962C17.2479 10.6195 17.2053 10.6561 16.6883 11.021C16.1651 11.3799 15.9643 11.7024 15.3621 12.0979C14.7596 12.4994 14.5226 13.4244 15.0032 13.6617C15.4839 13.9051 15.5265 13.8625 15.922 14.465C16.3235 15.0674 17.0049 15.3471 18.6903 15.0674C20.3696 14.7875 21.0631 14.386 22.3349 13.9417C23.26 13.6251 22.9372 13.6617 23.26 13.3029C23.5762 12.944 24.0995 13.461 23.6188 13.7835C23.1382 14.1061 22.0547 14.4224 21.2521 14.7023C20.4548 14.9882 19.5301 15.7855 17.8507 15.7063C16.1653 15.6271 17.3274 15.6637 16.8041 15.6271C16.2869 15.5844 16.0435 15.6637 16.6034 16.0651C17.1693 16.4669 17.1267 16.5884 17.6074 16.7465C18.088 16.911 18.7269 16.911 19.4935 16.631C20.2541 16.3451 22.1771 15.5052 22.7793 15.1038C23.3758 14.7023 23.8562 15.2256 23.26 15.6271C22.6578 16.0285 22.4933 15.907 21.9335 16.2659C21.3739 16.631 20.3333 17.2272 19.6519 17.872C18.9705 18.5109 18.8123 18.5535 17.9665 18.5901C17.127 18.6327 16.6037 17.7505 16.2445 17.349C15.8857 16.9473 15.922 16.7102 15.4839 16.2293C15.0458 15.7486 15.0032 15.8641 14.924 16.3874C14.8448 16.9107 14.2426 18.2309 13.7193 19.1133C13.2021 19.9955 13.1594 21.0787 13.2386 21.8393C13.3179 22.5999 13.1171 22.6788 12.5209 23.561C11.9184 24.4431 10.9145 27.0473 10.7563 27.8871C10.5979 28.7266 10.3975 30.4546 10.4764 31.4526C10.5556 32.4565 10.2756 32.6573 9.55163 31.9759C8.83361 31.2944 8.58999 30.5338 8.63287 29.5299C8.66947 28.672 8.785 28.0695 8.89452 27.7533C9.00403 27.437 8.90052 27.218 8.66947 27.6074C8.1765 28.459 8.1522 29.9316 8.274 30.4549C8.38953 30.9722 8.43214 31.8969 9.75264 33.138C11.0789 34.3793 13.0016 36.1012 14.602 37.2633C16.2082 38.4254 16.7681 39.8675 14.4013 40.908C15.8859 42.9159 16.6889 43.9562 16.0441 45.2765C17.3703 44.5158 16.8593 42.7212 16.2205 42.2403C15.5754 41.7596 15.9649 41.3887 16.5247 41.7538C17.0846 42.1127 17.2854 42.8307 19.494 42.7941C21.6964 42.7518 24.0695 42.5328 25.3963 40.6038C26.7165 38.6811 26.9721 40.2995 26.6493 41.4253C26.333 42.5448 25.5418 45.076 26.7831 44.8387C26.9415 43.3537 27.3064 42.0701 27.3064 40.4699C27.3064 38.8635 27.4648 38.0909 27.3433 35.7667C27.2212 33.5274 28.1888 33.3753 29.1868 33.3753C30.1908 33.3753 29.8679 34.0201 29.2294 33.9775C28.5846 33.9352 27.9086 34.1785 27.8666 35.8213C27.824 37.4641 27.8666 37.3059 28.146 38.7846C28.4259 40.2692 28.4688 40.7073 28.2254 42.3501C27.9881 43.9931 27.7871 44.875 28.8703 45.8792C29.9471 46.8832 31.5896 46.5972 32.4357 45.9581C33.2753 45.3193 34.8757 43.835 36.3175 43.354C37.7658 42.8733 39.2871 42.5145 40.0897 41.7112C40.8872 40.9083 40.6862 40.3484 39.8464 39.9101C39.0068 39.466 38.2033 39.6667 37.5648 38.9487C36.9194 38.2247 36.6032 36.6242 36.8405 35.7787C37.0839 34.9391 37.3638 35.298 37.3638 35.9005C37.3638 36.5027 37.4007 37.0626 38.0029 37.8229C38.6051 38.5836 39.1647 38.9487 40.1263 39.5449C41.0877 40.1474 41.6899 41.1088 40.4852 41.9543C39.2865 42.7939 38.6048 43.2748 37.6009 43.6763C36.6029 44.078 34.9604 45.0391 33.9559 46.0373C32.9519 47.0413 32.3923 47.9235 30.4273 47.9235C28.468 47.9235 27.5675 47.4488 26.9836 46.2804C26.5818 45.4775 26.3808 45.5993 25.4624 45.5567C24.5373 45.5201 21.4525 45.4775 19.0494 45.5201C16.646 45.5567 15.8431 45.9581 14.7599 46.8403C13.683 47.7225 13.2813 48.4041 11.237 47.7225C9.19275 47.0408 8.10959 46.2804 5.06739 45.6782C2.0189 45.076 3.66195 45.3557 1.81816 44.9542C-0.0253494 44.5587 0.0961858 43.6763 0.339802 42.9525C0.577137 42.2345 1.17935 41.1088 0.656067 39.6304C0.138792 38.1455 0.339803 36.6245 1.73896 36.6245C3.1444 36.6245 4.4649 36.9045 5.02451 35.0607C5.58439 33.2172 5.74853 34.6592 5.58439 35.1399C5.42626 35.6206 5.34705 36.9408 4.10576 37.1418C2.86446 37.3423 2.58479 37.0626 1.81789 37.0626C1.05754 37.0626 0.741005 37.5859 1.13647 38.468C1.53795 39.3499 1.98203 40.2689 1.9031 41.0296C1.81789 41.7899 1.73869 42.0701 1.17908 42.7939C0.619197 43.5119 0.6984 43.877 1.70236 44.1144C2.70004 44.358 4.50723 44.8384 6.1866 45.2401C7.87198 45.6353 7.99379 45.6353 10.9142 46.4022C13.8409 47.1626 14.6441 45.7997 14.8814 44.157C15.1248 42.5139 13.9993 40.9503 12.9587 39.3865C11.9181 37.8227 10.7981 36.0226 9.43501 34.3795C8.07217 32.7368 7.26895 32.6149 6.58753 32.9741C5.90584 33.3392 5.78431 33.26 5.74771 32.3353C5.7051 31.4165 5.6259 30.8143 6.38652 29.4512C7.14714 28.0884 7.82856 26.6035 8.63178 24.3219C9.43473 22.0403 10.1527 21.5962 11.5159 19.6309C12.879 17.6719 12.2765 18.4322 13.2378 17.112C14.1992 15.7857 13.9192 16.0288 13.8403 13.9419C13.7611 11.8608 13.6822 10.6561 13.603 7.93019ZM9.77585 24.2244C9.98287 24.474 10.2748 23.8838 10.5791 23.6588C10.7103 23.5404 10.8093 23.3906 10.8667 23.2235C10.9242 23.0564 10.9383 22.8774 10.9076 22.7034C10.8773 22.515 10.5728 22.5756 10.5122 22.6425C10.3237 22.831 10.366 23.1355 10.2322 23.3971C10.0801 23.7134 9.5691 23.969 9.77585 24.2244ZM27.0011 15.8521C27.4331 16.2173 27.7008 16.5338 27.9379 15.9922C28.1817 15.4506 28.1817 15.2316 27.5976 15.0126C27.0194 14.7872 26.758 14.5502 26.4961 14.2519C26.2347 13.9477 26.1435 14.465 26.3563 14.9699C26.6176 15.5907 26.7698 15.6637 27.0011 15.8521ZM17.9717 10.8812C17.6735 10.8203 17.3146 10.8446 17.1136 11.0819C17.0344 11.1611 17.071 11.3862 17.2108 11.4471C17.3932 11.5263 17.5151 11.3438 17.5516 11.2037C17.5699 11.1428 17.5943 11.0639 17.6552 11.0456C17.7344 11.003 17.8499 11.0396 17.9351 11.003C18.0326 10.9664 17.996 10.8812 17.9717 10.8812ZM19.3894 10.9361C19.5112 11.1185 19.7303 11.1185 19.9127 11.1977C20.0099 11.2403 20.2109 11.3012 20.2716 11.1611C20.4117 10.717 19.8092 10.8569 19.5293 10.8569C19.4686 10.8569 19.3285 10.8388 19.3894 10.9361ZM22.3104 8.99506C22.584 9.00707 22.9552 9.49403 22.9915 10.0599C22.9972 10.1451 23.2288 10.1389 23.2775 10.0539C23.4055 9.82887 23.3143 9.57924 23.2534 9.31159C23.2043 9.09256 22.9429 8.86751 22.7239 8.77001C22.5777 8.69682 22.4256 8.67278 22.2309 8.69682C22.1823 8.7214 22.0121 8.97676 22.3104 8.99506ZM16.3412 8.85522C16.0916 8.87325 16.1831 9.06798 16.1951 9.22611C16.5419 9.42084 16.5723 9.85891 16.6452 10.2058C16.6512 10.3396 16.8519 10.279 16.8702 10.2364C17.0224 9.95641 16.8336 9.64015 16.767 9.31159C16.7061 9.14117 16.5906 8.94644 16.4322 8.83091C16.4081 8.80661 16.3652 8.85522 16.3412 8.85522ZM23.9952 2.71592C23.7456 2.51518 23.3561 2.43598 23.2409 2.76453C23.1193 3.04447 23.1677 3.33042 23.1005 3.63467C23.1005 3.7319 22.9789 3.75621 22.9123 3.84743C22.8148 3.96295 22.8391 4.10907 22.8877 4.15167C23.1193 4.38901 23.5448 3.92035 23.8554 3.75621C24.0864 3.61009 24.4207 3.79881 24.6769 3.63467C24.7495 3.58606 24.7738 3.47026 24.7009 3.37904C24.5368 3.09309 24.2508 2.92895 23.9952 2.71592Z" fill="black"/>
<path fill-rule="evenodd" clip-rule="evenodd" d="M31.2114 34.5744C31.2482 34.41 31.3329 34.0877 31.4913 34.0391C31.5462 34.0208 31.5948 34.0451 31.6128 34.1C31.6492 34.2032 31.5396 34.7937 31.5825 34.9275C31.6311 35.0673 31.7953 35.049 31.9111 35.0127C32.1847 34.9212 32.3431 34.599 32.3309 34.5686C32.3309 34.5564 32.3246 34.5564 32.3128 34.5564C32.2702 34.5686 32.2334 34.7208 32.1118 34.7568C32.0329 34.7814 31.972 34.7691 31.9474 34.6902C31.9234 34.605 32.0269 33.9965 31.9777 33.8564C31.9357 33.7165 31.7953 33.6799 31.6615 33.7225C31.3632 33.82 31.2357 34.2761 31.1567 34.5441H31.1505L31.1931 33.9173L30.8219 34.0391L30.8039 35.335L31.1507 35.2192C31.157 34.9942 31.1688 34.7385 31.2114 34.5744ZM32.8181 34.7142C33.1158 34.617 33.2496 34.2641 33.2373 34.2212C33.2316 34.2092 33.2256 34.2029 33.2133 34.2029C33.1887 34.2152 33.1344 34.416 32.9637 34.4706C32.8905 34.4952 32.8238 34.4766 32.8058 34.4283C32.7812 34.3551 32.7995 34.2275 32.7995 34.1177L32.8118 33.5335L33.2193 33.3997L33.2136 33.2596L32.8061 33.3934L32.8241 32.8398L32.4592 33.0469L32.4406 34.2819C32.4406 34.4157 32.4289 34.5312 32.4529 34.5924C32.5013 34.7508 32.6657 34.7691 32.8181 34.7142Z" fill="black"/>
</svg>
