<svg width="78" height="18" viewBox="0 0 78 18" fill="none" xmlns="http://www.w3.org/2000/svg">
<path d="M70.6602 18C66.6697 18 64.0414 16.1192 63.8364 12.9967L63.8244 12.8158H66.8023L66.8264 12.9605C67.0554 14.4555 68.5865 15.3838 70.7688 15.3838C72.963 15.3838 74.3374 14.4072 74.3374 12.9123V12.9001C74.3374 11.5981 73.4333 10.8989 71.1907 10.4287L69.3221 10.0429C65.898 9.33155 64.2102 7.74012 64.2102 5.14802V5.13596C64.2222 2.07368 66.9107 0 70.6602 0C74.458 0 76.9416 2.00134 77.1225 4.97924L77.1345 5.18419H74.1565L74.1325 5.03952C73.9275 3.52043 72.5893 2.61621 70.6362 2.61621C68.5987 2.62827 67.3327 3.58071 67.3327 4.96718V4.97924C67.3327 6.20898 68.2851 6.93235 70.3829 7.36638L72.2637 7.75217C75.8806 8.49967 77.46 9.97053 77.46 12.6831V12.6953C77.46 15.9383 74.9041 18 70.6602 18Z" fill="#23282A"/>
<path d="M54.3115 18C49.2238 18 46.053 14.5398 46.053 9.00603V8.98191C46.053 3.46015 49.2479 0 54.3115 0C59.3872 0 62.558 3.46015 62.558 8.98191V9.00603C62.558 14.5398 59.3992 18 54.3115 18ZM54.3115 15.2994C57.4583 15.2994 59.3992 12.84 59.3992 9.00603V8.98191C59.3992 5.12391 57.422 2.70061 54.3115 2.70061C51.2131 2.70061 49.2238 5.11185 49.2238 8.98191V9.00603C49.2238 12.8761 51.201 15.2994 54.3115 15.2994Z" fill="#23282A"/>
<path d="M39.4093 17.9517C35.6117 17.9517 33.2366 15.3959 33.2366 11.2967V11.2846C33.2366 7.20964 35.6478 4.65372 39.3732 4.65372C42.7369 4.65372 44.8346 6.78768 45.0155 9.34361L45.0276 9.44005H42.1944L42.1702 9.33155C41.9171 8.08975 41.0008 7.08909 39.4093 7.08909C37.5165 7.08909 36.2988 8.69256 36.2988 11.3087V11.3209C36.2988 13.9852 37.5286 15.5285 39.4214 15.5285C40.9405 15.5285 41.905 14.6242 42.1822 13.286L42.2064 13.1775H45.0396L45.0276 13.2618C44.7985 15.9263 42.6404 17.9517 39.4093 17.9517Z" fill="#23282A"/>
<path d="M24.9175 17.9156C22.3615 17.9156 20.6376 16.3362 20.6376 14.0575V14.0335C20.6376 11.7669 22.3978 10.4046 25.4962 10.2117L28.8358 10.0067V9.12659C28.8358 7.83657 27.9918 7.05292 26.4727 7.05292C25.0502 7.05292 24.1821 7.716 23.9892 8.65639L23.9651 8.7649H21.18L21.1921 8.62022C21.373 6.35365 23.3381 4.65372 26.5813 4.65372C29.7762 4.65372 31.8377 6.34159 31.8377 8.90957V17.6986H28.8358V15.7335H28.7635C28.028 17.0716 26.6054 17.9156 24.9175 17.9156ZM23.6275 13.9371C23.6275 14.9859 24.4955 15.6249 25.8097 15.6249C27.5337 15.6249 28.8358 14.4795 28.8358 12.9605V11.996L25.9182 12.1768C24.4352 12.2733 23.6275 12.9123 23.6275 13.925V13.9371Z" fill="#23282A"/>
<path d="M0.852539 17.6986V4.91895H3.85455V6.96852H3.91483C4.45737 5.57 5.77149 4.65372 7.45937 4.65372C9.2437 4.65372 10.5337 5.59411 11.0039 7.23376H11.0762C11.6911 5.64234 13.2102 4.65372 15.0548 4.65372C17.5745 4.65372 19.2263 6.36571 19.2263 8.92163V17.6986H16.2243V9.66913C16.2243 8.08975 15.4044 7.18553 13.9336 7.18553C12.4868 7.18553 11.4982 8.25853 11.4982 9.80174V17.6986H8.5806V9.51239C8.5806 8.07769 7.71255 7.18553 6.31402 7.18553C4.86727 7.18553 3.85455 8.31882 3.85455 9.87408V17.6986H0.852539Z" fill="#23282A"/>
</svg>
