<svg width="49" height="48" viewBox="0 0 49 48" fill="none" xmlns="http://www.w3.org/2000/svg">
<path d="M26.1131 0.626258C25.2781 -0.208753 23.9243 -0.208753 23.0893 0.626258L13.0632 10.6523L21.7757 27.9925V8.43068C21.7757 7.15973 22.647 6.05446 23.8828 5.75762C25.1186 5.46079 26.3968 6.04978 26.974 7.18208L32.7103 18.434L36.6143 11.1274L26.1131 0.626258Z" fill="#3C34E3"/>
<path d="M40.6772 15.1903L35.754 24.4044L40.2545 33.2323L47.9749 25.5119C48.81 24.6769 48.81 23.3231 47.9749 22.4881L40.6772 15.1903Z" fill="#3C34E3"/>
<path d="M36.167 37.3199L32.5958 30.315L26.9495 40.8825C26.4656 41.7882 25.5171 42.3487 24.4903 42.3358C23.4635 42.323 22.5294 41.7388 22.0684 40.8212L11.6194 20.0252L11.6194 35.9039L23.0893 47.3737C23.9243 48.2087 25.2781 48.2087 26.1131 47.3737L36.167 37.3199Z" fill="#3C34E3"/>
<path d="M6.12123 30.4057V17.5943L1.22745 22.4881C0.392444 23.3231 0.392444 24.6769 1.22745 25.5119L6.12123 30.4057Z" fill="#3C34E3"/>
<path d="M27.2739 19.8759L29.5521 24.3447L27.2739 28.6085V19.8759Z" fill="#3C34E3"/>
<path fill-rule="evenodd" clip-rule="evenodd" d="M8.88477 40.8825C8.12563 40.8825 7.51022 40.2671 7.51022 39.508V8.35167C7.51022 7.71469 7.94785 7.16116 8.56765 7.0142C9.18745 6.86725 9.82701 7.16537 10.113 7.73454L23.1647 33.7107V8.35167C23.1647 7.71619 23.6004 7.16355 24.2183 7.01514C24.8362 6.86672 25.4752 7.16121 25.7639 7.72736L32.6961 21.3252L39.9742 7.7039C40.3319 7.03434 41.1647 6.78157 41.8343 7.13933C42.5039 7.49708 42.7566 8.32988 42.3989 8.99943L34.218 24.3104L41.6475 38.8837C41.9923 39.56 41.7235 40.3878 41.0472 40.7326C40.3709 41.0774 39.5431 40.8086 39.1983 40.1323L32.6389 27.2658L25.7516 40.1557C25.5096 40.6086 25.0354 40.8889 24.522 40.8824C24.0086 40.876 23.5416 40.5839 23.3111 40.1251L10.2593 14.1489V39.508C10.2593 40.2671 9.6439 40.8825 8.88477 40.8825ZM31.117 24.2806L25.9138 14.0743V34.0187L31.117 24.2806Z" fill="black"/>
</svg>
