<svg fill="none" height="18" viewBox="0 0 154 18" width="154" xmlns="http://www.w3.org/2000/svg"><path d="m98.272.0006836c-1.5615 0-2.9962.0537251-4.3069.1795554-1.2106.100381-2.3141.254487-3.3175.460904-1.2727.268626-2.3466.579667-3.2203.955737v2.19142h7.9612v13.6999h5.7825v-13.69848h7.956v-2.20556c-.17-.07069-.347-.13997-.536-.21349-1.132-.424142-2.569-.752148-4.324-1.005221-.571-.07578-1.145-.137535-1.719-.18521-1.422-.1274963-2.8487-.18741503-4.276-.1795554zm-88.1249 2.4911464c-1.17664-.0009-2.35056.11369-3.50497.34214-1.14102.21041-2.24534.58668-3.27808 1.11692-.98048.48987-1.82087 1.22154-2.442354 2.12638-.614464.89354-.921696 1.97087-.921696 3.24048v8.16765h5.78667v-7.0408c0-.98265.18322-1.77438.544-2.41343.36643-.63339.8766-1.09571 1.53898-1.38554.65956-.29408 1.41214-.44253 2.26905-.44253.8878 0 1.6573.15128 2.3169.44677.6539.29549 1.1641.76346 1.5277 1.39685.3664.63339.5454 1.44492.5454 2.41768v7.021h5.7909v-8.16765c0-1.64569-.5215-2.98599-1.5545-4.00677-1.0387-1.02643-2.3254-1.75454-3.8686-2.17869-1.5469-.42837-3.1446-.64383-4.7494-.64046zm133.1029.00283c-1.165 0-2.328.10886-3.505.33649-1.136.21782-2.237.59524-3.269 1.12116-.979.49181-1.82 1.22072-2.447 2.12072-.613.89354-.926 1.97369-.926 3.24472v8.16195h5.795v-7.038c0-.97409.178-1.77573.544-2.40487.348-.61954.887-1.10848 1.537-1.39262.659-.29407 1.417-.43828 2.269-.43828.89 0 1.667.14704 2.311.43828.662.29549 1.168.77195 1.536 1.40251.365.64046.548 1.44634.548 2.42188v7.0125h5.786v-8.16335c0-1.6471-.525-2.98316-1.555-4.00677-1.039-1.02926-2.325-1.74889-3.867-2.17869-1.55-.42915-3.149-.64368-4.757-.63763zm-66.0403.04665c-2.3804 0-4.3929.3577-6.0502 1.08299-1.6518.71822-2.8793 1.66548-3.6713 2.84319-.7949 1.18054-1.1951 2.44873-1.1951 3.80031 0 1.3417.4016 2.6099 1.1979 3.7891.8005 1.1847 2.0294 2.1348 3.6783 2.8559 1.6461.7281 3.66 1.0872 6.0404 1.0872 2.3451 0 4.3435-.3506 5.9811-1.0462 1.6377-.6928 2.8708-1.6231 3.6995-2.8093.8315-1.1819 1.2444-2.477 1.2444-3.8767 0-1.03771-.2339-2.02597-.6962-2.9605-.4636-.93878-1.1415-1.76021-2.0393-2.46853-.8921-.70691-2.0477-1.26254-3.4359-1.68244-1.3994-.41001-2.9793-.61502-4.7536-.61502zm42.0743 0c-2.378 0-4.392.3577-6.048 1.08299-1.652.71822-2.875 1.66548-3.673 2.84319-.792 1.18054-1.19 2.44873-1.19 3.80031 0 1.3417.397 2.6099 1.199 3.7891.8 1.1847 2.028 2.1348 3.675 2.8559 1.645.7281 3.659 1.0872 6.037 1.0872 2.349 0 4.35-.3506 5.986-1.0462 1.637-.6928 2.87-1.6231 3.7-2.8093.826-1.1819 1.244-2.477 1.244-3.8767 0-1.03771-.234-2.02597-.695-2.9605-.462-.93878-1.144-1.76021-2.043-2.46853-.899-.70691-2.045-1.26254-3.442-1.68244-1.386-.41001-2.975-.61502-4.75-.61502zm-96.0852.41991v8.21148c0 1.6457.5144 2.9831 1.5531 4.0124 1.0373 1.0179 2.3226 1.7489 3.87 2.1773 1.5362.4241 3.1217.6362 4.748.6362 1.1641 0 2.3395-.1103 3.5064-.3393 1.1404-.2163 2.2443-.5948 3.2781-1.124.9785-.4916 1.8183-1.2217 2.4423-2.1236.6145-.8907.9189-1.9708.9189-3.2376v-8.2143h-5.7852v7.0875c0 .9755-.1819 1.7743-.5426 2.4077-.3721.6391-.8851 1.1014-1.539 1.3912-.6638.2941-1.4178.4425-2.2648.4425-.8991 0-1.6658-.147-2.3211-.4425-.648-.2916-1.1855-.7843-1.5334-1.4053-.3608-.6405-.5468-1.4421-.5468-2.4191v-7.06058zm22.0644 0 7.7794 13.22058.7752 1.3064h3.7488l8.5644-14.52698h-5.3484l-5.0876 8.70348-5.0947-8.70348zm31.9465 3.45678c.8047 0 1.5192.09897 2.145.28984.6088.19793 1.1373.45807 1.5714.80163.4185.33932.7384.74933.9555 1.21164.2142.47081.3241.98402.3241 1.54669 0 .7437-.1874 1.4195-.5806 1.9935-.3904.5867-.9612 1.0321-1.7095 1.37-.7413.3252-1.6447.4849-2.7059.4849-1.5418 0-2.7595-.3506-3.6502-1.0603-.8907-.7211-1.3374-1.6443-1.3374-2.7881 0-1.1494.4467-2.07546 1.3346-2.78519.8851-.70691 2.1027-1.06461 3.653-1.06461zm42.0743 0c.811 0 1.524.09897 2.146.28984.619.19793 1.142.45807 1.571.80163.433.33932.747.74933.962 1.21164.211.47081.319.98402.319 1.54669 0 .7437-.191 1.4195-.583 1.9935-.39.5867-.956 1.0321-1.7 1.37-.749.3252-1.654.4849-2.715.4849-1.541 0-2.754-.3506-3.639-1.0603-.895-.7211-1.346-1.6443-1.346-2.7881 0-1.1494.445-2.07546 1.334-2.78519.883-.70691 2.105-1.06461 3.651-1.06461z" fill="#e6290f"/></svg>