<svg fill="none" height="24" viewBox="0 0 71 24" width="71" xmlns="http://www.w3.org/2000/svg">
  <path d="m20 0v14.475l-12.225-14.475h-7.275v24h7.275v-14.475l12.225 14.475 7.275-12z" fill="#fca600" />
  <path
    d="m40.55 24-4.875-7.95-4.875 7.95h-8.625l7.275-12-7.275-12h8.55l4.875 7.95 4.95-7.95h8.55l-7.275 12 7.275 12z"
    fill="#0EAFE0" />
  <path
    d="m61.7 0h-10.35l-7.275 12 7.275 12v-5.325h12.225c5.1 0 6.675-4.125 6.675-7.65v-2.85c0-4.65-1.65-8.175-8.55-8.175zm1.8 9.675c0 1.425-.675 3.075-2.325 3.075h-9.75v-6.825h9.075c2.175 0 3 .9 3 2.55z"
    fill="#69CA00" />
</svg>
