<svg width="49" height="48" viewBox="0 0 49 48" fill="none" xmlns="http://www.w3.org/2000/svg">
<g clip-path="url(#clip0_722_2267)">
<path fill-rule="evenodd" clip-rule="evenodd" d="M7.11702 7.02938C11.65 2.49638 17.677 0 24.0876 0C30.4983 0 36.5253 2.49638 41.0583 7.02938C45.5913 11.5624 48.0876 17.5894 48.0876 24C48.0876 30.4106 45.5913 36.4376 41.0583 40.9706C36.5253 45.5036 30.4983 48 24.0876 48C17.677 48 11.65 45.5036 7.11702 40.9706C2.58402 36.4376 0.0876465 30.4106 0.0876465 24C0.0876465 17.5894 2.58402 11.5624 7.11702 7.02938ZM24.0876 46.76C36.6575 46.76 46.8475 36.5701 46.8475 24.0001C46.8475 11.4301 36.6576 1.24023 24.0876 1.24023C11.5176 1.24023 1.32758 11.4301 1.32758 24.0001C1.32758 36.5701 11.5176 46.76 24.0876 46.76Z" fill="#FF7F00"/>
<path d="M30.2506 13.8867L31.2153 10.411C32.2023 10.3229 32.9763 9.49487 32.9763 8.4848C32.9763 7.41605 32.11 6.5498 31.0413 6.5498C29.9725 6.5498 29.1063 7.41605 29.1063 8.4848C29.1063 9.18887 29.4837 9.80293 30.0457 10.1417L29.0988 13.5533C26.3919 12.8652 24.1066 12.9177 24.1066 12.9177L23.6832 13.1071V39.5205L24.1066 39.6617C26.6592 39.6617 37.8273 31.9493 37.8547 23.6736C37.8547 17.7441 33.9129 15.0814 30.2506 13.8867ZM27.562 30.9001C25.3839 27.4206 26.3047 19.3217 31.9951 18.1641C33.5551 17.9142 35.4655 18.9392 36.0282 21.2164C37.4499 26.0476 29.0879 32.8124 27.562 30.9001ZM30.9775 23.4466C30.5101 23.4466 30.0619 23.6322 29.7314 23.9627C29.4009 24.2932 29.2152 24.7415 29.2152 25.2089C29.2152 25.4403 29.2608 25.6695 29.3494 25.8833C29.438 26.0971 29.5678 26.2914 29.7315 26.4551C29.8951 26.6187 30.0894 26.7485 30.3033 26.8371C30.5171 26.9256 30.7463 26.9712 30.9777 26.9712C31.2092 26.9712 31.4383 26.9255 31.6521 26.837C31.8659 26.7484 32.0602 26.6185 32.2238 26.4549C32.3874 26.2912 32.5172 26.0969 32.6058 25.8831C32.6943 25.6693 32.7399 25.4401 32.7399 25.2087C32.7398 24.7413 32.5541 24.2931 32.2236 23.9627C31.8931 23.6322 31.4449 23.4466 30.9775 23.4466ZM31.5044 25.0726C31.4459 25.0726 31.3881 25.061 31.334 25.0387C31.28 25.0163 31.2309 24.9835 31.1896 24.9422C31.1483 24.9008 31.1155 24.8517 31.0931 24.7977C31.0707 24.7437 31.0592 24.6858 31.0592 24.6273C31.0592 24.5689 31.0707 24.511 31.0931 24.457C31.1155 24.4029 31.1483 24.3539 31.1896 24.3125C31.2309 24.2712 31.28 24.2384 31.334 24.216C31.3881 24.1936 31.4459 24.1821 31.5044 24.1821C31.6225 24.1821 31.7357 24.229 31.8192 24.3125C31.9027 24.396 31.9496 24.5093 31.9496 24.6273C31.9496 24.7454 31.9027 24.8587 31.8192 24.9422C31.7357 25.0256 31.6225 25.0726 31.5044 25.0726Z" fill="#E57200"/>
<path d="M19.0947 13.6331L18.1529 10.0891C18.6918 9.74564 19.0503 9.14414 19.0503 8.45771C19.0503 7.38896 18.184 6.52271 17.1153 6.52271C16.0467 6.52271 15.1805 7.38896 15.1805 8.45771C15.1805 9.52308 16.0415 10.3869 17.1055 10.3921L18.0502 13.946C14.3735 15.1666 10.3842 17.8351 10.3842 23.6735C10.466 32.1129 21.554 39.6611 24.1066 39.6611V12.9174C24.1066 12.9174 21.8092 12.9058 19.0947 13.6331ZM21.0438 30.9C19.5179 32.8125 11.156 26.0475 12.5774 21.2165C13.1403 18.9393 15.0505 17.9143 16.6107 18.164C22.3013 19.3218 23.222 27.4207 21.0438 30.9001V30.9ZM17.515 23.5012C17.0477 23.5012 16.5994 23.6869 16.269 24.0173C15.9385 24.3478 15.7528 24.796 15.7527 25.2633C15.7527 25.4948 15.7983 25.724 15.8868 25.9378C15.9754 26.1517 16.1052 26.346 16.2689 26.5097C16.4326 26.6733 16.6269 26.8032 16.8407 26.8917C17.0546 26.9803 17.2838 27.0259 17.5152 27.0258C17.7466 27.0258 17.9758 26.9802 18.1896 26.8916C18.4034 26.803 18.5977 26.6732 18.7613 26.5095C18.9249 26.3459 19.0547 26.1516 19.1433 25.9378C19.2318 25.7239 19.2774 25.4948 19.2773 25.2633C19.2773 24.7959 19.0917 24.3477 18.7612 24.0172C18.4307 23.6867 17.9824 23.501 17.515 23.501V23.5012ZM16.9882 25.127C16.8701 25.127 16.7569 25.0801 16.6734 24.9966C16.5899 24.9132 16.543 24.7999 16.543 24.6819C16.543 24.5638 16.5899 24.4506 16.6734 24.3671C16.7569 24.2837 16.8701 24.2368 16.9882 24.2368C17.1062 24.2368 17.2194 24.2837 17.3029 24.3671C17.3864 24.4506 17.4333 24.5638 17.4333 24.6819C17.4333 24.7999 17.3864 24.9132 17.3029 24.9966C17.2194 25.0801 17.1062 25.127 16.9882 25.127Z" fill="#FF7F00"/>
</g>
<defs>
<clipPath id="clip0_722_2267">
<rect width="48" height="48" fill="white" transform="translate(0.0876465)"/>
</clipPath>
</defs>
</svg>
