<svg width="63" height="44" viewBox="0 0 63 44" fill="none" xmlns="http://www.w3.org/2000/svg">
<path d="M2.20554 22.3459V13.7255H12.9578C13.7618 13.7255 15.1082 13.5946 15.1082 12.1173C15.1082 10.7709 13.631 10.5091 12.9578 10.5091H6.37553V13.071H2.20554V7.01232H13.1074C15.931 7.01232 19.2969 8.35869 19.2969 11.9864C19.2969 16.0255 16.3424 16.9605 12.9765 16.9605H6.39423V22.1963L2.20554 22.3459Z" fill="#23282A"/>
<path d="M29.5069 6.73183L24.5328 0H14.1732L24.6637 12.7718C24.6637 12.7905 29.5069 6.73183 29.5069 6.73183ZM36.1078 14.2677L31.1337 20.3264L36.3696 27.32H46.7291L36.1078 14.2677Z" fill="#00A3E0"/>
<path d="M36.3696 0.0187178L14.0423 27.32H24.4019L46.7291 0.0187178H36.3696ZM47.5332 12.5287H54.1341C57.5 12.5287 60.4546 13.4637 60.4546 17.5028C60.4546 21.2614 57.0886 22.4768 54.265 22.4768H49.6836C46.0559 22.4768 43.4941 21.1305 43.3632 17.241H47.5332C47.5332 18.4565 48.6178 18.9987 49.5527 18.9987H54.1341C54.8073 18.9987 56.2846 18.7369 56.2846 17.3906C56.2846 15.9133 54.9382 15.7824 54.1341 15.7824H43.6437V7.27414H47.5519V12.5287H47.5332Z" fill="#23282A"/>
<path d="M59.7814 7.2741H48.0755V10.7709H59.7814V7.2741Z" fill="#23282A"/>
<path d="M4.05679 44H0.522583V32.2193H4.05679V33.6966H2.28033V42.504H4.03809L4.05679 44Z" fill="#00A3E0"/>
<path d="M20.4002 37.6608C20.4002 38.4836 20.0636 39.1755 19.3717 39.7739C18.6611 40.3536 17.8196 40.6528 16.8473 40.6528H15.7253L19.7083 43.0276H15.5757L11.8732 40.6528V43.0276H9.01216V33.5282H16.8473C17.8196 33.5282 18.6611 33.8274 19.3717 34.4071C20.0636 34.9868 20.4002 35.6787 20.4002 36.5015V37.6608ZM17.5578 37.4551V36.7446C17.5578 36.5015 17.4644 36.3332 17.2587 36.1649C17.053 35.9966 16.8286 35.9218 16.5481 35.9218H11.8545V38.2966H16.5481C16.8286 38.2966 17.053 38.2031 17.2587 38.0535C17.4644 37.8665 17.5578 37.6608 17.5578 37.4551ZM31.0963 35.8844H27.5434V43.0089H24.6824V35.8844H21.1295V33.5095H31.0963V35.8844ZM43.2136 40.0544C43.2136 40.8772 42.877 41.569 42.1851 42.1674C41.4745 42.7471 40.6331 43.0463 39.6607 43.0463H35.3972C34.4435 43.0463 33.5833 42.7471 32.8728 42.1674C32.1809 41.5877 31.8443 40.8772 31.8443 40.0544V36.5015C31.8443 35.6787 32.1809 34.9868 32.8728 34.4071C33.5646 33.8274 34.4061 33.5282 35.3972 33.5282H39.6607C40.6331 33.5282 41.4745 33.8274 42.1851 34.4071C42.877 34.9868 43.2136 35.6787 43.2136 36.5015V40.0544ZM40.3526 39.8113V36.7259C40.3526 36.4828 40.2591 36.3145 40.0534 36.1462C39.8477 35.9779 39.6233 35.9031 39.3428 35.9031H35.6403C35.3598 35.9031 35.1354 35.9966 34.9297 36.1462C34.724 36.3145 34.6305 36.5015 34.6305 36.7259V39.8113C34.6305 40.0544 34.724 40.2414 34.9297 40.391C35.1354 40.5593 35.3598 40.6341 35.6403 40.6341H39.3428C39.6233 40.6341 39.8477 40.5406 40.0534 40.391C40.2591 40.2414 40.3526 40.0544 40.3526 39.8113ZM55.3122 40.1666C55.3122 40.9333 54.9943 41.5877 54.3585 42.1674C53.704 42.7284 52.9374 43.0276 52.0585 43.0276H44.6535V40.6528H51.6284C51.8715 40.6528 52.0585 40.578 52.2268 40.4284C52.4138 40.2788 52.4886 40.1105 52.4886 39.9422C52.4886 39.7365 52.3951 39.6056 52.2268 39.456C52.0398 39.3064 51.8715 39.2316 51.6284 39.2316H47.1966C46.299 39.2316 45.551 38.9324 44.8966 38.3527C44.2421 37.773 43.9429 37.1186 43.9429 36.3706C43.9429 35.6226 44.2608 34.9494 44.8966 34.3884C45.551 33.8087 46.3177 33.5095 47.1966 33.5095H54.6016V35.8844H47.6267C47.3836 35.8844 47.1966 35.9592 47.0283 36.1088C46.86 36.2584 46.7665 36.4267 46.7665 36.595C46.7665 36.8007 46.86 36.9503 47.0283 37.0812C47.2153 37.2308 47.3836 37.3056 47.6267 37.3056H52.0398C52.9374 37.3056 53.6853 37.6047 54.3398 38.1844C54.9756 38.7641 55.3122 39.4186 55.3122 40.1666Z" fill="#23282A"/>
<path d="M62.6798 44H59.1269V42.5227H60.9034V33.7152H59.1269V32.238H62.6798V44Z" fill="#00A3E0"/>
</svg>
