<svg fill="none" height="24" viewBox="0 0 151 24" width="151" xmlns="http://www.w3.org/2000/svg"><g clip-rule="evenodd" fill="#2a289d" fill-rule="evenodd"><path d="m49.1661 4.43712c3.2509-.11979 3.9599.37305 5.3009 1.67615l7.8122 9.22273c-.018.1899.0444.225.2793.2798v-11.17868h2.7897v14.81248h-3.069c-2.179.0984-3.0665-.0676-4.4647-1.677l-8.0915-9.50167c.029-.01967-.0402-.05732-.2785 0v11.17867h-2.7905v-14.81248zm-14.7873 1.95594h7.5328c.3827.06845.6526-.04107.8371-.27979l.8371-1.67615h-10.8803c-4.8244-.11979-7.1853 1.6445-7.2545 5.31083v4.19165c.0692 3.7733 2.4985 5.4101 7.2545 5.31h9.4863c.3741.101.6423-.0077.8371-.2798l.8362-1.6761h-9.4863c-2.6044-.0856-3.5047-.9464-3.6268-2.5147v-2.2375h10.0441c.4091.0642.6791-.0427.8371-.2789l.8371-1.677h-11.7183v-1.39809c.1221-1.40407.4467-2.72686 3.6268-2.79445zm43.2463 0h7.532c.4852.06845.7542-.04107.8371-.27979l1.1164-1.67615h-11.1605c-4.7227-.11979-7.0828 1.6445-6.9743 5.31083v4.19165c-.1085 3.7733 2.3199 5.4101 6.9743 5.31h9.4872c.4757.101.744-.0077.8362-.2798l1.1164-1.6761h-9.7648c-2.5027-.0856-3.4056-.9464-3.3483-2.5147v-2.2375h10.0432c.2349.0642.5023-.0427.5587-.2789l1.1163-1.677h-11.7182v-1.39809c-.0573-1.40407.269-2.72686 3.3483-2.79445zm22.0417 7.82554c1.9272.7238 2.5552 1.0113 2.5102 1.677.045.7957-.362 1.3125-3.0697 1.3981h-8.6484c-.41-.0873-.679.0213-.8371.2789l-.8371 1.677h12.5553c4.922.1035 6.81-1.4819 6.697-3.633.113-1.3185-.608-3.0049-5.302-4.4723l-5.0217-1.677c-2.0671-.72984-2.694-1.02931-2.7897-1.67701.0948-.75808.4485-1.32964 3.0682-1.39723h7.5342c.306.06845.575-.04192.837-.27979l.836-1.67615h-11.159c-5.0618-.11894-6.952 1.46482-6.9768 3.63381.0248 1.29969.7474 2.99467 5.5803 4.47147zm44.9192-3.0743-5.022-1.677c-1.936-.72984-2.564-1.02931-2.51-1.67701-.053-.75808.35-1.32964 2.789-1.39723h7.534c.437.06845.706-.04192.837-.27979l.836-1.67615h-11.159c-4.931-.11894-6.821 1.46482-6.696 3.63381-.125 1.29969.595 2.99467 5.3 4.47147l5.023 1.677c2.059.7239 2.687 1.0114 2.79 1.677-.103.7384-.511 1.3126-3.07 1.3981h-10.043l-8.092-12.85653h-2.791c-2.428-.11979-3.615.52449-4.743 2.23573l-7.532 12.5768h5.021l6.419-11.17871c.171-.23957.295-.23616.556-.27979l5.302 9.5025h-5.858c-.398-.0873-.668.0214-.838.2789l-.837 1.6771h25.39c5.051.1035 6.941-1.482 6.975-3.633-.034-1.3202-.755-3.0058-5.581-4.4732zm-143.40774.5596h7.01525v7.0272h-7.01525z"/><path d="m23.4984 3.87754c.6953 3.19916-2.1072 5.11661-4.7431 6.42826-.7927.2961-1.1463.6152-1.1156 1.1183-.1144.3046.0589.8359.5578 1.6762 2.4566 3.4396 7.3347 7.9529 12.5553 10.6199.0282.0685-.0546.1275 0 .2798-.2545-.0479-.4211-.0068-.837 0-7.562-2.0706-15.3741-7.7485-18.1348-11.7382-.3186-.5639-.422-1.0208-.2785-1.3973-.0632-.284.1871-.6015.8363-.8385 1.9381-1.00276 5.2864-2.96727 4.4638-5.30995-1.1599-3.48152-7.80617-3.42932-13.11309-1.95595-1.14865.49039-2.26652 1.05013-3.347474 1.67616-.094812.08129-.3553318.13177-.2793112 0-.0316041-.15572.0811452-.86503 0-.83851.1503332-.38075.5415402-.6631.8362262-.83765 8.250369-4.15745 21.277249-3.48408 22.599449 1.11744z"/></g></svg>