<svg fill="none" height="31" viewBox="0 0 112 31" width="112" xmlns="http://www.w3.org/2000/svg"><g fill="#28b8ba"><path d="m47.8425 6.80974c7.6518 1.00073 15.1646 4.25296 21.0381 9.10716.3362.2779.6248.4917.6413.4752.0379-.0379-.4376-.6392-1.3975-1.7674-.9852-1.158-3.3516-3.5202-4.5406-4.5327-4.1076-3.49789-8.7264-6.13592-13.735-7.84485-8.6273-2.943644-18.1762-2.997012-26.8162-.14988-.4764.15698-.8662.30851-.8662.33673 0 .02821.2201.43167.489.89656l.489.84527 1.0701-.3636c.5885-.19998 1.1126-.36438 1.1645-.36518.058-.00097.6865 1.0461 1.0079 1.58263.3255.54327.9215 1.61647.9314 1.6559.0099.03942-.1451.12311-.3446.18597-.4172.13154-1.7839.64528-1.8245.68587-.0194.0194 1.0307 1.89959 1.1407 2.04245.0064.00826.3345-.11477.7292-.27342 3.7747-1.51727 8.2757-2.50877 12.7221-2.80247 2.2258-.14701 5.74-.02305 8.1013.28576z"/><path d="m23.6102 4.92342c-.0018.03465.246.49528.5506 1.02363.3046.52834.5687.96082.5868.96114 0 0 1.467-.51343 1.5001-.53788.0129-.00957-1.0275-1.8404-1.1542-2.03113-.0288-.04332-1.4803.52842-1.4833.58424z"/><path d="m29.5365 22.3407h5.6693v2.8347h-5.6693z"/><path clip-rule="evenodd" d="m101.144 28.9169c.462.8807 1.354 1.5528 2.345 1.7665.326.0702 1.234.0893 4.425.0933l4.016.005v-15.4331h-2.834v4.1575l-2.41.0019c-2.537.0021-3.083.0389-3.677.2476-.762.2678-1.492.9058-1.879 1.6435-.389.7403-.41.9342-.41 3.7448 0 2.8261.019 3.0006.424 3.773zm7.952-6.5132v5.4804h-2.538c-2.243 0-2.554-.0119-2.683-.1027-.304-.2125-.323-.3685-.323-2.6512 0-1.9001.012-2.1515.111-2.3476.06-.1208.181-.255.267-.2983.118-.0589.787-.079 2.662-.0796z" fill-rule="evenodd"/><path clip-rule="evenodd" d="m91.0383 30.7127c-1.2935-.2161-2.4253-1.2642-2.7623-2.558-.1395-.5355-.1219-1.4255.0385-1.9491.3567-1.1641 1.3546-2.1075 2.5199-2.3822.3255-.0767.916-.0952 3.0728-.0959l2.6699-.0009-.0307-.4291c-.0336-.4692-.1493-.7071-.3995-.8211-.1151-.0524-1.2472-.0727-4.0622-.0727h-3.9025v-2.9057l8.2835.0405.4931.174c.2712.0957.6397.2679.8189.3828.4498.2884 1.003.9057 1.2349 1.3779.3712.7558.3799.8773.3811 5.2927l.0011 4.0158-4.0157-.0074c-2.2087-.004-4.162-.0318-4.3408-.0616zm5.5219-4.1515h-2.4588c-2.7037 0-2.8008.012-2.9859.3699-.0542.1049-.0987.2516-.0987.3259 0 .1829.1811.4771.3415.5549.081.0394 1.0984.0652 2.6664.0679l2.5355.0042z" fill-rule="evenodd"/><path d="m75.6785 27.9785c.284 1.3526 1.3363 2.4159 2.6769 2.7049.3255.0702 1.2339.0893 4.4257.0933l4.0158.005v-2.8977h-3.96c-3.894 0-3.9628-.0021-4.1238-.1288-.1889-.1485-.2932-.4667-.2938-.8948l-.0006-.2992h8.3779v-2.8346h-8.3949l.0307-.4291c.0336-.4692.1493-.7071.3995-.8211.1151-.0524 1.2472-.0727 4.0622-.0727h3.9025v-2.9057l-8.2835.0405-.493.174c-.6385.2252-1.0596.4995-1.5023.9786-.4241.459-.7108 1.0121-.8386 1.6181-.1343.6358-.1346 5.0311-.0007 5.6693z"/><path d="m63.0798 22.2463.1631-.4187c.3168-.8136.9649-1.542 1.7062-1.9176l.0229-.0116c.1133-.0575.2082-.1056.3062-.146.5038-.2074 1.0916-.2106 4.6989-.2303l4.2838-.0234v2.905h-7.935l-.4114.3676-.0343 8.0104h-2.836z"/><path d="m50.4499 15.3486v15.4331h2.8976v-8.378h5.052l.4284.4284v7.9496h2.9042l-.0214-4.1732c-.0196-3.8372-.0306-4.2012-.1363-4.5197-.3987-1.2013-1.2062-2.0217-2.3686-2.4067-.388-.1285-.552-.1369-3.1338-.1615l-2.7245-.0258v-4.1462z"/><path d="m40.6861 19.5691h-5.5433v-2.8347h13.9843v2.8347h-5.5433v11.2126h-2.8977z"/><path d="m21.1586 19.5691v11.2126h2.8346v-11.2126h5.6063v-2.8347h-14.0472v2.8347z"/><path clip-rule="evenodd" d="m.245178 16.7297 6.034122.0238c4.0516.0153 4.6549.0176 5.1767.225.0913.0363.1801.0788.2844.1288.0354.017.0726.0348.1122.0535 1.0173.4801 1.7358 1.2766 2.1417 2.3746.2429.6568.3065 1.7075.1449 2.3941-.4217 1.7915-1.9319 3.0751-3.8356 3.2601-.1707.0166-.0974.1243 1.8741 2.7522 1.1284 1.5043 2.0517 2.7586 2.0517 2.7874 0 .0289-.7936.0525-1.7635.0525h-1.7635l-4.1895-5.6008-3.43308-.0055v5.6063h-2.834642zm10.124622 5.5378c.3791-.0954.8583-.5485.9554-.9032.1029-.3764.0843-.5961-.0802-.9448-.1732-.3675-.3534-.5488-.7015-.7057-.2306-.104-.5455-.1148-3.85738-.1319l-3.6063-.0186v2.7774h3.49967c2.44931 0 3.58691-.022 3.79031-.0732z" fill-rule="evenodd"/></g><path d="m22.1958 7.08231c.021.05462.2791.51663.5737 1.02667l.5356.92736.5803-.20844c.8268-.297.9267-.33786.9267-.37881 0-.05676-1.0183-1.81382-1.1089-1.91342-.0688-.07565-.1383-.06762-.4779.0552-1.0449.37789-1.0687.38926-1.0295.49144z" fill="#379794"/><path d="m21.7018 6.26007c-.2966-.4764-1.0472-1.80993-1.0472-1.86057 0-.07378 1.4384-.60986 1.4922-.55611.125.12502 1.1397 1.96938 1.1033 2.00545-.0244.02413-.3631.15798-.7528.29745l-.7084.25357z" fill="#167c7b"/><path d="m19.5113 7.04745c.1681.28689.4245.72713.5698.97832.1452.25118.2878.45669.3168.45669.0444 0 .9851-.33172 1.3433-.47372.0607-.02404.1103-.06538.1103-.09188s-.2565-.48947-.57-1.02881l-.57-.98062-.5796.21101c-.8261.30073-.9261.34136-.9261.37628 0 .01711.1375.26584.3055.55273z" fill="#0b6463"/></svg>