<svg fill="none" height="28" viewBox="0 0 54 28" width="54" xmlns="http://www.w3.org/2000/svg"><g fill="#03234b"><path d="m52.9396.00000333h-38.1633c-1.3692-.00133012-2.7094.39546867-3.8572 1.14208667-1.14778.74662-2.05376 1.81084-2.6076 3.0631l-7.533797 18.14781c-.02546.0603-.035512.126-.029251.1912.00626.0651.028638.1277.065115.1821.036477.0543.085906.0987.143833.1292.05793.0305.12253.0461.18798.0454h17.23232c1.2174 0 1.758-1.1785.8035-2.1209l-6.3285-5.9267c-3.32615-3.2604-1.8993-10.82099 5.0087-10.82099h33.7365c.0827.00025.1634-.02514.231-.07268s.1187-.11488.1465-.19273l1.3343-3.226334c.0198-.047862.0297-.099197.0292-.150968-.0025-.104213-.0457-.2033-.1203-.276097-.0746-.0727956-.1747-.11352868-.279-.11349767z"/><path d="m49.1362 9.23828h-6.4795c-.2075-.00181-.4109.0581-.5843.17212s-.3091.27701-.3897.46827l-7.2586 17.53173c-.0303.0561-.0462.1189-.0463.1827.0004.0518.0109.103.031.1507.0201.0478.0494.0911.0863.1275s.0805.0652.1285.0847.0993.0294.1511.0291h2.418c1.3909.0055 2.7525-.3999 3.9139-1.1653 1.1613-.7655 2.0708-1.8569 2.6142-3.1373l5.7685-13.92558c.0183-.04657.0282-.09605.0292-.14609-.0043-.0991-.0463-.19281-.1173-.26204-.0711-.06922-.1658-.10875-.265-.11051z"/><path d="m36.4013 9.6303c-.0003-.05212-.0109-.10367-.0312-.1517-.0202-.04803-.0497-.09161-.0868-.12824s-.081-.06559-.1293-.08524-.0999-.0296-.152-.02928h-18.3695c-.9959 0-1.8676 1.21746-.8132 2.19146l6.0679 5.6516s2.4569 2.2645 1.9309 5.5054c-.4529 2.8538-2.4008 4.5997-3.8204 5.2279-.0216.0087-.0394.0248-.0501.0455-.0108.0206-.0138.0444-.0085.0671.0053.0226.0186.0427.0373.0564.0188.0137.0419.0203.0651.0185h7.0736c.2076.0021.4111-.0576.5846-.1717s.309-.2772.3894-.4687l7.2805-17.5902c.0214-.04312.0323-.09068.0317-.1388z"/></g></svg>