<svg width="98" height="48" viewBox="0 0 98 48" fill="none" xmlns="http://www.w3.org/2000/svg">
<path d="M32.4995 14.5774L34.1793 16.2422L47.1933 3.33297L60.2056 16.2422L61.8854 14.5774L47.1933 0L32.4995 14.5774Z" fill="#1FA3EC"/>
<path d="M47.1916 10.2881C45.0698 10.2868 43.0147 11.0235 41.3837 12.37C39.7528 13.7165 38.6491 15.5876 38.2649 17.6578C37.8806 19.728 38.2399 21.8663 39.2804 23.7009C40.3208 25.5354 41.9766 26.9501 43.9596 27.6989V25.1016C42.746 24.4407 41.7689 23.4226 41.163 22.1876C40.5571 20.9526 40.3522 19.5616 40.5766 18.2063C40.8009 16.8509 41.4435 15.598 42.4158 14.6202C43.388 13.6424 44.6421 12.9878 46.005 12.7467V29.1532H48.3799V12.7467C49.7428 12.9878 50.9968 13.6424 51.9691 14.6202C52.9414 15.598 53.584 16.8509 53.8083 18.2063C54.0327 19.5616 53.8278 20.9526 53.2219 22.1876C52.616 23.4226 51.6389 24.4407 50.4253 25.1016V27.6903C52.4027 26.9377 54.0524 25.5224 55.0883 23.6897C56.1242 21.857 56.4812 19.7225 56.0972 17.6562C55.7132 15.5898 54.6126 13.7218 52.986 12.3761C51.3595 11.0304 49.3095 10.2917 47.1916 10.2881Z" fill="#1FA3EC"/>
<path d="M83.5067 33.3204V31.4004H71.0796V33.3204H76.3248V47.8396H78.2601V33.3204H83.5067Z" fill="black"/>
<path d="M12.6713 33.3204V31.4004H0.245605V33.3204H5.4908V47.8396H7.42612V33.3204H12.6713Z" fill="black"/>
<path d="M24.1062 47.8396H26.2537C24.5123 44.3022 20.0908 34.6227 20.0908 31.4004H18.0641C18.0641 34.6227 13.6439 44.3022 11.9025 47.8396H14.0487C14.5659 46.7604 15.4738 44.8293 16.4253 42.6248H21.7295C22.6852 44.8293 23.589 46.7604 24.1062 47.8396ZM17.2349 40.7048C17.9193 39.0316 18.5757 37.3138 19.0774 35.7452C19.5792 37.3138 20.2369 39.0386 20.9214 40.7048H17.2349Z" fill="black"/>
<path d="M94.9401 47.8396H97.0877C95.3477 44.3022 90.9247 34.6227 90.9247 31.4004H88.898C88.898 34.6227 84.4779 44.3022 82.7365 47.8396H84.8826C85.4013 46.7604 86.3078 44.8293 87.2593 42.6248H92.5635C93.5206 44.8293 94.4229 46.7604 94.9401 47.8396ZM88.0688 40.7048C88.7533 39.0316 89.4096 37.3138 89.9114 35.7452C90.4131 37.3138 91.0709 39.0386 91.7553 40.7048H88.0688Z" fill="black"/>
<path d="M63.5491 33.3204C66.4289 33.3204 68.7732 36.1468 68.7732 39.62C68.7732 43.0933 66.4289 45.9196 63.5491 45.9196C60.6693 45.9196 58.325 43.0933 58.325 39.62C58.325 36.1468 60.6679 33.3204 63.5491 33.3204ZM63.5491 31.4004C59.5941 31.4004 56.3897 35.0801 56.3897 39.627C56.3897 44.1739 59.5941 47.8536 63.5491 47.8536C67.5041 47.8536 70.7085 44.1739 70.7085 39.634C70.7085 35.094 67.5027 31.4144 63.5491 31.4144V31.4004Z" fill="black"/>
<path d="M32.664 48C31.3154 47.9941 30.0241 47.4578 29.0735 46.5087C28.1229 45.5596 27.5905 44.2752 27.5931 42.9372H29.5284C29.5284 43.7622 29.8588 44.5534 30.4468 45.1368C31.0349 45.7202 31.8324 46.0479 32.664 46.0479C33.4956 46.0479 34.2932 45.7202 34.8812 45.1368C35.4693 44.5534 35.7996 43.7622 35.7996 42.9372C35.7977 42.128 35.4857 41.3499 34.9268 40.7606C34.3646 40.175 33.6619 39.8836 32.5586 39.7846C31.2937 39.673 30.3169 39.238 29.5861 38.4558C28.8658 37.6744 28.4649 36.6548 28.4617 35.596C28.4617 34.4896 28.9047 33.4284 29.6934 32.6461C30.482 31.8637 31.5516 31.4241 32.6668 31.4241C33.7821 31.4241 34.8517 31.8637 35.6403 32.6461C36.429 33.4284 36.872 34.4896 36.872 35.596H34.9339C34.9339 34.9988 34.6947 34.426 34.269 34.0037C33.8434 33.5814 33.266 33.3441 32.664 33.3441C32.062 33.3441 31.4847 33.5814 31.059 34.0037C30.6333 34.426 30.3942 34.9988 30.3942 35.596C30.3958 36.1719 30.6143 36.7265 31.007 37.1507C31.4075 37.5801 31.9388 37.8032 32.7301 37.8716C33.7139 37.9594 35.1615 38.2173 36.3295 39.4374C37.2282 40.3845 37.7306 41.635 37.7349 42.9358C37.7379 44.274 37.2057 45.5588 36.2551 46.5082C35.3044 47.4576 34.0129 47.9941 32.664 48Z" fill="black"/>
<path d="M53.5548 31.4116V31.4004H51.6139V31.452C51.5535 32.0906 50.0243 33.7513 47.2176 35.7285C44.0989 33.5324 42.8789 31.9777 42.8213 31.452V31.4004H40.8874V31.4116C40.8874 31.4353 40.8874 31.459 40.8874 31.4827V47.8396H42.8213V34.6506C43.7658 35.5718 45.0508 36.5864 46.6765 37.6945L47.2218 38.0584L47.7643 37.6903C49.389 36.5878 50.6722 35.5755 51.6139 34.6534V47.8396H53.5478V31.4827C53.5492 31.4618 53.5548 31.4367 53.5548 31.4116Z" fill="black"/>
</svg>
