<svg width="160" height="48" viewBox="0 0 160 48" fill="none" xmlns="http://www.w3.org/2000/svg">
<g clip-path="url(#clip0_1555_788)">
<path d="M74.5715 0H1.42864C0.785784 0 0.214355 0.571429 0.214355 1.21429V23.1429C0.214355 23.8571 0.785784 24.3571 1.42864 24.3571H74.5001V0H74.5715Z" fill="url(#paint0_linear_1555_788)"/>
<path d="M74.5715 24.3572H158.786C159.429 24.3572 160 23.7858 160 23.1429V1.21435C160 0.57149 159.429 6.10352e-05 158.786 6.10352e-05H74.5715V24.3572Z" fill="#E5E7E6"/>
<path d="M15.4286 7.99975V17.4283C15.4286 18.0712 15.0715 18.214 14.3572 18.214C13.6429 18.214 13.2858 18.0712 13.2858 17.4283V7.99975H8.35721C7.85721 7.99975 7.71436 7.71403 7.71436 7.1426C7.71436 6.57118 7.85721 6.28546 8.35721 6.28546H20.4286C20.9286 6.28546 21.0715 6.57118 21.0715 7.1426C21.0715 7.71403 20.9286 7.99975 20.4286 7.99975H15.4286Z" fill="white"/>
<path d="M31.2143 8.85698H24.9286V6.92841C24.9286 6.28556 24.5715 6.1427 23.8572 6.1427C23.1429 6.1427 22.7858 6.28556 22.7858 6.92841V17.4284C22.7858 18.0713 23.1429 18.2141 23.8572 18.2141C24.5715 18.2141 24.9286 18.0713 24.9286 17.4284V10.4998H31.1429C33 10.4998 33.7858 10.9998 33.7858 11.7141V17.4284C33.7858 18.0713 34.1429 18.2141 34.8572 18.2141C35.5715 18.2141 35.9286 18.0713 35.9286 17.4284V11.7141C35.9286 9.78556 34.3572 8.85698 31.2143 8.85698Z" fill="white"/>
<path d="M39.2143 8.85718C38.5 8.85718 38.1428 9.00004 38.1428 9.64289V17.4286C38.1428 18.0715 38.5 18.2143 39.2143 18.2143C39.9285 18.2143 40.2857 18.0715 40.2857 17.4286V9.64289C40.2857 9.00004 39.9285 8.85718 39.2143 8.85718Z" fill="white"/>
<path d="M39.2143 6.14258C38.2857 6.14258 37.9286 6.42829 37.9286 7.14258C37.9286 7.85686 38.2857 8.14258 39.2143 8.14258C40.1429 8.14258 40.5 7.85686 40.5 7.14258C40.5 6.42829 40.1429 6.14258 39.2143 6.14258Z" fill="white"/>
<path d="M50.7858 8.85718H47.2144C44.143 8.85718 42.5715 9.78575 42.5715 11.7143V17.4286C42.5715 18.0715 42.9287 18.2143 43.643 18.2143C44.3572 18.2143 44.7144 18.0715 44.7144 17.4286V11.7143C44.7144 11.0715 45.5001 10.5 47.3572 10.5H50.7858C52.643 10.5 53.4287 11 53.4287 11.7143V17.4286C53.4287 18.0715 53.7858 18.2143 54.4287 18.2143C55.0715 18.2143 55.5001 18.0715 55.5001 17.4286V11.7143C55.4287 9.78575 53.9287 8.85718 50.7858 8.85718Z" fill="white"/>
<path d="M69.2143 16.6426L63.5001 12.4283L68.2143 9.92829C68.5001 9.78543 68.6429 9.64258 68.6429 9.35686C68.6429 8.92829 68.2858 8.71401 67.8572 8.71401C67.2143 8.71401 66.8572 8.78543 66.5715 8.85686L59.8572 12.4283V6.92829C59.8572 6.28543 59.5001 6.14258 58.7858 6.14258C58.0715 6.14258 57.7858 6.28543 57.7858 6.92829V17.4283C57.7858 18.0711 58.1429 18.214 58.7858 18.214C59.4286 18.214 59.8572 18.0711 59.8572 17.4283V14.3569L61.7858 13.3569L67.1429 17.4283C67.2858 17.5711 67.6429 17.7854 68.3572 17.8569C69.1429 17.9997 69.5001 17.8569 69.5715 17.4283C69.5715 17.0711 69.5001 16.8569 69.2143 16.6426Z" fill="white"/>
<path d="M85.2145 12.9287C82.0002 12.9287 80.3573 11.9287 80.3573 9.85727V9.28585C80.3573 7.21442 82.0002 6.21442 85.2145 6.21442H86.8573C87.3573 6.21442 87.5002 6.50013 87.5002 7.07156C87.5002 7.64299 87.3573 7.9287 86.8573 7.9287H85.143C83.2145 7.9287 82.5002 8.50013 82.5002 9.21442V9.85727C82.5002 10.5716 83.2145 11.143 85.143 11.143H89.0002C92.2145 11.143 93.8573 12.143 93.8573 14.2144V15.0001C93.8573 17.0716 92.2145 18.0716 89.0002 18.0716H80.9287C80.4287 18.0716 80.2859 17.7858 80.2859 17.2144C80.2859 16.643 80.4287 16.3573 80.9287 16.3573H89.0002C90.9287 16.3573 91.643 15.7858 91.643 15.0716V14.2858C91.643 13.5716 90.9287 13.0001 89.0002 13.0001H85.2145V12.9287Z" fill="#343739"/>
<path d="M97.0001 6.1427C97.9286 6.1427 98.2858 6.42841 98.2858 7.1427C98.2858 7.85699 97.9286 8.1427 97.0001 8.1427C96.0715 8.1427 95.7144 7.85699 95.7144 7.1427C95.7144 6.42841 96.0715 6.1427 97.0001 6.1427ZM98.0715 17.4284C98.0715 18.0713 97.7144 18.2141 97.0001 18.2141C96.2858 18.2141 96.0001 18.0713 96.0001 17.4284V9.6427C96.0001 8.99984 96.3572 8.85698 97.0001 8.85698C97.6429 8.85698 98.0715 8.99984 98.0715 9.6427V17.4284Z" fill="#343739"/>
<path d="M102.5 17.4284C102.5 18.0713 102.143 18.2141 101.429 18.2141C100.714 18.2141 100.429 18.0713 100.429 17.4284V6.92841C100.429 6.28556 100.786 6.1427 101.429 6.1427C102.071 6.1427 102.5 6.28556 102.5 6.92841V17.4284Z" fill="#343739"/>
<path d="M105.929 6.1427C106.857 6.1427 107.214 6.42841 107.214 7.1427C107.214 7.85699 106.857 8.1427 105.929 8.1427C105 8.1427 104.643 7.85699 104.643 7.1427C104.643 6.42841 105 6.1427 105.929 6.1427ZM106.929 17.4284C106.929 18.0713 106.571 18.2141 105.857 18.2141C105.143 18.2141 104.857 18.0713 104.857 17.4284V9.6427C104.857 8.99984 105.214 8.85698 105.857 8.85698C106.5 8.85698 106.929 8.99984 106.929 9.6427V17.4284Z" fill="#343739"/>
<path d="M113.857 18.1429C110.786 18.1429 109.214 17.2144 109.214 15.2858V11.7144C109.214 9.78581 110.786 8.85724 113.857 8.85724H122.071C122.571 8.85724 122.714 9.14295 122.714 9.71438C122.714 10.2858 122.571 10.5001 122.071 10.5001H113.929C112.071 10.5001 111.286 11.0001 111.286 11.7144V15.2858C111.286 15.9287 112.071 16.5001 113.929 16.5001H122.143C122.643 16.5001 122.714 16.7858 122.714 17.2858C122.714 17.7858 122.643 18.1429 122.143 18.1429H113.857Z" fill="#343739"/>
<path d="M129.286 8.85724H132.857C135.929 8.85724 137.5 9.78581 137.5 11.7144V15.2858C137.5 17.2144 135.929 18.1429 132.857 18.1429H129.286C126.214 18.1429 124.643 17.2144 124.643 15.2858V11.7144C124.643 9.78581 126.214 8.85724 129.286 8.85724ZM135.429 11.7144C135.429 11.0715 134.643 10.5001 132.786 10.5001H129.357C127.5 10.5001 126.714 11.0001 126.714 11.7144V15.2858C126.714 15.9287 127.5 16.5001 129.357 16.5001H132.786C134.643 16.5001 135.429 15.9287 135.429 15.2858V11.7144Z" fill="#343739"/>
<path d="M139.714 17.4287V11.7144C139.714 9.78581 141.286 8.85724 144.357 8.85724H147.929C151 8.85724 152.571 9.78581 152.571 11.7144V17.4287C152.571 18.0715 152.214 18.2144 151.5 18.2144C150.786 18.2144 150.5 18.0715 150.5 17.4287V11.7144C150.5 11.0715 149.714 10.5001 147.857 10.5001H144.429C142.571 10.5001 141.786 11.0001 141.786 11.7144V17.4287C141.786 18.0715 141.429 18.2144 140.714 18.2144C140 18.2144 139.714 18.0001 139.714 17.4287Z" fill="#343739"/>
<path d="M17.4286 37.6426H16.0715L15.5001 36.214H13.0715L12.5715 37.6426H11.2858L13.7143 31.4997H15.0001L17.4286 37.6426ZM15.1429 35.1426L14.2858 32.8568L13.4286 35.1426H15.1429Z" fill="#343739"/>
<path d="M18.9286 37.6426V31.4997H20.1429L22.6429 35.5711V31.4997H23.7857V37.6426H22.5714L20.0714 33.6426V37.6426H18.9286Z" fill="#343739"/>
<path d="M34.4286 37.6426H33.0715L32.5001 36.214H30.0715L29.5715 37.6426H28.2858L30.6429 31.4997H31.9286L34.4286 37.6426ZM32.1429 35.1426L31.2858 32.8568L30.4286 35.1426H32.1429Z" fill="#343739"/>
<path d="M35.9287 37.6426V31.4997H37.9287C38.643 31.4997 39.143 31.4997 39.4287 31.5711C39.7859 31.6426 40.0716 31.8568 40.2859 32.1426C40.5001 32.4283 40.643 32.8568 40.643 33.3568C40.643 33.714 40.5716 34.0711 40.4287 34.2854C40.2859 34.5711 40.143 34.714 39.9287 34.8568C39.7144 34.9997 39.5001 35.0711 39.2859 35.1426C39.0001 35.214 38.5716 35.214 38.0001 35.214H37.2144V37.4997H35.9287V37.6426ZM37.2144 32.4997V34.2854H37.9287C38.4287 34.2854 38.7144 34.2854 38.9287 34.214C39.143 34.1426 39.2144 34.0711 39.2859 33.9283C39.3573 33.7854 39.4287 33.6426 39.4287 33.4283C39.4287 33.214 39.3573 32.9997 39.2144 32.8568C39.0716 32.714 38.9287 32.6426 38.7144 32.5711C38.5716 32.5711 38.2859 32.4997 37.8573 32.4997H37.2144Z" fill="#343739"/>
<path d="M42.5 37.6426V31.4997H44.5C45.2143 31.4997 45.7143 31.4997 46 31.5711C46.3571 31.6426 46.6429 31.8568 46.8571 32.1426C47.0714 32.4283 47.2143 32.8568 47.2143 33.3568C47.2143 33.714 47.1429 34.0711 47 34.2854C46.8571 34.4997 46.7143 34.714 46.5 34.8568C46.2857 34.9997 46.0714 35.0711 45.8571 35.1426C45.5714 35.214 45.1429 35.214 44.5714 35.214H43.7857V37.4997C43.7857 37.6426 42.5 37.6426 42.5 37.6426ZM43.7857 32.4997V34.2854H44.5C45 34.2854 45.2857 34.2854 45.5 34.214C45.7143 34.1426 45.7857 34.0711 45.8571 33.9283C45.9286 33.7854 45.9286 33.5711 45.9286 33.3568C45.9286 33.1426 45.8571 32.9283 45.7143 32.7854C45.5714 32.6426 45.4286 32.5711 45.2143 32.4997C45.0714 32.4997 44.7857 32.4283 44.3571 32.4283L43.7857 32.4997Z" fill="#343739"/>
<path d="M49.1429 37.6428V31.5714H50.3572V36.6428H53.4287V37.7143H49.1429V37.6428Z" fill="#343739"/>
<path d="M55.1429 37.6426V31.4997H56.3572V37.6426H55.1429Z" fill="#343739"/>
<path d="M58.4286 37.6426V31.4997H63V32.5711H59.7143V33.9283H62.7857V34.9997H59.7143V36.6426H63.1429V37.714L58.4286 37.6426Z" fill="#343739"/>
<path d="M65.0001 31.4997H67.2858C67.7858 31.4997 68.2144 31.4997 68.4287 31.6426C68.7858 31.7854 69.0716 31.9283 69.3573 32.214C69.643 32.4997 69.7858 32.7854 69.9287 33.214C70.0716 33.6426 70.143 34.0711 70.143 34.6426C70.143 35.1426 70.0716 35.5711 69.9287 35.9283C69.7858 36.3568 69.5716 36.714 69.2858 36.9997C69.0716 37.214 68.7858 37.3568 68.4287 37.4997C68.143 37.5711 67.7858 37.6426 67.3573 37.6426H65.0001V31.4997ZM66.2144 32.4997V36.5711H67.143C67.5001 36.5711 67.7144 36.5711 67.9287 36.4997C68.143 36.4283 68.2858 36.3568 68.4287 36.214C68.5716 36.0711 68.643 35.9283 68.7144 35.6426C68.7858 35.3568 68.8573 34.9997 68.8573 34.4997C68.8573 33.9997 68.7858 33.6426 68.7144 33.4283C68.643 33.214 68.5001 32.9997 68.3573 32.8568C68.2144 32.714 68.0001 32.6426 67.7858 32.5711C67.643 32.5711 67.2858 32.4997 66.7858 32.4997H66.2144Z" fill="#343739"/>
<path d="M75.2856 37.6426V31.4997H77.1428L78.2856 35.714L79.3571 31.4997H81.2142V37.6426H80.0714V32.7854L78.8571 37.6426H77.6428L76.4285 32.7854V37.6426H75.2856Z" fill="#343739"/>
<path d="M88.8572 37.6426H87.5001L86.9286 36.214H84.5001L84.0001 37.6426H82.7144L85.0715 31.4997H86.3572L88.8572 37.6426ZM86.5715 35.1426L85.7144 32.8568L84.8572 35.1426H86.5715Z" fill="#343739"/>
<path d="M91.0715 37.6426V32.5711H89.2144V31.4997H94.0715V32.5711H92.2858V37.6426H91.0715Z" fill="#343739"/>
<path d="M95.7858 37.6426V31.4997H100.357V32.5711H97.0715V33.9283H100.143V34.9997H97.0715V36.6426H100.5V37.714L95.7858 37.6426Z" fill="#343739"/>
<path d="M102.357 37.6426V31.4997H104.929C105.571 31.4997 106.071 31.5711 106.357 31.6426C106.643 31.714 106.929 31.9283 107.071 32.214C107.214 32.4997 107.357 32.7854 107.357 33.1426C107.357 33.5711 107.214 33.9997 106.929 34.2854C106.643 34.5711 106.286 34.7854 105.714 34.8568C106 34.9997 106.214 35.214 106.357 35.3568C106.5 35.5711 106.786 35.8568 107.071 36.3568L107.857 37.5711H106.357L105.5 36.214C105.214 35.714 104.929 35.4283 104.857 35.2854C104.786 35.1426 104.643 35.0711 104.5 34.9997C104.357 34.9283 104.143 34.9283 103.857 34.9283H103.571V37.4997L102.357 37.6426ZM103.643 34.0711H104.571C105.143 34.0711 105.571 34.0711 105.714 33.9997C105.857 33.9283 106 33.8568 106.071 33.714C106.143 33.5711 106.214 33.4283 106.214 33.2854C106.214 33.0711 106.143 32.9283 106.071 32.7854C106 32.6426 105.786 32.5711 105.643 32.5711C105.571 32.5711 105.214 32.5711 104.714 32.5711H103.714L103.643 34.0711Z" fill="#343739"/>
<path d="M109.357 37.6426V31.4997H110.572V37.6426H109.357Z" fill="#343739"/>
<path d="M118.214 37.6426H116.857L116.286 36.214H113.857L113.357 37.6426H112.071L114.5 31.4997H115.786L118.214 37.6426ZM115.929 35.1426L115.071 32.8568L114.214 35.1426H115.929Z" fill="#343739"/>
<path d="M119.714 37.6428V31.5714H120.929V36.6428H124V37.7143H119.714V37.6428Z" fill="#343739"/>
<path d="M125.5 35.6426L126.714 35.4998C126.786 35.9283 126.929 36.2141 127.143 36.3569C127.357 36.4998 127.643 36.6426 128.072 36.6426C128.5 36.6426 128.786 36.5712 129 36.4283C129.214 36.2855 129.286 36.0712 129.286 35.8569C129.286 35.7141 129.214 35.5712 129.143 35.4998C129.072 35.4283 128.929 35.2855 128.714 35.2141C128.572 35.1426 128.214 35.0712 127.714 34.9283C127.072 34.7855 126.572 34.5712 126.286 34.3569C125.929 33.9998 125.714 33.6426 125.714 33.1426C125.714 32.8569 125.786 32.5712 126 32.2855C126.214 31.9998 126.429 31.7855 126.786 31.6426C127.143 31.4998 127.5 31.4283 128 31.4283C128.786 31.4283 129.357 31.5712 129.714 31.9283C130.072 32.2855 130.286 32.7141 130.357 33.2855L129.143 33.3569C129.072 33.0712 129 32.7855 128.786 32.6426C128.643 32.4998 128.357 32.4283 128 32.4283C127.643 32.4283 127.357 32.4998 127.143 32.6426C127 32.7141 126.929 32.8569 126.929 32.9998C126.929 33.1426 127 33.2855 127.143 33.3569C127.286 33.4998 127.714 33.6426 128.286 33.7855C128.857 33.9283 129.357 34.0712 129.643 34.2141C129.929 34.3569 130.143 34.5712 130.286 34.8569C130.429 35.1426 130.5 35.4283 130.5 35.8569C130.5 36.2141 130.429 36.5712 130.214 36.8569C130 37.1426 129.714 37.4283 129.357 37.5712C129 37.7141 128.572 37.7855 128 37.7855C127.214 37.7855 126.643 37.6426 126.214 37.2141C125.786 36.7855 125.572 36.2855 125.5 35.6426Z" fill="#343739"/>
<path d="M15.7858 45.6425L17.0001 45.9997C16.7858 46.6425 16.5001 47.1425 16.0715 47.4997C15.6429 47.8568 15.0715 47.9997 14.4287 47.9997C13.6429 47.9997 12.9287 47.7139 12.4287 47.1425C11.9287 46.5711 11.6429 45.8568 11.6429 44.8568C11.6429 43.8568 11.9287 43.0711 12.4287 42.4997C12.9287 41.9282 13.6429 41.6425 14.5001 41.6425C15.2144 41.6425 15.8572 41.8568 16.3572 42.2854C16.6429 42.5711 16.8572 42.9282 17.0001 43.4282L15.7858 43.7139C15.7144 43.3568 15.5715 43.1425 15.3572 42.9997C15.1429 42.7854 14.8572 42.7139 14.5001 42.7139C14.0715 42.7139 13.7144 42.8568 13.4287 43.2139C13.1429 43.5711 13.0001 44.0711 13.0001 44.7854C13.0001 45.5711 13.1429 46.1425 13.4287 46.4282C13.7144 46.7139 14.0715 46.9282 14.5001 46.9282C14.8572 46.9282 15.1429 46.7854 15.3572 46.6425C15.5715 46.4997 15.7144 46.0711 15.7858 45.6425Z" fill="#343739"/>
<path d="M18.7144 44.8568C18.7144 44.2139 18.7858 43.7139 19.0001 43.2854C19.1429 42.9997 19.3572 42.7139 19.5715 42.4282C19.7858 42.1425 20.0715 41.9997 20.3572 41.8568C20.7144 41.7139 21.1429 41.6425 21.7144 41.6425C22.6429 41.6425 23.3572 41.9282 23.8572 42.4997C24.3572 43.0711 24.6429 43.8568 24.6429 44.8568C24.6429 45.8568 24.3572 46.6425 23.8572 47.1425C23.3572 47.6425 22.5715 47.9997 21.7144 47.9997C20.8572 47.9997 20.0715 47.7139 19.5715 47.1425C19.0715 46.5711 18.7144 45.8568 18.7144 44.8568ZM20.0001 44.8568C20.0001 45.5711 20.1429 46.0711 20.5001 46.4282C20.8572 46.7854 21.2144 46.9997 21.7144 46.9997C22.2144 46.9997 22.6429 46.8568 22.9286 46.4282C23.2144 46.0711 23.4286 45.5711 23.4286 44.8568C23.4286 44.1425 23.2858 43.6425 23.0001 43.2854C22.7144 42.9282 22.2858 42.7854 21.7858 42.7854C21.2858 42.7854 20.8572 42.9282 20.5715 43.2854C20.2858 43.6425 19.9286 44.1425 20.0001 44.8568Z" fill="#343739"/>
<path d="M26.4286 47.9284V41.7856H28.2857L29.4286 45.9999L30.5 41.7856H32.3572V47.9284H31.2143V43.0713L30 47.9284H28.7857L27.5714 43.0713V47.9284H26.4286Z" fill="#343739"/>
<path d="M34.4287 47.9284V41.7856H36.4287C37.143 41.7856 37.643 41.7856 37.9287 41.857C38.2859 41.9284 38.5716 42.1427 38.7859 42.4284C39.0001 42.7142 39.143 43.1427 39.143 43.6427C39.143 43.9999 39.0716 44.357 38.9287 44.5713C38.7859 44.857 38.643 44.9999 38.4287 45.1427C38.2144 45.2856 38.0001 45.357 37.7859 45.4284C37.5001 45.4999 37.0716 45.4999 36.5001 45.4999H35.7144V47.7856H34.4287V47.9284ZM35.7144 42.7856V44.4999H36.4287C36.9287 44.4999 37.2144 44.4999 37.4287 44.4284C37.643 44.357 37.7144 44.2856 37.7859 44.1427C37.8573 43.9999 37.9287 43.857 37.9287 43.6427C37.9287 43.4284 37.8573 43.2142 37.7144 43.0713C37.5716 42.9284 37.3573 42.857 37.2144 42.857C37.0716 42.857 36.7859 42.7856 36.3573 42.7856H35.7144Z" fill="#343739"/>
<path d="M45.9286 47.9284H44.5715L44.0001 46.5713H41.5715L41.0715 47.9284H39.7858L42.1429 41.7856H43.4286L45.9286 47.9284ZM43.6429 45.4999L42.7858 43.2142L41.9286 45.4999H43.6429Z" fill="#343739"/>
<path d="M47.4286 47.9284V41.7856H48.6429L51.1429 45.857V41.7856H52.3572V47.9284H51.1429L48.6429 43.9284V47.9284H47.4286Z" fill="#343739"/>
<path d="M56.0715 47.9284V45.357L53.7858 41.7856H55.2143L56.6429 44.2142L58.0715 41.7856H59.5001L57.2143 45.357V47.9284H56.0715Z" fill="#343739"/>
</g>
<defs>
<linearGradient id="paint0_linear_1555_788" x1="0.214355" y1="12.175" x2="74.5429" y2="12.175" gradientUnits="userSpaceOnUse">
<stop stop-color="#FCBA63"/>
<stop offset="0.11" stop-color="#F89655"/>
<stop offset="0.31" stop-color="#F1593E"/>
<stop offset="0.41" stop-color="#EF4136"/>
<stop offset="0.58" stop-color="#E34C8F"/>
<stop offset="0.67" stop-color="#E25695"/>
<stop offset="0.82" stop-color="#E071A8"/>
<stop offset="1" stop-color="#DD9DC6"/>
</linearGradient>
<clipPath id="clip0_1555_788">
<rect width="159.786" height="48" fill="white" transform="translate(0.214355)"/>
</clipPath>
</defs>
</svg>
