<svg width="126" height="44" viewBox="0 0 126 44" fill="none" xmlns="http://www.w3.org/2000/svg">
<g clip-path="url(#clip0_1597_299)">
<path d="M54.2885 19.274C53.1213 20.107 52.5793 21.1477 52.5793 22.439C52.5793 23.4387 52.8292 24.2295 53.3297 24.8962C53.8296 25.5208 54.6638 26.0622 55.831 26.4368C56.3315 26.6037 56.8735 26.7705 57.4572 26.8536L59.1664 27.2282C59.7085 27.3951 60.1253 27.5613 60.4168 27.8112C60.7089 28.1027 60.8757 28.4364 60.8757 28.811C60.8757 29.1856 60.7504 29.5187 60.542 29.7271C60.3337 29.9355 60.0837 30.1023 59.7916 30.227C59.5417 30.3101 59.208 30.3938 58.8328 30.4353L57.957 30.4769C57.0398 30.4769 56.1231 30.3101 55.1637 29.977C54.247 29.644 53.3713 29.1856 52.6208 28.5611H52.4955V31.726C53.2044 32.0175 53.9964 32.2675 54.7884 32.4758C55.6642 32.6842 56.7067 32.7673 57.8739 32.7673C59.8753 32.7673 61.4593 32.3512 62.6272 31.4767C63.7516 30.6016 64.3383 29.5187 64.3383 28.1449C64.3383 27.1867 64.0877 26.3953 63.5866 25.7707C63.1283 25.1877 62.3338 24.6878 61.2925 24.3548C60.7504 24.188 60.2084 24.0217 59.75 23.938L58.2492 23.605C57.415 23.4387 56.8735 23.2303 56.5399 23.022C56.2062 22.772 56.0394 22.3974 56.0394 21.9391C56.0394 21.6476 56.1647 21.3561 56.373 21.1061C56.5399 20.8983 56.7898 20.7315 57.0819 20.6062C57.3734 20.4816 57.6655 20.3985 57.9992 20.3569C58.2907 20.3147 58.6244 20.2732 58.9159 20.2732C59.7916 20.2732 60.7089 20.44 61.5455 20.7731C62.3338 21.1061 63.0427 21.5229 63.6294 21.9806H63.7516V18.9403C63.1283 18.691 62.3766 18.4826 61.5455 18.3158C60.6252 18.1074 59.7085 18.0243 58.7912 18.0243C56.9567 18.0243 55.4558 18.4411 54.2885 19.274Z" fill="#B60307"/>
<path d="M67.3145 17.4135V19.4136H70.4495V17.4135H67.3145ZM67.4 21.9137V32.5385H70.3211V21.9137H67.4Z" fill="#B60307"/>
<path d="M74.4951 17.6426V32.5384H77.5507V17.6426H74.4951Z" fill="#B60307"/>
<path d="M81.6022 17.4135V19.4136H84.7311V17.4135H81.6022ZM81.7245 21.9137V32.5385H84.6456V21.9137H81.7245Z" fill="#B60307"/>
<path d="M91.8324 21.9478C91.0868 22.1556 90.4207 22.488 89.8829 22.9457C89.3024 23.4035 88.844 23.9852 88.514 24.6923C88.184 25.4409 88.019 26.3142 88.019 27.2712C88.019 28.2276 88.184 29.0593 88.4713 29.7664C88.8074 30.4734 89.2168 31.0558 89.7607 31.5129C90.2985 31.9706 90.9585 32.3031 91.704 32.5115C92.4557 32.7608 93.3235 32.8439 94.234 32.8439C94.9429 32.8439 95.5601 32.7608 96.1407 32.6361C96.6846 32.5115 97.2224 32.3031 97.7174 32.0537V29.3924H97.4668C97.3874 29.4755 97.094 29.7664 97.094 29.7664C96.8863 29.9326 96.7213 30.0572 96.4768 30.2241C96.2263 30.3487 95.9329 30.4734 95.5601 30.5981C95.1874 30.6812 94.7718 30.7227 94.3196 30.7227C93.3235 30.7227 92.5779 30.4319 92.0402 29.8495C91.4963 29.2671 91.209 28.3938 91.209 27.2712C91.209 26.2311 91.4596 25.3578 91.9974 24.7339C92.5351 24.0684 93.2807 23.7359 94.2768 23.7359C94.6924 23.7359 95.1079 23.7775 95.4379 23.9021C95.7252 23.9852 96.0613 24.1105 96.3057 24.2767C96.599 24.443 96.8496 24.5676 97.0574 24.7339C97.0574 24.7339 97.3446 25.0254 97.4668 25.1085H97.7174V22.4465C97.2224 22.1971 96.6846 22.0309 96.104 21.8647C95.5235 21.6979 94.8574 21.6147 94.1118 21.6147C93.3235 21.6147 92.5351 21.7394 91.8324 21.9478Z" fill="#B60307"/>
<path d="M101.818 23.1169C100.816 24.1179 100.314 25.4947 100.314 27.2467C100.314 28.9988 100.816 30.4172 101.818 31.4188C102.814 32.4198 104.232 32.9203 106.022 32.9203C107.856 32.9203 109.273 32.4198 110.276 31.4188C111.272 30.4172 111.773 28.9988 111.773 27.2467C111.773 25.4947 111.272 24.1179 110.276 23.1169C109.273 22.1152 107.856 21.6147 106.022 21.6147C104.232 21.6147 102.814 22.1152 101.818 23.1169ZM104.189 30.042C103.981 29.7499 103.773 29.3746 103.688 28.9157C103.566 28.4567 103.523 27.9141 103.523 27.2883C103.523 26.5794 103.566 25.9952 103.688 25.5362C103.816 25.0773 104.024 24.7021 104.232 24.41C104.525 24.1179 104.776 23.9095 105.063 23.7842C105.356 23.7005 105.692 23.6589 106.022 23.6589C106.401 23.6589 106.731 23.7005 107.024 23.8257C107.354 23.951 107.648 24.1594 107.856 24.4515C108.106 24.7436 108.271 25.1189 108.399 25.5778C108.522 26.0367 108.564 26.621 108.564 27.2883C108.564 27.9978 108.522 28.582 108.399 28.9988C108.271 29.4162 108.106 29.7914 107.856 30.0835C107.648 30.3756 107.354 30.584 107.024 30.7093C106.731 30.8346 106.401 30.8761 106.065 30.8761C105.692 30.8761 105.313 30.793 105.026 30.6677C104.69 30.5425 104.397 30.3341 104.189 30.042Z" fill="#B60307"/>
<path d="M120.188 21.9887C119.644 22.2381 119.063 22.6115 118.44 23.1101L118.104 23.3595V21.9472H114.981V32.5384H118.104V24.8133L118.232 24.7717C118.605 24.5224 118.978 24.3562 119.314 24.2315C119.644 24.1484 120.023 24.0653 120.353 24.0653C120.811 24.0653 121.184 24.1484 121.477 24.2731C121.771 24.3977 121.978 24.6055 122.143 24.8958C122.272 25.1036 122.351 25.4776 122.394 25.9347C122.437 26.3912 122.437 26.8483 122.437 27.2639V32.5384H125.602V25.5607C125.602 24.2731 125.266 23.2348 124.643 22.6115C124.019 21.9472 123.146 21.6147 122.021 21.6147C121.355 21.6147 120.726 21.7394 120.188 21.9887Z" fill="#B60307"/>
<path d="M48.4469 24.0994C48.4469 10.8353 37.6957 0.072998 24.4437 0.072998C11.1502 0.072998 0.398499 10.8353 0.398499 24.0994C0.398499 32.3586 4.60743 39.6586 10.9418 43.9967C37.9041 43.9967 37.9041 43.9967 37.9041 43.9967C44.2798 39.6586 48.4469 32.3586 48.4469 24.0994Z" fill="#B91219"/>
<path d="M31.1068 28.1598H23.4404C23.5235 28.9927 23.815 29.6173 24.3986 30.075C24.9401 30.4918 25.8152 30.7411 26.8987 30.7411C27.607 30.7411 28.3153 30.6164 28.982 30.3249C29.6071 30.075 30.1486 29.825 30.5238 29.5335H30.8984V32.1986C30.1486 32.4901 29.4403 32.74 28.7736 32.8647C28.1069 32.99 27.357 33.0731 26.565 33.0731C24.4818 33.0731 22.8984 32.6154 21.7739 31.6571C20.6904 30.6995 20.1068 29.3673 20.1068 27.6183C20.1068 25.9109 20.6489 24.5371 21.6902 23.5373C22.7321 22.5381 24.1903 21.9967 26.0236 21.9967C27.6901 21.9967 28.982 22.455 29.8155 23.2874C30.69 24.1619 31.1068 25.4116 31.1068 26.9938V28.1598ZM27.7738 26.2024C27.7323 25.5363 27.5654 24.9948 27.2318 24.6618C26.9403 24.2871 26.3988 24.1203 25.7321 24.1203C25.0654 24.1203 24.5655 24.2871 24.1487 24.6202C23.7319 24.9533 23.482 25.4947 23.4404 26.2024H27.7738Z" fill="#FBF9FA"/>
<path d="M40.1205 25.5259H39.8284C39.661 25.4837 39.452 25.4421 39.1177 25.4C38.8256 25.4 38.5329 25.3584 38.3239 25.3584C37.8643 25.3584 37.4469 25.4 37.0705 25.4837C36.6947 25.5259 36.3188 25.6511 35.9008 25.777V32.7675H32.558V22.3022H35.9008V23.8514C36.6531 23.2232 37.2795 22.8046 37.8228 22.5956C38.366 22.386 38.8672 22.3022 39.3267 22.3022H39.7447C39.87 22.3022 39.9953 22.3022 40.1205 22.3444V25.5259Z" fill="#FBF9FA"/>
<path d="M44.5512 20.6981H41.0373V18.3301H44.5512V20.6981ZM44.4748 32.7676H41.1137V22.3023H44.4748V32.7676Z" fill="#FBF9FA"/>
<path d="M4.3914 17.1308L12.5896 35.1354H13.6719L26.5309 10.1287C26.5309 10.1287 26.9055 9.08679 24.7 9.08679C23.4099 9.08679 23.1184 9.6704 23.1184 9.6704L12.8395 26.8414L8.51164 17.1308C8.51164 17.1308 7.97019 15.8805 5.97284 15.8805C4.14176 15.8805 4.3914 17.1308 4.3914 17.1308Z" fill="white"/>
</g>
<defs>
<clipPath id="clip0_1597_299">
<rect width="125.278" height="44" fill="white" transform="translate(0.361084)"/>
</clipPath>
</defs>
</svg>
