<svg width="135" height="28" viewBox="0 0 135 28" fill="none" xmlns="http://www.w3.org/2000/svg">
<path d="M14.0022 0H0.609863V13.2714H14.0022V0Z" fill="#0078D4"/>
<path fill-rule="evenodd" clip-rule="evenodd" d="M89.4553 22.3353V20.7888H89.4074C88.5298 22.2515 86.7384 22.5887 85.4894 22.5887C81.7773 22.5887 80.4151 19.7312 80.4151 16.6903C80.4151 14.6742 80.9217 13.0613 81.935 11.8516C82.9563 10.634 84.3205 10.107 86.028 10.107C88.6859 10.107 89.4075 11.5724 89.4075 11.5724H89.4554V4.61997H92.323V22.3354L89.4553 22.3353ZM89.4792 15.4897C89.4792 14.0385 88.5382 12.3897 86.5519 12.3897C84.2797 12.3897 83.3967 14.3491 83.3967 16.6075C83.3967 18.5791 84.2299 20.3686 86.3937 20.3983C88.5154 20.3983 89.462 18.3944 89.4792 16.7379V15.4897Z" fill="#0078D4"/>
<path d="M65.0239 6.88471C65.0239 7.33538 64.8564 7.71092 64.5213 8.01138C64.1942 8.31183 63.7953 8.46205 63.3246 8.46205C62.8538 8.46205 62.4549 8.31181 62.1278 8.01138C61.8007 7.71094 61.6371 7.33538 61.6371 6.88471C61.6371 6.42615 61.8007 6.04271 62.1278 5.73432C62.4629 5.42597 62.8618 5.27179 63.3246 5.27179C63.8112 5.27179 64.2142 5.42994 64.5333 5.74617C64.8604 6.06244 65.0239 6.44197 65.0239 6.88471Z" fill="#0078D4"/>
<path d="M61.8696 22.3348V10.3213H64.6959V22.3348H61.8696Z" fill="#0078D4"/>
<path d="M55.9934 22.3353H52.5066L49.1066 9.51026L45.6691 22.3353H42.1052L37.4303 5.66527H40.593L43.9642 18.9251L47.6446 5.66527H50.839L54.2984 19.0038L57.5002 5.66527H60.5539L55.9934 22.3353Z" fill="#0078D4"/>
<path d="M75.5732 15.6465V22.3353L78.4171 22.3348V15.0061C78.4171 13.3299 78.1018 12.0807 77.3838 11.2585C76.6737 10.4362 75.6684 10.119 74.368 10.119C72.6367 10.119 71.3122 10.6133 70.3947 12.0209H70.3468V10.3216H67.5823V22.335H70.3468V15.5635C70.3468 13.9637 71.4707 12.3822 73.243 12.3822C75.0246 12.3822 75.5732 13.894 75.5732 15.6465Z" fill="#0078D4"/>
<path fill-rule="evenodd" clip-rule="evenodd" d="M100.511 22.6909C104.28 22.6909 106.789 20.4367 106.789 16.2755C106.789 12.3718 104.458 10.0611 100.81 10.0611C96.8293 10.0611 94.312 12.2767 94.312 16.5362C94.312 20.2596 96.4128 22.6909 100.511 22.6909ZM100.654 12.461C103.183 12.461 103.845 14.519 103.845 16.3703C103.828 18.5296 103.014 20.3372 100.637 20.3372C98.4188 20.3372 97.2871 18.8227 97.2871 16.4415C97.2871 14.2496 98.2293 12.461 100.654 12.461Z" fill="#0078D4"/>
<path d="M121.958 22.3353H118.839L116.455 13.6407L113.897 22.3353H110.87L107.343 10.3586H110.303L112.606 19.6632L115.298 10.3586H118.074L120.474 19.6391L122.719 10.3586H125.432L121.958 22.3353Z" fill="#0078D4"/>
<path d="M129.409 22.7083C131.862 22.7083 134.31 21.6659 134.31 18.9912C134.31 18.0338 134.105 17.4686 133.635 16.9073C133.164 16.3459 132.323 15.8564 131.174 15.3978L131.156 15.3904C130.365 15.0733 129.064 14.5519 129.071 13.491C129.084 12.6614 129.853 12.2949 130.869 12.2949C132.287 12.3034 133.652 13.238 133.652 13.238V10.5354C133.652 10.5354 132.819 10.0687 130.899 10.0687C127.994 10.0687 126.176 11.5947 126.176 13.7545C126.176 14.3237 126.311 14.7929 126.495 15.2198C126.686 15.6468 126.974 16.0184 127.357 16.3346C127.747 16.6509 128.342 16.979 129.14 17.319C129.818 17.5957 130.317 17.8289 130.636 18.0187C131.1 18.28 131.488 18.6286 131.456 19.2608C131.456 20.0488 130.859 20.4627 129.535 20.4627C127.603 20.4478 126.22 19.2535 126.22 19.2535V22.0984C126.22 22.0984 127.811 22.7083 129.409 22.7083Z" fill="#0078D4"/>
<path d="M15.4715 0H28.8638V13.2714H15.4715V0Z" fill="#0078D4"/>
<path d="M14.0022 14.7286H0.609863V28H14.0022V14.7286Z" fill="#0078D4"/>
<path d="M15.4715 14.7286H28.8638V28H15.4715V14.7286Z" fill="#0078D4"/>
</svg>
