<svg fill="none" height="48" viewBox="0 0 49 48" width="49" xmlns="http://www.w3.org/2000/svg">
  <path
    d="m20.2217.146447c-5.9552.272711-9.5508 1.203133-12.61669 3.256493-2.18305 1.44377-3.78823 3.32066-4.94396 5.7911-1.26809 2.71106-1.829902 5.69486-2.070679 11.24536-.288932 6.2082.128415 12.4003 1.059419 15.6889.83469 2.9838 2.16699 5.2617 4.20557 7.1707 2.52013 2.3421 5.34524 3.5773 9.72744 4.235 4.0129.5936 13.3069.6257 17.368.0642 4.944-.6738 8.0901-2.0694 10.6744-4.7484 1.2842-1.3154 1.8781-2.1817 2.7128-3.9302 1.3002-2.7432 1.8299-5.5826 2.0867-11.2614.1927-4.0586 0-9.8336-.4013-12.5287-.947-6.32046-3.6437-10.42717-8.3469-12.80136-2.488-1.23522-6.1478-1.957107-11.2363-2.197735-3.8363-.1764599-4.35-.1764599-8.2185.016042zm5.9231 14.950953c2.1189.4973 3.1462 1.2032 3.8204 2.6469.6902 1.4759.8026 2.6951.8026 9.3524v6.2564l-2.2794-.0482-2.2954-.0481-.0803-6.0959c-.0802-6.6574-.1123-6.8659-1.0433-7.5878-.8347-.6577-1.541-.7379-6.0997-.754h-4.334l-.0803 7.2189-.0802 7.2188h-4.49453l-.04815-9.1278c-.0321-7.2028.01605-9.1759.16048-9.2722.1124-.0802 3.5314-.1123 7.5925-.0802 5.9553.0642 7.5925.1283 8.4593.3208zm12.6168-.0962c.1123.2246.1605 17.6621.0481 18.2235 0 .0642-1.0434.0963-2.2954.0802l-2.2954-.0481-.0482-9.0476c-.016-6.5451.0161-9.1118.1445-9.2561.1445-.1765.7063-.2246 2.2473-.2246 1.7978 0 2.0706.0321 2.1991.2727zm-16.0197 12.641v5.7109l-2.3597-.0482-2.3756-.0481-.0482-5.4542c-.016-2.9998 0-5.5505.0482-5.6468.0481-.1604.6741-.2085 2.4077-.2085h2.3276z"
    fill="#ff6900" />
</svg>
