<svg width="96" height="48" viewBox="0 0 96 48" fill="none" xmlns="http://www.w3.org/2000/svg">
<path d="M29.3258 25.5645L22.1514 28.5936L28.2513 31.6743L29.3258 25.5645Z" fill="#7929D2"/>
<path d="M13.836 29.5789L6.18333 26.7139L7.95761 32.7304L13.836 29.5789Z" fill="#9454DB"/>
<path d="M17.4648 24.1937L22.1514 28.5936L13.836 29.5789L17.4648 24.1937Z" fill="#AF7FE4"/>
<path d="M7.10724 20.0598L6.18333 26.7139L0.398865 20.9405L7.10724 20.0598Z" fill="#AF7FE4"/>
<path d="M29.3258 25.5645L48.2118 8.18983L56.7019 19.4396L29.3258 25.5645Z" fill="url(#paint0_linear_781_297)"/>
<path d="M29.3258 25.5645L37.3927 0L48.2118 8.18983L29.3258 25.5645Z" fill="url(#paint1_linear_781_297)"/>
<path d="M37.3927 0H56.7019L48.2118 8.18983L37.3927 0Z" fill="url(#paint2_linear_781_297)"/>
<path d="M56.7019 19.4396L56.7019 0L48.2118 8.18983L56.7019 19.4396Z" fill="url(#paint3_linear_781_297)"/>
<path d="M37.303 44.6081V42.5655L42.7527 34.9445H37.5605V32.7303H45.6449V34.6785L40.1437 42.3939H45.7908V44.6081L37.303 44.6081Z" fill="black"/>
<path d="M49.1618 40.686C49.2018 41.4871 49.3963 42.0621 49.7454 42.4111C50.0943 42.7601 50.6436 42.9346 51.3932 42.9346C51.7813 42.9414 52.1681 42.8864 52.5389 42.7715C52.882 42.6526 53.1822 42.4346 53.4014 42.145L55.0492 43.3208C54.6991 43.8328 54.2132 44.237 53.646 44.4879C53.071 44.7454 52.2857 44.8741 51.2902 44.8741C49.8082 44.8741 48.7025 44.4851 47.9732 43.707C47.2437 42.9289 46.8789 41.7532 46.8789 40.1797C46.8789 36.9585 48.3207 35.3479 51.2044 35.3479C52.4858 35.3479 53.4628 35.7098 54.1352 36.4335C54.8073 37.1574 55.1434 38.2116 55.1436 39.5961V40.686L49.1618 40.686ZM52.9465 39.1584C52.9465 37.791 52.3486 37.1073 51.1529 37.1073C50.818 37.0942 50.485 37.1635 50.1831 37.3089C49.9278 37.4468 49.7177 37.6554 49.578 37.9097C49.3883 38.3023 49.2679 38.7248 49.2219 39.1584H52.9465Z" fill="black"/>
<path d="M65.1059 40.0425C65.1225 40.915 64.974 41.7827 64.6682 42.6C64.4245 43.2738 63.989 43.8615 63.4152 44.2907C62.8447 44.688 62.1621 44.8925 61.4671 44.8743C60.5297 44.8958 59.619 44.5615 58.9181 43.9388V47.9982H56.7039V35.6055H58.7465V36.4895C59.1368 36.1487 59.5748 35.8668 60.0467 35.6527C60.5414 35.4417 61.0752 35.3378 61.6129 35.3481C62.7514 35.3481 63.6182 35.7486 64.2134 36.5496C64.8082 37.3506 65.1058 38.5149 65.1059 40.0425ZM62.8231 40.0768C62.8231 39.2014 62.6714 38.5192 62.3682 38.03C62.2304 37.7959 62.0312 37.6038 61.7923 37.4745C61.5533 37.3452 61.2836 37.2835 61.0122 37.2962C60.6281 37.3015 60.2494 37.3878 59.9008 37.5494C59.5427 37.704 59.2111 37.914 58.9182 38.1716V42.1108C59.1794 42.3399 59.4729 42.5293 59.7893 42.6729C60.1227 42.8331 60.4878 42.9167 60.8577 42.9175C61.1441 42.9239 61.4273 42.8556 61.6793 42.7194C61.9313 42.5833 62.1436 42.3839 62.2953 42.1409C62.6747 41.5215 62.8586 40.8022 62.8231 40.0768Z" fill="black"/>
<path d="M72.5105 44.6081V39.6476C72.5105 38.6979 72.4218 38.0685 72.2445 37.7595C72.1461 37.6018 72.0055 37.4748 71.8386 37.3929C71.6718 37.311 71.4854 37.2775 71.3004 37.2961C70.6423 37.2961 69.8499 37.7309 68.9232 38.6006V44.6081H66.709V31.8292H68.9232V36.7725C69.3551 36.3296 69.864 35.969 70.4251 35.7084C70.9139 35.4779 71.4466 35.355 71.987 35.3479C72.9938 35.3479 73.7019 35.6311 74.1111 36.1975C74.5201 36.764 74.7247 37.565 74.7247 38.6006V44.6081H72.5105Z" fill="black"/>
<path d="M75.7702 45.8182C76.1855 45.9719 76.6234 46.056 77.0661 46.0671C77.384 46.0718 77.6935 45.9656 77.9415 45.7667C78.1931 45.5664 78.4534 45.1515 78.7225 44.5223L78.9542 43.9902L75.7016 35.6054H78.0016L80.13 41.3554L82.3098 35.6054H84.5584L80.6878 45.226C80.4612 45.8372 80.1522 46.4147 79.7695 46.9424C79.4961 47.2956 79.1373 47.5732 78.7268 47.7492C78.2486 47.9292 77.7399 48.0137 77.2292 47.998C76.577 47.9981 75.9276 47.9115 75.2982 47.7406L75.7702 45.8182Z" fill="black"/>
<path d="M91.019 37.7681C90.7328 37.6422 90.4216 37.5835 90.1092 37.5965C89.7001 37.5958 89.2974 37.6976 88.9378 37.8926C88.5206 38.1261 88.1379 38.4163 87.8006 38.7551V44.6081H85.5864V35.6054H87.8006V36.8928C88.1579 36.4978 88.568 36.1541 89.0193 35.8715C89.4576 35.6016 89.9636 35.4617 90.4783 35.4681C90.8145 35.443 91.1515 35.5051 91.4566 35.6483L91.019 37.7681Z" fill="black"/>
<path d="M94.0975 35.0448H93.8884V35.5251H93.603V34.1847H94.2301C94.2888 34.18 94.3479 34.1879 94.4034 34.2077C94.4589 34.2275 94.5096 34.2589 94.5522 34.2997C94.5947 34.3405 94.6281 34.3899 94.6502 34.4445C94.6722 34.4992 94.6825 34.5579 94.6802 34.6168C94.6859 34.707 94.6595 34.7964 94.6058 34.8691C94.5522 34.9419 94.4746 34.9934 94.3867 35.0146L94.6882 35.5251H94.3606L94.0975 35.0448ZM94.1879 34.4299H93.8884V34.7996H94.1879C94.2134 34.8018 94.2392 34.7986 94.2634 34.7902C94.2877 34.7819 94.31 34.7686 94.3289 34.7513C94.3478 34.7339 94.3628 34.7128 94.3731 34.6893C94.3834 34.6658 94.3888 34.6404 94.3888 34.6147C94.3888 34.5891 94.3834 34.5637 94.3731 34.5402C94.3628 34.5167 94.3478 34.4956 94.3289 34.4782C94.31 34.4608 94.2877 34.4476 94.2634 34.4393C94.2392 34.4309 94.2134 34.4277 94.1879 34.4299Z" fill="black"/>
<path d="M94.1455 36.3103C93.8576 36.3103 93.5762 36.2249 93.3369 36.0649C93.0975 35.905 92.911 35.6776 92.8008 35.4117C92.6907 35.1457 92.6619 34.8531 92.7181 34.5707C92.7742 34.2884 92.9129 34.029 93.1164 33.8255C93.32 33.6219 93.5793 33.4833 93.8617 33.4272C94.144 33.371 94.4367 33.3998 94.7026 33.51C94.9686 33.6202 95.1959 33.8067 95.3559 34.0461C95.5158 34.2854 95.6012 34.5668 95.6012 34.8547C95.6007 35.2406 95.4472 35.6106 95.1743 35.8835C94.9014 36.1564 94.5314 36.3099 94.1455 36.3103ZM94.1455 33.5834C93.894 33.5834 93.6482 33.658 93.4392 33.7977C93.2301 33.9374 93.0672 34.136 92.971 34.3683C92.8747 34.6006 92.8496 34.8563 92.8987 35.1029C92.9477 35.3495 93.0688 35.576 93.2467 35.7538C93.4245 35.9316 93.651 36.0527 93.8977 36.1017C94.1443 36.1508 94.3999 36.1256 94.6322 36.0294C94.8645 35.9331 95.0631 35.7701 95.2028 35.5611C95.3425 35.352 95.417 35.1062 95.417 34.8547C95.4166 34.5176 95.2825 34.1944 95.0442 33.9561C94.8058 33.7177 94.4826 33.5837 94.1455 33.5834Z" fill="black"/>
<defs>
<linearGradient id="paint0_linear_781_297" x1="28.6611" y1="24" x2="104.184" y2="24" gradientUnits="userSpaceOnUse">
<stop stop-color="#7929D2"/>
<stop offset="1" stop-color="#0070C5"/>
</linearGradient>
<linearGradient id="paint1_linear_781_297" x1="48.8171" y1="-4.23408" x2="48.6899" y2="36.0764" gradientUnits="userSpaceOnUse">
<stop stop-color="#00AEFF"/>
<stop offset="1" stop-color="#9454DB"/>
</linearGradient>
<linearGradient id="paint2_linear_781_297" x1="66.9203" y1="38.955" x2="37.6413" y2="-3.70648" gradientUnits="userSpaceOnUse">
<stop stop-color="#66A9DC"/>
<stop offset="1" stop-color="#B1E4FA"/>
</linearGradient>
<linearGradient id="paint3_linear_781_297" x1="41.9361" y1="0.874679" x2="43.3969" y2="46.7586" gradientUnits="userSpaceOnUse">
<stop stop-color="#00AEFF"/>
<stop offset="1" stop-color="#9454DB"/>
</linearGradient>
</defs>
</svg>
