<svg height="32" viewBox="0 0 32 32" width="32" xmlns="http://www.w3.org/2000/svg"><path d="m1 12h30v14c0 2.2091-1.7909 4-4 4h-22c-2.20914 0-4-1.7909-4-4z" opacity=".4"/><path clip-rule="evenodd" d="m1 6c0-2.20914 1.79086-4 4-4h22c2.2091 0 4 1.79086 4 4v7h-30zm9 1.5c0-.82843.6716-1.5 1.5-1.5h14c.8284 0 1.5.67157 1.5 1.5s-.6716 1.5-1.5 1.5h-14c-.8284 0-1.5-.67157-1.5-1.5zm-4 2c1.10457 0 2-.89543 2-2s-.89543-2-2-2-2 .89543-2 2 .89543 2 2 2z" fill-rule="evenodd"/><circle cx="6" cy="7.5" opacity=".2" r="2"/></svg>