<svg fill="none" height="32" viewBox="0 0 32 32" width="32" xmlns="http://www.w3.org/2000/svg">
  <g clip-rule="evenodd" fill="currentColor" fill-rule="evenodd">
    <path
      d="m7 2c-1.10457 0-2 .89543-2 2v24c0 1.1046.89543 2 2 2h18c1.1046 0 2-.8954 2-2v-24c0-1.10457-.8954-2-2-2zm9.9511 4.92705c-.2994-.92131-1.6028-.92131-1.9022 0l-.6205 1.90983c-.1339.41202-.5178.69098-.9511.69098h-2.0081c-.9687 0-1.3715 1.23964-.5878 1.80904l1.6246 1.1803c.3505.2547.4972.706.3633 1.1181l-.6205 1.9098c-.2994.9213.7551 1.6874 1.5388 1.118l1.6246-1.1803c.3505-.2547.8251-.2547 1.1756 0l1.6246 1.1803c.7837.5694 1.8382-.1967 1.5388-1.118l-.6205-1.9098c-.1339-.4121.0128-.8634.3633-1.1181l1.6246-1.1803c.7837-.5694.3809-1.80904-.5878-1.80904h-2.0081c-.4333 0-.8172-.27896-.9511-.69098zm-6.9511 14.07295c0-.5523.4477-1 1-1h10c.5523 0 1 .4477 1 1s-.4477 1-1 1h-10c-.5523 0-1-.4477-1-1zm1 3c-.5523 0-1 .4477-1 1s.4477 1 1 1h10c.5523 0 1-.4477 1-1s-.4477-1-1-1z" />
    <path d="m10 21c0-.5523.4477-1 1-1h10c.5523 0 1 .4477 1 1s-.4477 1-1 1h-10c-.5523 0-1-.4477-1-1z" opacity=".4" />
    <path d="m10 25c0-.5523.4477-1 1-1h10c.5523 0 1 .4477 1 1s-.4477 1-1 1h-10c-.5523 0-1-.4477-1-1z" opacity=".4" />
  </g>
</svg>
