<svg fill="none" height="32" viewBox="0 0 32 32" width="32" xmlns="http://www.w3.org/2000/svg">
  <g clip-rule="evenodd" fill="currentColor" fill-rule="evenodd">
    <path
      d="m9.00003 19v2.6484c0 .4642-.57753.6778-.87963.3254l-4.84146-5.6484c-.16049-.1873-.16049-.4636 0-.6508l4.84146-5.6484c.3021-.35243.87963-.13879.87963.3254v2.6484c2.44057 0 4.46777.5372 6.07937 1.5628 1.6219 1.0321 2.6063 2.4213 3.178 3.7554.5587 1.3035.7282 2.5577.7705 3.4454.0215.4529.0111.8365-.0062 1.1189-.0066.1077-.0142.2018-.0217.2807v3.8368c0 .5523-.4477 1-1 1h-4c-.5523 0-1-.4477-1-1v-4.2132l.0261-.1824c.0014-.0142.0042-.0444.0069-.0885.0061-.1003.0113-.2637.0016-.467-.0202-.4248-.1006-.9206-.292-1.3672-.1783-.4158-.4439-.7766-.8845-1.057-.4508-.2869-1.2986-.6247-2.85807-.6247z" />
    <path
      d="m19 28h.04v-5.2132l-.0261-.1824c-.0014-.0142-.0041-.0444-.0069-.0885-.0036-.0598-.007-.1421-.007-.2418zm0-5.7302c0-.0664.0015-.1405.0054-.2209.0202-.4248.1006-.9206.292-1.3672.1783-.4158.4439-.7766.8845-1.057.447-.2844 1.2841-.6189 2.8181-.6246v2.6483c0 .4642.5775.6778.8796.3254l4.8415-5.6484c.1605-.1873.1605-.4636 0-.6508l-4.8415-5.6484c-.3021-.35243-.8796-.13878-.8796.3254v2.6484c-1.4877.0036-2.8212.2074-4 .6004z"
      opacity=".2" />
    <path
      d="m13 9h-2.6484c-.46415 0-.6778-.57753-.3253-.87963l5.6483-4.84146c.1873-.16049.4636-.1605.6508 0l5.6484 4.84146c.3524.3021.1388.87963-.3254.87963h-2.6484v18c0 .5523-.4477 1-1 1h-4c-.5523 0-1-.4477-1-1z"
      opacity=".4" />
  </g>
</svg>
