<svg fill="none" height="32" viewBox="0 0 32 32" width="32" xmlns="http://www.w3.org/2000/svg">
  <path
    d="m15.5 4.375c-6.63 0-12 5.33377-12 11.919 0 5.2742 3.435 9.729 8.205 11.3082.6.1043.825-.2532.825-.5661 0-.2831-.015-1.2217-.015-2.2199-3.015.5512-3.795-.7301-4.035-1.4005-.135-.3427-.72-1.4005-1.23-1.6836-.42-.2235-1.02-.7747-.015-.7896.945-.0149 1.62.8641 1.845 1.2217 1.08 1.8027 2.805 1.2962 3.495.9833.105-.7747.42-1.2962.765-1.5942-2.67-.298-5.46-1.326-5.46-5.885 0-1.2962.465-2.3689 1.23-3.2033-.12-.2979-.54-1.5196.12-3.1585 0 0 1.005-.31287 3.3 1.2217.96-.2682 1.98-.4023 3-.4023s2.04.1341 3 .4023c2.295-1.54947 3.3-1.2217 3.3-1.2217.66 1.6389.24 2.8606.12 3.1585.765.8344 1.23 1.8922 1.23 3.2033 0 4.5739-2.805 5.587-5.475 5.885.435.3725.81 1.0876.81 2.205 0 1.5942-.015 2.8755-.015 3.2778 0 .3129.225.6853.825.5661 2.3822-.7988 4.4523-2.3195 5.9188-4.348 1.4665-2.0286 2.2556-4.4628 2.2562-6.9602 0-6.58523-5.37-11.919-12-11.919z"
    fill="currentColor" />
</svg>
