<svg fill="none" height="32" viewBox="0 0 32 32" width="32" xmlns="http://www.w3.org/2000/svg">
  <g clip-rule="evenodd" fill="currentColor" fill-rule="evenodd">
    <g opacity=".6">
      <path d="m16 3c-7.1797 0-13 5.8203-13 13s5.8203 13 13 13z" />
      <path d="m16 3c-7.1797 0-13 5.8203-13 13s5.8203 13 13 13z" />
    </g>
    <g opacity=".8">
      <path d="m16 3c-4.3078 0-7.79999 5.8203-7.79999 13s3.49219 13 7.79999 13z" />
      <path d="m16 3c-4.3078 0-7.79999 5.8203-7.79999 13s3.49219 13 7.79999 13z" />
    </g>
    <g opacity=".2">
      <path d="m16 3c7.1797 0 13 5.8203 13 13s-5.8203 13-13 13z" />
      <path d="m16 3c7.1797 0 13 5.8203 13 13s-5.8203 13-13 13z" />
    </g>
    <g opacity=".3">
      <path d="m16 3c3.8292 0 6.9333 5.8203 6.9333 13s-3.1041 13-6.9333 13z" />
      <path d="m16 3c3.8292 0 6.9333 5.8203 6.9333 13s-3.1041 13-6.9333 13z" />
    </g>
  </g>
</svg>
