<svg fill="none" height="32" viewBox="0 0 32 32" width="32" xmlns="http://www.w3.org/2000/svg">
  <path
    clip-rule="evenodd"
    d="m6.46667 4.7334c-.95729 0-1.73333.77604-1.73333 1.73333v19.06667c0 .9573.77604 1.7333 1.73333 1.7333h19.06663c.9573 0 1.7334-.776 1.7334-1.7333v-19.06667c0-.95729-.7761-1.73333-1.7334-1.73333zm5.11333 8.6666v10.4h-3.29333v-10.4zm.2167-3.45812c0 1.02912-.8343 1.86332-1.86336 1.86332-1.02909 0-1.86333-.8342-1.86333-1.86332 0-1.02909.83424-1.86333 1.86333-1.86333 1.02906 0 1.86336.83424 1.86336 1.86333zm12.0033 7.54382c0-3.1288-2.0221-4.3451-4.0309-4.3451-.6577-.0324-1.3126.1055-1.8993.3999-.4455.2236-.9119.7352-1.2715 1.6249h-.0925v-1.7646h-3.1058v10.4074h3.304v-5.5355c-.0478-.5669.1337-1.2996.5048-1.7356.3712-.436.9022-.5401 1.3048-.593h.1255c1.0507 0 1.8305.6504 1.8305 2.2896v5.5745h3.304z"
    fill="currentColor"
    fill-rule="evenodd" />
</svg>
