<svg height="32" viewBox="0 0 32 32" width="32" xmlns="http://www.w3.org/2000/svg">
  <path
    clip-rule="evenodd"
    d="m4.00001 1c-1.65685 0-3 1.34314-3 2.99999l-.00001 4.00001c0 .55229.44772 1.00001 1 1.00001h8c1.1046 0 2 .89543 2 1.99999v8c0 .5523.4477 1 1 1h8c1.1046 0 2 .8954 2 2v8c0 .5523.4477 1 1 1h4c1.6569 0 3-1.3431 3-3v-24c0-1.65685-1.3431-3-3-3zm23.25009 5.49999c.9665 0 1.75-.7835 1.75-1.75s-.7835-1.75-1.75-1.75-1.75.7835-1.75 1.75.7835 1.75 1.75 1.75z"
    fill-rule="evenodd"
    opacity=".4" />
  <rect height="10" rx="1" width="10" x="1.00012" y="10" />
  <path
    d="m1.00012 22c0-.5523.44772-1 1-1h7.99998c.5523 0 1 .4477 1 1v8c0 .5523-.4477 1-1 1h-5.99998c-1.65685 0-3-1.3431-3-3z" />
  <rect height="10" rx="1" width="10" x="12.0001" y="21" />
</svg>
