<svg height="32" viewBox="0 0 32 32" width="32" xmlns="http://www.w3.org/2000/svg"><g clip-rule="evenodd" fill-rule="evenodd"><path d="m20.4811 10.2353c0 5.6528-4.5825 10.2353-10.2353 10.2353-.36872 0-.73286-.0195-1.09146-.0575-.10475.0372-.21753.0575-.33505.0575h-7.7987c-.9299166 0-1.356358-1.1582-.648462-1.7612l2.113232-1.8002c-1.542476-1.792-2.4748925-4.124-2.4748925-6.6739 0-5.6528 4.5824925-10.2353 10.2353325-10.2353 5.6528 0 10.2353 4.5825 10.2353 10.2353zm-9.4486-4.69113c0-.55228-.4477-1-1-1-.55226 0-.99998.44772-.99998 1v.19412h-2.625c-.55228 0-1 .44772-1 1 0 .55229.44772 1 1 1h3.62498.8601c-.2289.78146-.5474 1.51546-.94566 2.1918-.3554-.38751-.63951-.80394-.80743-1.19669-.21711-.50781-.80479-.74348-1.31261-.52636s-.74348.80479-.52636 1.31261c.31566.73835.83518 1.44095 1.43504 2.03485-.77427.8315-1.70547 1.5257-2.76888 2.048-.49572.2434-.70023.8426-.45677 1.3384.24346.4957.84269.7002 1.33841.4568 1.34189-.6591 2.51669-1.5499 3.48376-2.6254.1658.0934.3338.1784.503.2535.5047.2241 1.0956-.0034 1.3197-.5082.2241-.5047-.0034-1.0956-.5081-1.3197-.0333-.0148-.0669-.0304-.1008-.0467.6407-1.0373 1.1196-2.18496 1.4162-3.41291h.6954c.5523 0 1-.44771 1-1 0-.55228-.4477-1-1-1h-1.5104-1.1146z" opacity=".4"/><path d="m30.2899 20.7647c0 2.6493-1.0066 5.0635-2.6581 6.8811l1.8699 1.5929c.7079.603.2815 1.7613-.6484 1.7613h-7.7987c-.0814 0-.1604-.0097-.2361-.0281-.2522.0186-.507.0281-.7639.0281-5.6528 0-10.23533-4.5825-10.23533-10.2353s4.58253-10.2353 10.23533-10.2353 10.2353 4.5825 10.2353 10.2353zm-11.0499.0059 1.0278-2.0657 1.0278 2.0657zm4.184 4.2778-1.1333-2.2778h-4.0458l-1.1333 2.2778c-.246.4945-.8462.6959-1.3407.4499s-.6959-.8463-.4499-1.3408l1.4092-2.8323 2.1107-4.2422.0137-.0276c.0727-.1463.155-.3118.2371-.4444.0794-.1284.2588-.4003.5949-.5563.3682-.1709.7942-.1709 1.1624 0 .3361.156.5155.4279.5949.5563.0821.1326.1644.2981.2371.4444l.0137.0276 2.1107 4.2422 1.4092 2.8323c.246.4945.0446 1.0948-.4499 1.3408s-1.0947.0446-1.3407-.4499z"/></g></svg>