<svg width="32" height="32" viewBox="0 0 32 32" fill="currentColor" xmlns="http://www.w3.org/2000/svg">
  <path
    fill-rule="evenodd"
    clip-rule="evenodd"
    d="M1 6C1 3.79086 2.79086 2 5 2H27C29.2091 2 31 3.79086 31 6V26C31 28.2091 29.2091 30 27 30H5C2.79086 30 1 28.2091 1 26V6ZM4 15C4 14.4477 4.44772 14 5 14H21C21.5523 14 22 14.4477 22 15C22 15.5523 21.5523 16 21 16H5C4.44772 16 4 15.5523 4 15ZM5 18C4.44772 18 4 18.4477 4 19C4 19.5523 4.44772 20 5 20H26C26.5523 20 27 19.5523 27 19C27 18.4477 26.5523 18 26 18H5ZM10 8C10 9.65685 8.65685 11 7 11C5.34315 11 4 9.65685 4 8C4 6.34315 5.34315 5 7 5C8.65685 5 10 6.34315 10 8ZM6 22C4.89543 22 4 22.8954 4 24V25C4 26.1046 4.89543 27 6 27H14C15.1046 27 16 26.1046 16 25V24C16 22.8954 15.1046 22 14 22H6Z"
    fill="black" />
  <g opacity="0.2" fill="currentColor">
    <rect x="4" y="14" width="18" height="2" rx="1" />
    <rect x="4" y="18" width="23" height="2" rx="1" />
  </g>
  <circle opacity="0.4" cx="7" cy="8" r="3" fill="currentCOlor" />
</svg>
