<svg fill="none" height="32" viewBox="0 0 32 32" width="32" xmlns="http://www.w3.org/2000/svg">
  <path
    clip-rule="evenodd"
    d="m18.3543 3.62273c-1.257-1.40042-3.4512-1.40042-4.7082 0-.7572.84367-1.9081 1.21759-3.0166.98016-1.84006-.39413-3.61522.89559-3.80899 2.76739-.11673 1.12764-.82799 2.10659-1.86436 2.56608-1.72031.76274-2.39836 2.84954-1.45491 4.47774.56837.9809.56837 2.1909 0 3.1718-.94345 1.6282-.2654 3.7151 1.45491 4.4778 1.03637.4595 1.74763 1.4384 1.86436 2.566.19377 1.8718 1.96893 3.1616 3.80899 2.7674 1.1085-.2374 2.2594.1365 3.0166.9802 1.257 1.4004 3.4512 1.4004 4.7082 0 .7572-.8437 1.9081-1.2176 3.0166-.9802 1.84.3942 3.6152-.8956 3.809-2.7673.1167-1.1277.828-2.1066 1.8643-2.5661 1.7203-.7627 2.3984-2.8496 1.4549-4.4778-.5683-.9809-.5683-2.1909 0-3.1718.9435-1.6282.2654-3.715-1.4549-4.47774-1.0363-.45948-1.7476-1.43844-1.8643-2.56608-.1938-1.8718-1.969-3.16152-3.809-2.76739-1.1085.23743-2.2594-.13649-3.0166-.98016zm1.598 8.65307c.3677-.3677.9635-.3677 1.331 0 .3675.3675.3675.9633 0 1.331l-6.2941 6.2941c-.3675.3676-.9635.3676-1.331 0l-2.8824-2.8823c-.3675-.3676-.3675-.9635 0-1.3311.3676-.3675.9635-.3675 1.3311 0l2.2169 2.2168z"
    fill="currentColor"
    fill-rule="evenodd" />
</svg>
