<svg height="32" viewBox="0 0 32 32" width="32" xmlns="http://www.w3.org/2000/svg"><path d="m8.39665 18.387-.04348-.0523-3.84381 4.1827c-.16234.1655-.16234.4296 0 .5951.09276.0899.22031.1335.34786.119.16813-.0203.33046.0609.41742.2032.08987.1451.08407.325-.00869.4644l-5.1946749 7.4307c-.1130522.1742-.0898614.4006.0550779.5457.147837.1451.376848.1655.544976.0494l6.046911-4.3772h.0029c.13045-.0958.30437-.1103.44931-.0349.14495.0784.23191.2293.22611.3919v.5718c-.0145.1829.08696.3541.25509.4267.16524.0726.36236.0348.487-.0987l5.55705-5.1116c-.0203-.0145-.0377-.0319-.0522-.0522z" opacity=".4"/><path d="m4.65572 12.1602 3.9835 1.3792 5.87008-5.88649c-1.1131.31929-4.70238-.58392-5.94885-.32273-.59716.12191-1.14506.41507-1.57405.8476l-2.81187 2.80972c-.19132.1974-.24929.4906-.14494.746s.35075.4238.62613.4267z"/><path d="m19.8632 27.3782c-.0029.2786.1653.5311.4204.6414.255.1074.5536.0523.7508-.1422l2.8205-2.8243c.4319-.4295.7247-.9782.8465-1.5761.2609-1.2481-.6354-4.8334-.331-5.9567l-5.8701 5.8865z"/><path d="m29.5683.0184181-4.0903.5485999.0029.002903c-2.9249.391854-5.6382 1.738669-7.7252 3.825659l-9.82659 9.83952c-.36525.357-.51889.8795-.40583 1.3816l.43771 2.0522v-.0029c.06668.2816.20872.537.40584.7431l5.24687 5.2451v.0029c.2058.2031.4609.3483.7421.415l2.0495.4383c.4957.1161 1.0145-.0232 1.3885-.3715l9.8241-9.8687c2.0872-2.0899 3.4293-4.80672 3.8206-7.73536l.5421-4.09564v.0029c.0899-.66468-.1362-1.33233-.6087-1.808333-.4725-.473128-1.1398-.7024434-1.8036-.6153489zm-8.7258 12.7220819-7.421 7.4307c-.0754.0726-.1739.1161-.2783.1161-.1043 0-.2058-.0435-.2783-.1161l-1.003-1.0043c-.0725-.0726-.1159-.1742-.1159-.2787s.0434-.2031.1159-.2786l7.421-7.4308c.4319-.4296 1.1276-.4296 1.5596 0 .429.4325.429 1.132 0 1.5617zm6.2268-3.38157c-.8929.89407-2.2321 1.16107-3.3975.67627-1.1653-.48179-1.9248-1.61961-1.9248-2.88228s.7595-2.4005 1.9248-2.88523c1.1654-.48183 2.5046-.2148 3.3975.67923 1.2088 1.22199 1.2088 3.19002 0 4.41201z"/></svg>