<svg height="32" viewBox="0 0 32 32" width="32" xmlns="http://www.w3.org/2000/svg" xmlns:xlink="http://www.w3.org/1999/xlink"><clipPath id="a"><rect height="24" rx="3" width="30" x="1" y="4"/></clipPath><g clip-path="url(#a)"><path d="m1 7c0-1.65685 1.34315-3 3-3h24c1.6569 0 3 1.34315 3 3v18c0 1.6569-1.3431 3-3 3h-24c-1.65685 0-3-1.3431-3-3z" fill-opacity=".2"/><path clip-rule="evenodd" d="m28 6h-24c-.55228 0-1 .44772-1 1v18c0 .5523.44772 1 1 1h24c.5523 0 1-.4477 1-1v-18c0-.55228-.4477-1-1-1zm-24-2c-1.65685 0-3 1.34315-3 3v18c0 1.6569 1.34315 3 3 3h24c1.6569 0 3-1.3431 3-3v-18c0-1.65685-1.3431-3-3-3z" fill-rule="evenodd"/><rect height="12.2342" opacity=".6" rx="4" transform="matrix(.7193398 -.69465837 .69465837 .7193398 -13.721471 16.856568)" width="14.1085" x="14" y="25.4092"/><rect height="18.382" rx="4" transform="matrix(.7193398 -.69465837 .69465837 .7193398 -16.698596 7.554723)" width="16.4723" x="1" y="24.4426"/><circle cx="21" cy="12" opacity=".6" r="3"/></g></svg>