<svg height="32" viewBox="0 0 33 32" width="33" xmlns="http://www.w3.org/2000/svg"><path clip-rule="evenodd" d="m16.5 31c8.2843 0 15-6.7157 15-15 0-8.28427-6.7157-15-15-15-8.28427 0-15 6.71573-15 15 0 8.2843 6.71573 15 15 15zm-5.6648-18.2929c-.4469-.3906-.4469-1.0237 0-1.4143l4.8556-4.24259c.4469-.39052 1.1715-.39052 1.6185.00001l4.8555 4.24268c.4469.3905.4469 1.0236 0 1.4142-.4469.3905-1.1716.3905-1.6185 0l-4.0463-3.53557-4.0463 3.53557c-.4469.3905-1.1716.3905-1.6185 0zm0 6.5857c-.4469.3906-.4469 1.0237 0 1.4143l4.8556 4.2426c.4469.3905 1.1715.3905 1.6185 0l4.8555-4.2427c.4469-.3905.4469-1.0237 0-1.4142s-1.1716-.3905-1.6185 0l-4.0463 3.5356-4.0463-3.5356c-.4469-.3905-1.1716-.3905-1.6185 0z" fill-rule="evenodd"/></svg>