<svg height="32" viewBox="0 0 32 32" width="32" xmlns="http://www.w3.org/2000/svg"><g clip-rule="evenodd" fill-rule="evenodd"><path d="m10 0c-1.10457 0-2 .89543-2 2v26c0 1.1046.89543 2 2 2h8c1.1046 0 2-.8954 2-2v-26c0-1.104569-.8954-2-2-2zm3 8v6.9807c-.0007.0402.001.0804.005.1202.0145.1442.0595.2793.1286.3988.0691.1201.164.2271.2822.312.0322.0232.0659.0446.1009.0639l4.3134 2.4904c.4783.2762 1.0899.1123 1.3661-.366.2761-.4783.1122-1.0899-.3661-1.366l-3.8301-2.2114v-6.4226c0-.55228-.4477-1-1-1s-1 .44772-1 1z" opacity=".4"/><path d="m14 26c6.0751 0 11-4.9249 11-11 0-6.07513-4.9249-11-11-11-6.07513 0-11 4.92487-11 11 0 6.0751 4.92487 11 11 11zm-1-18v6.9807c-.0007.0402.001.0804.005.1202.0145.1442.0595.2793.1286.3988.0691.1201.164.2271.2822.312.0322.0232.0659.0446.1009.0639l4.3134 2.4904c.4783.2762 1.0899.1123 1.3661-.366.2761-.4783.1122-1.0899-.3661-1.366l-3.8301-2.2114v-6.4226c0-.55228-.4477-1-1-1s-1 .44772-1 1z"/><path d="m14 26c6.0751 0 11-4.9249 11-11 0-6.07513-4.9249-11-11-11-6.07513 0-11 4.92487-11 11 0 6.0751 4.92487 11 11 11zm-1-18v6.9807c-.0007.0402.001.0804.005.1202.0145.1442.0595.2793.1286.3988.0691.1201.164.2271.2822.312.0322.0232.0659.0446.1009.0639l4.3134 2.4904c.4783.2762 1.0899.1123 1.3661-.366.2761-.4783.1122-1.0899-.3661-1.366l-3.8301-2.2114v-6.4226c0-.55228-.4477-1-1-1s-1 .44772-1 1z"/></g></svg>