<svg height="33" viewBox="0 0 34 33" width="34" xmlns="http://www.w3.org/2000/svg"><g clip-rule="evenodd" fill-rule="evenodd"><path d="m12.1961 30.8923-.003.0018c.6737-.4825 1.2578-1.113 1.6992-1.8774l11.2237-19.4401 1.8648-1.07663c.9565-.55228 2.1797-.22453 2.732.73205l4 6.92818c.5523.9566.2245 2.1798-.732 2.7321z" opacity=".2"/><path d="m18.232 1.49997c-.9566-.552282-2.1797-.22453-2.732.73205l-12.00002 20.78458c-1.65686 2.8698-.6736 6.5393 2.19615 8.1962 2.86976 1.6568 6.53927.6736 8.19617-2.1962l12-20.78458c.5523-.95658.2245-2.17976-.7321-2.73205zm-9.73202 26.50003c-.82843 0-1.5-.6716-1.5-1.5 0-.8285.67157-1.5 1.5-1.5s1.5.6715 1.5 1.5c0 .8284-.67157 1.5-1.5 1.5z" opacity=".5"/><path d="m4.5 0c-1.10457 0-2 .895431-2 2v24c0 3.3137 2.68629 6 6 6 3.3137 0 6-2.6863 6-6v-24c0-1.104569-.8954-2-2-2zm4 28c-.82843 0-1.5-.6716-1.5-1.5s.67157-1.5 1.5-1.5 1.5.6716 1.5 1.5-.67157 1.5-1.5 1.5z"/></g></svg>