<svg height="32" viewBox="0 0 32 32" width="32" xmlns="http://www.w3.org/2000/svg"><g clip-rule="evenodd" fill-rule="evenodd"><path d="m20 5c0-2.20914 1.7909-4 4-4s4 1.79086 4 4v13.2547c1.8135 1.2649 3 3.3666 3 5.7453 0 3.866-3.134 7-7 7s-7-3.134-7-7c0-2.3787 1.1865-4.4804 3-5.7453zm2 0c0-1.10457.8954-2 2-2s2 .89543 2 2v14.416c1.7659.7716 3 2.5337 3 4.584 0 2.7614-2.2386 5-5 5s-5-2.2386-5-5c0-2.0503 1.2341-3.8124 3-4.584z" opacity=".4"/><path d="m13.8704 19.873c-.3595.4193-.9908.4679-1.4101.1085l-1.4603-1.2517v2.2702c0 .5523-.4477 1-1 1-.55228 0-1-.4477-1-1v-2.2702l-1.46032 1.2517c-.41933.3594-1.05062.3108-1.41005-.1085-.35942-.4193-.31086-1.0506.10847-1.41l2.7619-2.3674v-5.7468l-2.7619-2.36732c-.41933-.35942-.46789-.99072-.10847-1.41005.35943-.41933.99073-.46789 1.41005-.10846l1.46032 1.2517v-2.71467c0-.55229.44772-1 1-1 .5523 0 1 .44772 1 1v2.71467l1.4603-1.2517c.4193-.35943 1.0506-.31087 1.4101.10846.3594.41933.3108 1.05063-.1085 1.41005l-2.7619 2.36732v5.746l2.7619 2.3682c.4193.3594.4679.9907.1085 1.41z"/><path d="m16.873 9.12968c.4193.35942.4679.99072.1085 1.41002l-1.2517 1.4603h2.2702c.5523 0 1 .4478 1 1 0 .5523-.4477 1-1 1h-2.2702l1.2517 1.4604c.3594.4193.3108 1.0506-.1085 1.41s-1.0506.3109-1.41-.1085l-2.3674-2.7619h-5.74678l-2.36734 2.7619c-.35943.4194-.99073.4679-1.41005.1085-.41933-.3594-.46789-.9907-.10847-1.41l1.25171-1.4604h-2.71467c-.55229 0-1.000001-.4477-1.000001-1 0-.5522.447711-1 1.000001-1h2.71467l-1.25171-1.4603c-.35942-.4193-.31086-1.0506.10847-1.41002s1.05063-.31086 1.41005.10846l2.36734 2.76186h5.74598l2.3682-2.76185c.3594-.41933.9907-.46789 1.41-.10847z"/><path d="m24 12c-.5523 0-1 .4477-1 1v7.126c-1.7252.4441-3 2.0102-3 3.874 0 2.2091 1.7909 4 4 4s4-1.7909 4-4c0-1.8638-1.2748-3.4299-3-3.874v-7.126c0-.5523-.4477-1-1-1z"/></g></svg>