<svg height="32" viewBox="0 0 32 32" width="32" xmlns="http://www.w3.org/2000/svg"><path clip-rule="evenodd" d="m28.2692 6c1.227 0 2.2226.95648 2.2307 2.13934v.02901c-.0081 1.18286-1.0037 2.13935-2.2307 2.13935-.8257 0-1.5466-.43314-1.9324-1.07693h-3.2807c3.1531 2.14383 5.2131 5.68583 5.2131 9.69233 0 .5947-.4994 1.0769-1.1154 1.0769s-1.1154-.4822-1.1154-1.0769c0-5.3465-4.4835-9.68184-10.0183-9.69233h-.0403c-5.5348.01049-10.0183 4.34583-10.0183 9.69233 0 .5947-.49938 1.0769-1.11539 1.0769s-1.11538-.4822-1.11538-1.0769c0-4.0065 2.05999-7.5485 5.2131-9.69233h-3.28073c-.38571.64379-1.10663 1.07693-1.93233 1.07693-1.23202 0-2.23077-.96432-2.23077-2.15385 0-1.18954.99875-2.15385 2.23077-2.15385.8257 0 1.54662.43314 1.93233 1.07692h10.3147l.0222-.00002.0221.00002h10.3147c.3858-.64378 1.1067-1.07692 1.9324-1.07692z" fill-rule="evenodd" opacity=".3"/><circle cx="16" cy="8" r="4"/><circle cx="16" cy="8" r="4"/><circle cx="5" cy="23" r="4"/><circle cx="5" cy="23" r="4"/><circle cx="27" cy="23" r="4"/><circle cx="27" cy="23" r="4"/></svg>