<svg height="32" viewBox="0 0 33 32" width="33" xmlns="http://www.w3.org/2000/svg"><rect height="15" opacity=".2" rx="2" width="15" x=".5" y="17"/><path d="m11.2831 22.2758c-.3675-.3677-.9633-.3677-1.33103 0l-2.62848 2.6285-1.21689-1.2168c-.36755-.3675-.96351-.3675-1.33105 0-.36753.3676-.36753.9635 0 1.3311l1.88233 1.8823c.36755.3676.96352.3676 1.33105 0l3.29407-3.2941c.3676-.3677.3676-.9635 0-1.331z"/><rect height="15" opacity=".2" rx="7.5" width="15" x="17.5" y="17"/><rect height="8" rx="4" width="8" x="21" y="20.5"/><path clip-rule="evenodd" d="m2.5 0c-1.10457 0-2 .89543-2 2v11c0 1.1046.89543 2 2 2h28c1.1046 0 2-.8954 2-2v-11c0-1.104569-.8954-2-2-2zm5 4c-1.933 0-3.5 1.567-3.5 3.5s1.567 3.5 3.5 3.5h7.5c1.933 0 3.5-1.567 3.5-3.5s-1.567-3.5-3.5-3.5z" fill-rule="evenodd"/></svg>