<svg fill="none" height="32" viewBox="0 0 32 32" width="32" xmlns="http://www.w3.org/2000/svg">
  <path
    clip-rule="evenodd"
    d="m25.8768 6.5016c1.032.276 1.8456 1.0896 2.1216 2.12159.5016 1.87201.5016 6.97681.5016 6.97681s0 5.1048-.5016 6.9768c-.276 1.032-1.0884 1.8456-2.1216 2.1216-1.872.5016-9.3768.5016-9.3768.5016s-7.50481 0-9.37681-.5016c-1.032-.276-1.84559-1.0896-2.12159-2.1216-.5016-1.872-.5016-6.9768-.5016-6.9768s0-5.1048.5016-6.97681c.276-1.03199 1.08959-1.84559 2.12159-2.12159 1.872-.5016 9.37681-.5016 9.37681-.5016s7.5048 0 9.3768.5016zm-10.8768 5.4612c-.3996-.2304-.9.0576-.9.5196v6.2352c0 .462.5004.7512.9.5196l5.4-3.1176c.3996-.2304.3996-.8088 0-1.0392z"
    fill="currentColor"
    fill-rule="evenodd" />
</svg>
