<svg width="136" height="56" viewBox="0 0 136 56" fill="white" xmlns="http://www.w3.org/2000/svg">
  <path
    fill-rule="evenodd"
    clip-rule="evenodd"
    d="M43.9681 26.9693C43.3413 27.7529 44.2028 28.3002 44.751 27.7529C45.2991 27.204 49.3713 23.9153 48.5877 17.8861C48.3523 16.7112 47.4908 17.2593 46.9434 17.5727C46.396 17.8861 44.5942 19.295 43.8114 19.9211C43.0279 20.548 43.3413 21.0173 43.5767 21.4095C44.2816 22.6632 45.5345 24.6989 43.9681 26.9693ZM77.3367 27.7573C76.7084 28.5401 77.5706 29.0889 78.118 28.5401C78.6654 27.9927 82.6603 25.4081 81.8768 19.3789C81.6414 18.204 80.6239 18.2827 80.075 18.5961C79.5276 18.9088 77.7259 20.2397 76.9438 20.8658C76.1595 21.4941 76.4737 21.9627 76.7084 22.3534C77.5706 23.3724 78.9015 25.4861 77.3367 27.7573ZM84.4967 26.5764C83.8699 27.3592 84.7321 27.9088 85.2795 27.3592C85.8269 26.8111 89.8991 24.0706 89.1163 18.0414C88.8808 16.8672 88.02 16.8672 87.4712 17.1798C86.9238 17.4933 84.8101 19.0596 84.0266 19.6857C83.2438 20.3118 83.5564 20.7812 83.7911 21.1733C84.6534 22.1136 86.063 24.306 84.4967 26.5764Z" />
  <path
    fill-rule="evenodd"
    clip-rule="evenodd"
    d="M134.988 37.2539C131.778 38.2722 130.681 36.3144 130.134 35.4536C129.585 34.5921 128.489 32.4776 127.079 28.7976C125.67 25.1175 121.678 26.3704 120.815 26.7611C119.955 27.1532 117.605 28.6409 116.509 29.9718C114.159 24.2552 108.99 29.0315 108.443 29.8143C108.125 30.2683 108.286 30.9893 108.913 30.8333C111.183 30.6766 111.654 34.9048 111.419 36.7838C108.207 38.7415 106.798 36.5498 105.546 34.9835C104.293 33.4171 101.905 29.8938 101.083 28.9535C99.3604 26.8398 96.4624 26.5257 95.0543 27.2312C93.6446 27.9368 92.1562 29.5796 91.6081 30.2072C91.0608 30.834 91.6869 31.6154 92.391 31.068C94.1927 29.5017 96.11 31.4984 97.1282 32.7521C93.0546 34.083 91.372 37.0972 91.6869 38.3501C90.2772 39.1329 88.7109 38.6636 88.5542 36.3137C88.396 33.9653 89.1016 30.9106 89.415 29.5009C89.9638 26.5249 87.458 27.4652 86.439 27.7006C85.4215 27.936 83.463 29.267 81.8981 30.4412L82.2888 28.3274C82.5242 27.6226 81.9754 27.1532 81.428 27.4659C80.8806 27.7793 80.3333 28.092 79.471 28.7188C78.6087 29.3464 76.4163 31.068 76.1029 32.3217C76.0256 30.6773 73.3623 27.6226 72.5795 26.7611C65.9235 19.5569 64.4358 17.7552 61.6173 12.9796C58.798 8.20333 59.3469 2.0954 60.4431 0.92119C60.8205 0.516545 60.6778 -0.332474 59.8943 0.138386C56.2922 1.8607 55.0392 5.1501 54.8825 7.65522C54.2572 15.3295 63.8105 25.8996 66.551 28.7976C58.3294 31.2247 57.9372 36.7838 58.5641 39.2109C55.8235 39.8385 55.6668 37.4106 55.7448 35.0615C55.8235 32.7123 57.0764 24.1773 57.3111 22.3755C57.5466 20.5752 56.8418 18.5387 54.3352 19.0876C51.8293 19.6357 49.4809 22.3755 48.932 23.0803C48.3839 23.7851 48.932 24.412 49.4809 23.8631C50.6551 23.0016 51.986 24.1773 51.6733 25.8988C51.3599 27.6219 50.3424 35.7663 50.7338 38.8195C48.0713 40.5426 46.9743 39.1329 46.9743 38.1927C46.9743 36.7831 47.4444 30.7546 47.5231 29.2662C47.6011 27.7786 46.7411 27.4645 45.8008 28.0905L40.7111 31.2232C40.0063 31.7713 40.2417 32.4762 40.9458 32.1635C41.5734 31.8493 42.2775 32.3202 42.2775 33.025L42.0428 40.2284C38.6761 43.2044 32.8029 41.8728 30.1403 40.7765C27.0871 39.6016 18.7867 37.5659 14.7145 36.939C15.8894 34.8253 27.0863 30.127 29.4355 29.0301C36.2483 25.7421 41.0245 19.7909 41.26 19.3208C41.4954 18.8507 41.4954 18.3025 40.5552 18.538C35.0748 19.4775 25.8334 17.5985 21.9974 16.4228C17.9252 15.2486 13.2276 16.3455 10.643 17.7537C10.643 17.7537 6.17943 20.1036 4.45785 20.9644C3.909 21.5912 4.22242 22.2953 5.24065 21.7479C9.70352 19.5555 17.3778 20.4957 19.2568 21.0431C21.1366 21.5912 29.1236 23.3143 31.5507 23.393C28.5754 26.9951 16.7517 31.8493 10.0169 34.3552C3.28217 36.8603 0.385642 41.1672 0.150948 41.794C-0.0837461 42.4209 -0.24119 43.2037 1.24717 42.8115C12.0527 41.1672 22.8589 44.2992 30.1411 46.1789C37.4232 48.058 41.7308 43.5164 43.2185 41.7161C44.7053 43.9078 49.8738 42.7336 51.2047 40.7765C53.0844 44.3786 58.4876 42.8903 59.5838 41.1672C62.559 44.926 69.6065 41.8728 71.2515 40.6971C72.8951 39.5236 75.245 37.9573 75.8711 35.7648C75.8711 37.4084 75.2443 42.3422 75.1656 43.5164C75.0883 44.6913 74.8536 47.98 73.0518 49.9385C71.2515 51.8955 66.7879 52.679 64.2813 52.3656C61.7762 52.0522 61.5408 53.6965 62.2456 54.4013C62.9504 55.1061 63.8899 56.2024 65.2209 55.9677C73.444 55.1061 79.1583 48.3728 79.9433 44.5361C80.7247 40.6978 81.2742 35.8443 81.3515 33.6511C81.4302 31.4594 84.3275 31.7713 84.2495 33.2597C84.1708 34.7473 83.3085 39.0542 85.267 41.7955C87.224 44.5368 91.4529 41.9515 92.4719 41.09C94.1949 44.6148 101.006 42.4223 102.181 40.7773C104.529 44.692 109.151 42.1862 110.245 41.4034C109.933 42.6563 110.168 43.5958 111.264 43.3611C115.571 42.5783 116.275 38.2714 116.511 35.4529C116.745 32.6336 118.234 31.3814 120.034 31.224C121.834 31.0673 123.871 36.8618 124.341 38.5061C124.733 39.6811 126.064 42.2642 128.962 42.2642C132.642 42.2642 135.303 38.8968 135.617 38.3494C135.929 37.8028 135.929 36.8625 134.988 37.2539ZM67.804 38.977C65.2981 39.055 63.9665 37.3334 64.1239 35.2189C64.2799 33.1045 65.8462 31.3034 68.2734 30.5986C69.8397 31.9303 71.2493 33.4179 71.3273 35.3749C71.406 37.3334 70.3098 38.8983 67.804 38.977ZM96.3866 38.8203C95.0844 37.2127 96.3866 35.2969 98.1855 34.3574C98.8123 35.3749 100.222 37.4106 100.926 38.5856C99.7533 39.5258 97.7168 40.4646 96.3866 38.8203Z" />
  <path
    fill-rule="evenodd"
    clip-rule="evenodd"
    d="M133.639 29.5899C132.409 29.5899 131.37 30.5361 131.37 31.8177C131.37 33.1126 132.409 34.0572 133.639 34.0572C134.856 34.0572 135.895 33.1126 135.895 31.8177C135.895 30.5368 134.857 29.5899 133.639 29.5899ZM133.639 33.6849C132.616 33.6849 131.818 32.894 131.818 31.8184C131.818 30.7605 132.616 29.9637 133.639 29.9637C134.649 29.9637 135.445 30.7612 135.445 31.8184C135.445 32.894 134.649 33.6849 133.639 33.6849Z" />
  <path
    fill-rule="evenodd"
    clip-rule="evenodd"
    d="M134 31.9781C134.378 31.931 134.668 31.7294 134.668 31.2696C134.668 30.7612 134.367 30.5368 133.757 30.5368H132.777V33.1133H133.167V31.9943H133.616L134.295 33.1133H134.733L134 31.9781ZM133.167 31.6639V30.8671H133.699C133.97 30.8671 134.261 30.926 134.261 31.2453C134.261 31.6411 133.965 31.6639 133.634 31.6639H133.167Z" />
</svg>
