<svg width="30" height="64" viewBox="0 0 30 64" fill="none" xmlns="http://www.w3.org/2000/svg">
<path d="M29.5163 55.1051C29.9987 54.6112 29.9893 53.8198 29.4954 53.3375L21.4467 45.4774C20.9528 44.9951 20.1614 45.0044 19.679 45.4983C19.1967 45.9923 19.2061 46.7837 19.7 47.266L26.8544 54.2528L19.8676 61.4071C19.3853 61.901 19.3947 62.6924 19.8886 63.1748C20.3825 63.6571 21.1739 63.6477 21.6562 63.1538L29.5163 55.1051ZM21.7704 2.48435C22.3141 2.05888 22.4099 1.27325 21.9844 0.729588C21.5589 0.185927 20.7733 0.0901181 20.2296 0.515592L21.7704 2.48435ZM28.622 54.2318C28.6072 52.9819 28.6076 52.9819 28.6079 52.9819C28.6079 52.9819 28.6081 52.9819 28.6081 52.9819C28.608 52.9819 28.6076 52.9819 28.6069 52.9819C28.6054 52.9819 28.6026 52.9819 28.5985 52.982C28.5902 52.982 28.5766 52.9821 28.5578 52.982C28.5202 52.982 28.462 52.9817 28.3843 52.9807C28.229 52.9785 27.9961 52.9732 27.6957 52.9603C27.0946 52.9345 26.2249 52.8787 25.1661 52.7583C23.0441 52.5169 20.1858 52.0188 17.2182 50.9965C11.271 48.9478 5.08314 44.8787 3.2186 36.7214L0.781457 37.2785C2.91695 46.6212 10.0401 51.168 16.4039 53.3602C19.5918 54.4584 22.639 54.987 24.8836 55.2423C26.0081 55.3701 26.9369 55.4301 27.5886 55.458C27.9146 55.472 28.1717 55.478 28.3497 55.4804C28.4387 55.4817 28.508 55.482 28.5562 55.482C28.5804 55.4821 28.5993 55.482 28.6127 55.4819C28.6195 55.4819 28.6249 55.4818 28.6289 55.4818C28.6309 55.4818 28.6326 55.4818 28.6339 55.4817C28.6346 55.4817 28.6353 55.4817 28.6356 55.4817C28.6363 55.4817 28.6368 55.4817 28.622 54.2318ZM3.2186 36.7214C1.35343 28.5614 5.77428 20.0946 10.9832 13.4594C13.5581 10.1795 16.261 7.42968 18.3232 5.49826C19.3532 4.53366 20.2203 3.77594 20.8277 3.2612C21.1313 3.00389 21.3698 2.80747 21.531 2.67645C21.6116 2.61095 21.6729 2.56181 21.7133 2.5296C21.7335 2.5135 21.7485 2.50163 21.7581 2.49406C21.7629 2.49028 21.7663 2.48758 21.7684 2.48595C21.7694 2.48514 21.7701 2.4846 21.7704 2.48434C21.7706 2.4842 21.7706 2.48421 21.7707 2.48414C21.7706 2.48421 21.7704 2.48435 21 1.49997C20.2296 0.515592 20.2293 0.515867 20.2288 0.516218C20.2286 0.516423 20.228 0.516841 20.2275 0.517257C20.2265 0.518085 20.2251 0.519188 20.2233 0.520566C20.2198 0.523323 20.2149 0.527172 20.2087 0.532108C20.1962 0.541978 20.1782 0.556196 20.155 0.574681C20.1086 0.61166 20.0412 0.665732 19.9544 0.736339C19.7806 0.87754 19.5289 1.08493 19.2114 1.35398C18.5766 1.89197 17.6781 2.67723 16.6143 3.67357C14.489 5.66403 11.6919 8.50799 9.0168 11.9156C3.72575 18.6554 -1.3534 27.9386 0.781457 37.2785L3.2186 36.7214Z" fill="white"/>
</svg>
