<svg width="54" height="19" viewBox="0 0 54 19" fill="none" xmlns="http://www.w3.org/2000/svg">
<path d="M52.2104 16.7323C52.8909 16.6161 53.3484 15.9703 53.2322 15.2898L51.3389 4.20023C51.2228 3.51972 50.5769 3.06224 49.8964 3.17842C49.2159 3.2946 48.7584 3.94044 48.8746 4.62095L50.5575 14.4783L40.7001 16.1612C40.0196 16.2774 39.5621 16.9232 39.6783 17.6038C39.7945 18.2843 40.4403 18.7417 41.1208 18.6256L52.2104 16.7323ZM1.44101 2.38207C0.823535 2.6908 0.573247 3.44164 0.881976 4.05911C1.19071 4.67659 1.94154 4.92688 2.55902 4.61815L1.44101 2.38207ZM52 15.5001C52.7225 14.4801 52.7223 14.4799 52.722 14.4797C52.7218 14.4796 52.7215 14.4794 52.7212 14.4791C52.7205 14.4787 52.7197 14.4781 52.7187 14.4774C52.7167 14.476 52.7139 14.474 52.7104 14.4716C52.7035 14.4667 52.6936 14.4598 52.6809 14.4509C52.6554 14.4331 52.6185 14.4074 52.5703 14.3742C52.4739 14.3078 52.3325 14.2115 52.1481 14.0884C51.7796 13.8424 51.2392 13.4895 50.5437 13.0563C49.153 12.1901 47.1401 11.0015 44.6383 9.70311C39.6405 7.1093 32.6621 4.06164 24.7753 2.28081L24.2247 4.71941C31.8379 6.43847 38.6095 9.39083 43.4867 11.9221C45.9224 13.1862 47.8783 14.3414 49.222 15.1783C49.8936 15.5967 50.4119 15.9352 50.7601 16.1677C50.9342 16.2839 51.0657 16.3736 51.1527 16.4334C51.1961 16.4634 51.2284 16.4858 51.2493 16.5004C51.2598 16.5077 51.2674 16.513 51.2721 16.5163C51.2744 16.518 51.276 16.5192 51.277 16.5198C51.2774 16.5201 51.2777 16.5203 51.2778 16.5204C51.2778 16.5204 51.2777 16.5203 51.2778 16.5204C51.2776 16.5203 51.2775 16.5202 52 15.5001ZM24.7753 2.28081C16.8964 0.501759 11.1284 0.490996 7.29024 0.946353C5.37222 1.17391 3.94036 1.51738 2.97201 1.81209C2.48799 1.9594 2.12027 2.09437 1.86596 2.19631C1.73883 2.24728 1.64008 2.28997 1.56937 2.3218C1.53401 2.33771 1.50567 2.35091 1.48429 2.36106C1.4736 2.36614 1.46465 2.37045 1.45744 2.37397C1.45384 2.37573 1.45066 2.37728 1.44793 2.37863C1.44656 2.37931 1.4453 2.37993 1.44414 2.38051C1.44357 2.38079 1.44278 2.38118 1.4425 2.38133C1.44174 2.3817 1.44101 2.38207 2.00002 3.50011C2.55902 4.61815 2.55835 4.61849 2.55769 4.61881C2.55752 4.6189 2.55689 4.61921 2.55653 4.61939C2.5558 4.61975 2.55518 4.62006 2.55467 4.62031C2.55365 4.62082 2.55304 4.62111 2.55286 4.6212C2.55249 4.62138 2.55382 4.62073 2.55685 4.61929C2.56291 4.61641 2.57577 4.61038 2.59546 4.60152C2.63486 4.58379 2.70164 4.5547 2.79618 4.5168C2.98523 4.44102 3.28548 4.32991 3.69989 4.20378C4.52841 3.95163 5.81531 3.63888 7.58478 3.42894C11.1216 3.00933 16.6036 2.99857 24.2247 4.71941L24.7753 2.28081Z" fill="white"/>
</svg>
