<svg fill="none" height="32" viewBox="0 0 84 32" width="84" xmlns="http://www.w3.org/2000/svg">
  <g fill="currentColor">
    <path d="m74.1053 23.7871v-15.57417h3.2681v12.85927h6.6268v2.7149z" />
    <path
      d="m68.3308 13.2471c-.1057-.37-.2541-.697-.4453-.9809-.1912-.289-.4252-.5324-.702-.7301-.2717-.2028-.5837-.3574-.9359-.4639-.3472-.1064-.7321-.1597-1.1548-.1597-.79 0-1.4843.1978-2.0831.5932-.5938.3954-1.0567.9709-1.3888 1.7262-.3321.7504-.4981 1.668-.4981 2.7529s.1635 2.0076.4906 2.7681c.327.7604.7899 1.3409 1.3887 1.7414.5988.3954 1.3058.5932 2.1209.5932.7397 0 1.3712-.1319 1.8945-.3955.5283-.2687.9309-.6464 1.2076-1.1331.2818-.4867.4227-1.0621.4227-1.7262l.6642.0989h-3.9852v-2.4791h6.4684v1.9619c0 1.3689-.2869 2.545-.8605 3.5286-.5736.9784-1.3636 1.7338-2.3699 2.2661-1.0064.5273-2.1587.7909-3.4569.7909-1.4491 0-2.7222-.3219-3.8191-.9658-1.0969-.6489-1.9523-1.5691-2.5662-2.7604-.6088-1.1965-.9133-2.616-.9133-4.2586 0-1.2623.1812-2.3878.5435-3.3764.3673-.9937.8805-1.8353 1.5397-2.5247.6591-.68951 1.4265-1.21423 2.302-1.57418.8756-.35995 1.824-.53992 2.8455-.53992.8755 0 1.6907.12928 2.4454.38783.7548.25349 1.424.61344 2.0077 1.07985.5887.46641 1.0693 1.02152 1.4416 1.66542.3724.6388.6114 1.3435.717 2.114z" />
    <path
      d="m46.2284 8.21293 3.7361 11.83267h.1434l3.7436-11.83267h3.6229l-5.3286 15.57417h-4.2116l-5.3362-15.57417z" />
    <path d="m34.0002 23.7871v-15.57417h3.2682v12.85927h6.6268v2.7149z" />
    <path
      clip-rule="evenodd"
      d="m3.00001 3c-1.65685 0-2.99999751 1.34314-3.00000116 2.99999l-.00000884 4.00001c0 .5523.447714 1 1 1h6c1.10457 0 2 .8954 2 2v6c0 .5523.44771 1 1 1h6c1.1046 0 2 .8954 2 2v6c0 .5523.4477 1 1 1h4c1.6569 0 3-1.3431 3-3v-20c0-1.65685-1.3431-3-3-3zm19.49999 5c.8284 0 1.5-.67157 1.5-1.5s-.6716-1.5-1.5-1.5-1.5.67157-1.5 1.5.6716 1.5 1.5 1.5z"
      fill-rule="evenodd" />
  </g>
  <rect fill="#f35f20" height="8" rx="1" width="8" x=".000122" y="12" />
  <path
    d="m0 22c0-.5523.447715-1 1-1h6c.55228 0 1 .4477 1 1v6c0 .5523-.44772 1-1 1h-4c-1.65685 0-3-1.3431-3-3z"
    fill="#62d367" />
  <rect fill="#3c65f8" height="8" rx="1" width="8" x="9" y="21" />
</svg>
