<svg fill="none" height="48" viewBox="0 0 48 48" width="48" xmlns="http://www.w3.org/2000/svg"><path clip-rule="evenodd" d="m21.6343.0391597c-.0112.009836-.488.0309857-1.0594.0470095-3.6539.1025618-7.4793.6954908-9.8822 1.5317308-2.37656.8271-4.243 1.98345-5.81985 3.60579-.97847 1.00659-1.69765 2.01476-2.34447 3.28646-1.04317 2.05065-1.570291 4.10375-2.059688 8.02215-.350217 2.8037-.46917195 4.8327-.46164489 7.8734.00905099 3.6434.30957889 6.979.94647089 10.5056.484042 2.6801 1.418322 4.8205 2.965342 6.7932.49263.6282.53645.6781 1.08454 1.2366 1.95939 1.9967 4.2998 3.3301 7.0516 4.0173 1.4.3495 3.5496.6654 5.5183.8109 1.8925.1399 4.4884.2105 7.7348.2105 6.5299 0 10.6313-.6742 13.8997-2.285 1.4403-.7098 2.5675-1.5196 3.7222-2.6744 1.672-1.672 2.7121-3.3856 3.5062-5.7771.8857-2.6658 1.2635-5.0179 1.3651-8.4968.0171-.5715.0369-1.0503.0448-1.0642.0272-.0493.0895-3.2297.0895-4.5927 0-3.0666-.139-5.3408-.4631-7.5837-.4184-2.8954-.9541-4.8231-1.8445-6.63916-.7643-1.55889-1.5957-2.70887-2.8085-3.88521-1.0926-1.0597-2.2844-1.88708-3.7502-2.60353-2.4939-1.21902-5.2027-1.871608-8.6123-2.074885-1.4413-.085892-1.578-.092911-2.7245-.13969-.6223-.025398-1.3496-.057399-1.6162-.0710679-.6145-.0315859-4.4547-.0771177-4.482-.0531974zm4.3038 15.0633403c1.1914.1969 2.2166.7492 3.0762 1.6573.5792.6119.9552 1.2377 1.2089 2.0122.2388.7289.2338.5572.2338 8.0411 0 6.9053-.0008 6.9677-.0923 7.0592-.0897.0896-.1539.0923-2.1884.0923-1.9283 0-2.1038-.0064-2.1933-.0808l-.0973-.0808-.0132-6.1879c-.0123-5.8105-.0183-6.2048-.0965-6.4649-.3068-1.0196-1.1089-1.8121-2.1072-2.0821-.2763-.0748-.6676-.0817-4.918-.0872-2.5398-.0033-4.6721.0117-4.7384.0334-.0664.0216-.1443.0912-.1732.1547-.0386.0846-.0525 2.0442-.0525 7.3631 0 7.1863-.0008 7.2486-.0924 7.3402-.0896.0896-.1539.0923-2.1832.0923-1.81765 0-2.10423-.0093-2.19345-.0719l-.10265-.0718v-9.3024c0-9.2492.00051-9.3028.09263-9.3949.09199-.092.14491-.0926 8.16197-.0898 6.766.0023 8.1339.0134 8.4685.0687zm12.7848.1557v18.4631l-.1914.2433h-4.235l-.1914-.2433v-18.4631l.2267-.2267h4.1644zm-16.5701 7.1459c.081.0733.0845.3115.0845 5.7261 0 5.5882-.001 5.6507-.0924 5.7421-.0897.0898-.1539.0923-2.3089.0923s-2.2191-.0025-2.3089-.0923c-.0913-.0914-.0924-.1539-.0924-5.7261s.0011-5.6348.0924-5.7261c.0898-.0899.1539-.0924 2.3168-.0924 2.0051 0 2.2328.0075 2.3089.0764z" fill="#ff6200" fill-rule="evenodd"/><g fill="#fff"><path d="m38.3947 14.9043h-3.9993c-.1712 0-.3098.1416-.3098.316v18.9652c0 .1729.1386.3144.3098.3144h3.9993c.1698 0 .3104-.1415.3104-.3144v-18.9652c0-.1744-.1406-.316-.3104-.316zm-13.6552 0h-15.23389c-.17127 0-.30893.1416-.30893.316v18.9652c0 .1729.13766.3144.30893.3144h4.00029c.1702 0 .3113-.1415.3113-.3144v-14.8849c0-.1719.1376-.3144.3089-.3144h8.6169c2.4231 0 3.111 1.9289 3.111 3.1732v12.0261c0 .1729.1391.3144.3104.3144h3.9978c.1703 0 .3099-.1415.3099-.3144v-13.4539c0-1.1099-.1284-2.7056-1.5062-4.1102-1.4414-1.4663-2.7563-1.7171-4.2264-1.7171z"/><path d="m21.9374 22.3242h-4.1997c-.1713 0-.3119.1416-.3119.315v11.5478c0 .1724.1406.314.3119.314h4.1997c.1698 0 .3089-.1416.3089-.314v-11.5478c0-.1734-.1391-.315-.3089-.315z"/></g></svg>